<?xml version="1.0" encoding="UTF-8" standalone="no"?>
<svg
   xmlns:dc="http://purl.org/dc/elements/1.1/"
   xmlns:cc="http://creativecommons.org/ns#"
   xmlns:rdf="http://www.w3.org/1999/02/22-rdf-syntax-ns#"
   xmlns:svg="http://www.w3.org/2000/svg"
   xmlns="http://www.w3.org/2000/svg"
   xmlns:xlink="http://www.w3.org/1999/xlink"
   xmlns:sodipodi="http://sodipodi.sourceforge.net/DTD/sodipodi-0.dtd"
   xmlns:inkscape="http://www.inkscape.org/namespaces/inkscape"
   viewBox="0 0 3000 3000"
   version="1.1"
   id="svg148"
   sodipodi:docname="tombstone.svg"
   inkscape:version="0.92.2 5c3e80d, 2017-08-06">
  <metadata
     id="metadata154">
    <rdf:RDF>
      <cc:Work
         rdf:about="">
        <dc:format>image/svg+xml</dc:format>
        <dc:type
           rdf:resource="http://purl.org/dc/dcmitype/StillImage" />
        <dc:title></dc:title>
      </cc:Work>
    </rdf:RDF>
  </metadata>
  <defs
     id="defs152">
    <marker
       inkscape:isstock="true"
       style="overflow:visible"
       id="Arrow1Lstart"
       refX="0.0"
       refY="0.0"
       orient="auto"
       inkscape:stockid="Arrow1Lstart">
      <path
         transform="scale(0.8) translate(12.5,0)"
         style="fill-rule:evenodd;stroke:#000000;stroke-width:1pt;stroke-opacity:1;fill:#000000;fill-opacity:1"
         d="M 0.0,0.0 L 5.0,-5.0 L -12.5,0.0 L 5.0,5.0 L 0.0,0.0 z "
         id="path4997" />
    </marker>
    <clipPath
       id="tailShadowClipPath">
      <path
         style="fill:none"
         inkscape:connector-curvature="0"
         id="path3991"
         d="m 1942.6,1959.2 c 69,30 162.4,39.9 162.4,39.9 0,0 347.1,45 398.6,-246 19.5,-161.9 -177.1,-195.4 -177.1,-195.4 0,0 91.8,-36.7 124.7,-7 0,0 -18.5,-30.3 -46.3,-32.7 0,0 118.2,-79.9 213.3,102.6 0,0 -12.3,-93 -50.5,-111.6 0,0 142.5,32.6 167.6,241.5 0,0 26.3,-41.6 23.4,-76.4 0,0 67.9,99.8 -7.3,214.7 0,0 58.9,-56.3 63.7,-86.5 0,0 73.9,212.1 -151.5,244.1 0,0 61.2,22.9 101.8,3.3 0,0 -39.1,85.3 -165.9,74.3 0,0 61.7,42.1 99.3,33.5 0,0 -93.2,47.7 -251.3,13.2 0,0 53.6,49.5 93.2,50.5 l -10.5,2.6 a 635.5,635.5 0 0 1 -345.6,-16.1 l -151,-50.4 -90.9,-37.1 v -161 z" />
    </clipPath>
    <linearGradient
       gradientUnits="userSpaceOnUse"
       y2="1448.67"
       y1="1680.75"
       x2="2504.5601"
       x1="2504.5601"
       id="tailShadowGradient">
      <stop
         id="stop3994"
         stop-opacity="0"
         stop-color="#fff"
         offset="0" />
      <stop
         id="stop3996"
         stop-color="#fff"
         offset=".72" />
    </linearGradient>
    <linearGradient
       gradientUnits="userSpaceOnUse"
       y2="2120.22"
       y1="2120.22"
       x2="2549.1001"
       x1="1665.26"
       id="tailShadowGradient2">
      <stop
         id="stop3999"
         stop-color="gray"
         offset="0" />
      <stop
         id="stop4001"
         stop-color="#7d7d7d"
         offset=".27" />
      <stop
         id="stop4003"
         stop-color="#747474"
         offset=".46" />
      <stop
         id="stop4005"
         stop-color="#646464"
         offset=".64" />
      <stop
         id="stop4007"
         stop-color="#4d4d4d"
         offset=".8" />
      <stop
         id="stop4009"
         stop-color="#303030"
         offset=".95" />
      <stop
         id="stop4011"
         stop-color="#242424"
         offset="1" />
    </linearGradient>
    <linearGradient
       xlink:href="#tailShadowGradient"
       href="#tailShadowGradient"
       y2="1468.7"
       y1="1826.3199"
       x2="2662.04"
       x1="2662.04"
       id="tailShadowGradient3" />
    <linearGradient
       xlink:href="#tailShadowGradient"
       href="#tailShadowGradient"
       y2="1592.0601"
       y1="1935.67"
       x2="2751.27"
       x1="2751.27"
       id="tailShadowGradient4" />
    <linearGradient
       xlink:href="#tailShadowGradient2"
       href="#tailShadowGradient2"
       y2="2094.95"
       y1="2094.95"
       x2="2807.7"
       x1="2518.8601"
       id="tailShadowGradient5" />
    <linearGradient
       xlink:href="#tailShadowGradient2"
       href="#tailShadowGradient2"
       y2="2162.1499"
       y1="2162.1499"
       x2="2697.5901"
       x1="2408.1201"
       id="tailShadowGradient6" />
    <clipPath
       id="shadowClipPath-0">
      <path
         style="fill:none"
         inkscape:connector-curvature="0"
         id="path4055"
         data-name="&lt;Clipping Path&gt;"
         d="m 2200.5,2195.7 c -43,-29.4 -132.4,-61.7 -179.8,-75.5 l -0.8,-0.3 a 248.1,248.1 0 0 0 6.4,-155.8 l -174.8,-568.6 c 14.6,-15.2 23.3,-25.6 23.3,-25.6 42.4,27.2 109.7,-3.5 137.1,-18.2 a 3.1,3.1 0 0 0 -1.5,-5.9 c -53.6,0 -129.9,-41.6 -129.9,-41.6 60.7,16.1 84,-1.1 91.8,-10.5 a 3.1,3.1 0 0 0 -2.3,-5.2 c -19.6,-0.9 -86,-12.3 -134.4,-122.4 -6.6,-15.1 -13.6,-30 -21.2,-44.7 -14.6,-28.2 -38.8,-72.8 -66.6,-117.1 l 1.3,-7.1 50,-205.4 c 6.6,-27.3 -24.5,-47.9 -47,-31.2 l -131.2,97.4 -2.1,2.6 -4.9,-3.1 A 240.6,240.6 0 0 0 1559,836 l -3.3,-0.8 c 10,-28.5 40.9,-44.3 40.9,-44.3 -35.9,-33.7 -100,19.4 -100,19.4 -37,-35.7 17.4,-102.7 17.4,-102.7 -64.8,-29.4 -112.8,85.4 -112.8,85.4 -4.7,-56.4 -86.1,-64.9 -86.1,-64.9 27.1,29.7 13.6,82.9 13.6,82.9 -38.1,-37.3 -110.7,-2.4 -110.7,-2.4 29.7,2.9 48.9,15.7 60.8,28 l -3,0.8 a 240.6,240.6 0 0 0 -79,39 l -131,-81.2 c -23.3,-14.4 -52.1,7.3 -44.7,33.7 l 57.5,202.6 4.2,14.9 c -13.6,32.5 -24.1,61.9 -29.8,78.5 q -5.3,15.7 -12.1,30.8 c -40.9,107.2 -130.3,143.6 -160.1,153.1 a 3.1,3.1 0 0 0 0.1,6 c 20.6,5.7 72.8,17.4 111,-21 0,0 -37.3,51.7 -83.2,70.2 a 3.1,3.1 0 0 0 0.9,6.1 c 16.5,1.6 47.9,0.7 87.8,-18.6 0,0 -21.7,30.1 -40.8,44.4 a 3.2,3.2 0 0 0 2.3,5.7 c 15.5,-1.7 34.4,-5.1 45.5,-11.9 l 0.5,12.2 c 0.5,11.7 8.6,24.2 21.3,36.7 l -107,561 a 248.9,248.9 0 0 0 12.6,117.5 l -0.6,0.3 c -38.1,9.1 -130.4,43.4 -184.5,78.3 -26.5,17.1 -10.1,55.9 23.2,55.3 l 266.9,-5.2 q 6.8,4.1 13.8,7.9 l 0.2,3.4 c 0.4,23.3 -6.7,42.4 -29.9,43.6 -15.6,0.8 -28.2,9.9 -30.6,21.1 -4.7,21.5 5.8,38.9 27.2,40.4 l 84.3,5 c 26.4,1.6 51.9,-11.3 65.3,-34.1 a 71.4,71.4 0 0 0 8.8,-23.9 l 5,-26.6 h 533.6 l 3.5,20.7 a 71.6,71.6 0 0 0 43.1,54.3 53.5,53.5 0 0 0 22.3,4 l 91.8,-3 c 22,-2.2 30.1,-15.7 27.9,-36.9 -0.7,-6.9 -6.2,-24.5 -24.5,-25.5 -15.8,-0.9 -25.2,-8.6 -28.1,-21.9 a 246.8,246.8 0 0 0 65.4,-28.1 l 261.5,5.1 c 33.2,0.3 49.2,-37.8 23.1,-55.6 z" />
    </clipPath>
    <linearGradient
       gradientUnits="userSpaceOnUse"
       y2="997.23999"
       y1="787.59998"
       x2="1721.47"
       x1="1721.47"
       id="shadowLinearGradient-2">
      <stop
         id="stop4058"
         stop-color="gray"
         offset="0" />
      <stop
         id="stop4060"
         stop-color="#797979"
         offset=".14" />
      <stop
         id="stop4062"
         stop-color="#646464"
         offset=".35" />
      <stop
         id="stop4064"
         stop-color="#434343"
         offset=".6" />
      <stop
         id="stop4066"
         stop-color="#141414"
         offset=".89" />
      <stop
         id="stop4068"
         offset="1" />
    </linearGradient>
    <linearGradient
       xlink:href="#shadowLinearGradient-2"
       href="#shadowLinearGradient"
       y2="929.63"
       y1="929.63"
       x2="1148.15"
       x1="1027.09"
       id="shadowLinearGradient2-4" />
    <clipPath
       id="highlightClipPath-3">
      <path
         style="fill:none"
         inkscape:connector-curvature="0"
         id="path4089"
         data-name="&lt;Clipping Path&gt;"
         d="m 2200.5,2195.7 c -43,-29.4 -132.4,-61.7 -179.8,-75.5 l -0.8,-0.3 a 248.1,248.1 0 0 0 6.4,-155.8 l -174.8,-568.6 c 14.6,-15.2 23.3,-25.6 23.3,-25.6 42.4,27.2 109.7,-3.5 137.1,-18.2 a 3.1,3.1 0 0 0 -1.5,-5.9 c -53.6,0 -129.9,-41.6 -129.9,-41.6 60.7,16.1 84,-1.1 91.8,-10.5 a 3.1,3.1 0 0 0 -2.3,-5.2 c -19.6,-0.9 -86,-12.3 -134.4,-122.4 -6.6,-15.1 -13.6,-30 -21.2,-44.7 -14.6,-28.2 -38.8,-72.8 -66.6,-117.1 l 1.3,-7.1 50,-205.4 c 6.6,-27.3 -24.5,-47.9 -47,-31.2 l -131.2,97.4 -2.1,2.6 -4.9,-3.1 A 240.6,240.6 0 0 0 1559,836 l -3.3,-0.8 c 10,-28.5 40.9,-44.3 40.9,-44.3 -35.9,-33.7 -100,19.4 -100,19.4 -37,-35.7 17.4,-102.7 17.4,-102.7 -64.8,-29.4 -112.8,85.4 -112.8,85.4 -4.7,-56.4 -86.1,-64.9 -86.1,-64.9 27.1,29.7 13.6,82.9 13.6,82.9 -38.1,-37.3 -110.7,-2.4 -110.7,-2.4 29.7,2.9 48.9,15.7 60.8,28 l -3,0.8 a 240.6,240.6 0 0 0 -79,39 l -131,-81.2 c -23.3,-14.4 -52.1,7.3 -44.7,33.7 l 57.5,202.6 4.2,14.9 c -13.6,32.5 -24.1,61.9 -29.8,78.5 q -5.3,15.7 -12.1,30.8 c -40.9,107.2 -130.3,143.6 -160.1,153.1 a 3.1,3.1 0 0 0 0.1,6 c 20.6,5.7 72.8,17.4 111,-21 0,0 -37.3,51.7 -83.2,70.2 a 3.1,3.1 0 0 0 0.9,6.1 c 16.5,1.6 47.9,0.7 87.8,-18.6 0,0 -21.7,30.1 -40.8,44.4 a 3.2,3.2 0 0 0 2.3,5.7 c 15.5,-1.7 34.4,-5.1 45.5,-11.9 l 0.5,12.2 c 0.5,11.7 8.6,24.2 21.3,36.7 l -107,561 a 248.9,248.9 0 0 0 12.6,117.5 l -0.6,0.3 c -38.1,9.1 -130.4,43.4 -184.5,78.3 -26.5,17.1 -10.1,55.9 23.2,55.3 l 266.9,-5.2 q 6.8,4.1 13.8,7.9 l 0.2,3.4 c 0.4,23.3 -6.7,42.4 -29.9,43.6 -15.6,0.8 -28.2,9.9 -30.6,21.1 -4.7,21.5 5.8,38.9 27.2,40.4 l 84.3,5 c 26.4,1.6 51.9,-11.3 65.3,-34.1 a 71.4,71.4 0 0 0 8.8,-23.9 l 5,-26.6 h 533.6 l 3.5,20.7 a 71.6,71.6 0 0 0 43.1,54.3 53.5,53.5 0 0 0 22.3,4 l 91.8,-3 c 22,-2.2 30.1,-15.7 27.9,-36.9 -0.7,-6.9 -6.2,-24.5 -24.5,-25.5 -15.8,-0.9 -25.2,-8.6 -28.1,-21.9 a 246.8,246.8 0 0 0 65.4,-28.1 l 261.5,5.1 c 33.2,0.3 49.2,-37.8 23.1,-55.6 z" />
    </clipPath>
    <linearGradient
       gradientUnits="userSpaceOnUse"
       y2="835.25"
       y1="2256.3899"
       x2="1847.36"
       x1="1847.36"
       id="linearGradient4096">
      <stop
         id="stop4092"
         stop-opacity="0"
         stop-color="#fff"
         offset="0" />
      <stop
         id="stop4094"
         stop-color="#fff"
         offset=".72" />
    </linearGradient>
    <marker
       inkscape:isstock="true"
       style="overflow:visible"
       id="Arrow1Lstart-2"
       refX="0.0"
       refY="0.0"
       orient="auto"
       inkscape:stockid="Arrow1Lstart">
      <path
         transform="scale(0.8) translate(12.5,0)"
         style="fill-rule:evenodd;stroke:#000000;stroke-width:1pt;stroke-opacity:1;fill:#000000;fill-opacity:1"
         d="M 0.0,0.0 L 5.0,-5.0 L -12.5,0.0 L 5.0,5.0 L 0.0,0.0 z "
         id="path4997-2" />
    </marker>
    <clipPath
       id="tailShadowClipPath-7">
      <path
         style="fill:none"
         inkscape:connector-curvature="0"
         id="path3991-0"
         d="m 1942.6,1959.2 c 69,30 162.4,39.9 162.4,39.9 0,0 347.1,45 398.6,-246 19.5,-161.9 -177.1,-195.4 -177.1,-195.4 0,0 91.8,-36.7 124.7,-7 0,0 -18.5,-30.3 -46.3,-32.7 0,0 118.2,-79.9 213.3,102.6 0,0 -12.3,-93 -50.5,-111.6 0,0 142.5,32.6 167.6,241.5 0,0 26.3,-41.6 23.4,-76.4 0,0 67.9,99.8 -7.3,214.7 0,0 58.9,-56.3 63.7,-86.5 0,0 73.9,212.1 -151.5,244.1 0,0 61.2,22.9 101.8,3.3 0,0 -39.1,85.3 -165.9,74.3 0,0 61.7,42.1 99.3,33.5 0,0 -93.2,47.7 -251.3,13.2 0,0 53.6,49.5 93.2,50.5 l -10.5,2.6 a 635.5,635.5 0 0 1 -345.6,-16.1 l -151,-50.4 -90.9,-37.1 v -161 z" />
    </clipPath>
    <linearGradient
       xlink:href="#tailShadowGradient"
       href="#tailShadowGradient"
       y2="1468.7"
       y1="1826.3199"
       x2="2662.04"
       x1="2662.04"
       id="tailShadowGradient3-0" />
    <linearGradient
       xlink:href="#tailShadowGradient"
       href="#tailShadowGradient"
       y2="1592.0601"
       y1="1935.67"
       x2="2751.27"
       x1="2751.27"
       id="tailShadowGradient4-3" />
    <linearGradient
       xlink:href="#tailShadowGradient2"
       href="#tailShadowGradient2"
       y2="2094.95"
       y1="2094.95"
       x2="2807.7"
       x1="2518.8601"
       id="tailShadowGradient5-9" />
    <linearGradient
       xlink:href="#tailShadowGradient2"
       href="#tailShadowGradient2"
       y2="2162.1499"
       y1="2162.1499"
       x2="2697.5901"
       x1="2408.1201"
       id="tailShadowGradient6-9" />
    <clipPath
       id="shadowClipPath-3">
      <path
         style="fill:none"
         inkscape:connector-curvature="0"
         id="path4055-2"
         data-name="&lt;Clipping Path&gt;"
         d="m 2200.5,2195.7 c -43,-29.4 -132.4,-61.7 -179.8,-75.5 l -0.8,-0.3 a 248.1,248.1 0 0 0 6.4,-155.8 l -174.8,-568.6 c 14.6,-15.2 23.3,-25.6 23.3,-25.6 42.4,27.2 109.7,-3.5 137.1,-18.2 a 3.1,3.1 0 0 0 -1.5,-5.9 c -53.6,0 -129.9,-41.6 -129.9,-41.6 60.7,16.1 84,-1.1 91.8,-10.5 a 3.1,3.1 0 0 0 -2.3,-5.2 c -19.6,-0.9 -86,-12.3 -134.4,-122.4 -6.6,-15.1 -13.6,-30 -21.2,-44.7 -14.6,-28.2 -38.8,-72.8 -66.6,-117.1 l 1.3,-7.1 50,-205.4 c 6.6,-27.3 -24.5,-47.9 -47,-31.2 l -131.2,97.4 -2.1,2.6 -4.9,-3.1 A 240.6,240.6 0 0 0 1559,836 l -3.3,-0.8 c 10,-28.5 40.9,-44.3 40.9,-44.3 -35.9,-33.7 -100,19.4 -100,19.4 -37,-35.7 17.4,-102.7 17.4,-102.7 -64.8,-29.4 -112.8,85.4 -112.8,85.4 -4.7,-56.4 -86.1,-64.9 -86.1,-64.9 27.1,29.7 13.6,82.9 13.6,82.9 -38.1,-37.3 -110.7,-2.4 -110.7,-2.4 29.7,2.9 48.9,15.7 60.8,28 l -3,0.8 a 240.6,240.6 0 0 0 -79,39 l -131,-81.2 c -23.3,-14.4 -52.1,7.3 -44.7,33.7 l 57.5,202.6 4.2,14.9 c -13.6,32.5 -24.1,61.9 -29.8,78.5 q -5.3,15.7 -12.1,30.8 c -40.9,107.2 -130.3,143.6 -160.1,153.1 a 3.1,3.1 0 0 0 0.1,6 c 20.6,5.7 72.8,17.4 111,-21 0,0 -37.3,51.7 -83.2,70.2 a 3.1,3.1 0 0 0 0.9,6.1 c 16.5,1.6 47.9,0.7 87.8,-18.6 0,0 -21.7,30.1 -40.8,44.4 a 3.2,3.2 0 0 0 2.3,5.7 c 15.5,-1.7 34.4,-5.1 45.5,-11.9 l 0.5,12.2 c 0.5,11.7 8.6,24.2 21.3,36.7 l -107,561 a 248.9,248.9 0 0 0 12.6,117.5 l -0.6,0.3 c -38.1,9.1 -130.4,43.4 -184.5,78.3 -26.5,17.1 -10.1,55.9 23.2,55.3 l 266.9,-5.2 q 6.8,4.1 13.8,7.9 l 0.2,3.4 c 0.4,23.3 -6.7,42.4 -29.9,43.6 -15.6,0.8 -28.2,9.9 -30.6,21.1 -4.7,21.5 5.8,38.9 27.2,40.4 l 84.3,5 c 26.4,1.6 51.9,-11.3 65.3,-34.1 a 71.4,71.4 0 0 0 8.8,-23.9 l 5,-26.6 h 533.6 l 3.5,20.7 a 71.6,71.6 0 0 0 43.1,54.3 53.5,53.5 0 0 0 22.3,4 l 91.8,-3 c 22,-2.2 30.1,-15.7 27.9,-36.9 -0.7,-6.9 -6.2,-24.5 -24.5,-25.5 -15.8,-0.9 -25.2,-8.6 -28.1,-21.9 a 246.8,246.8 0 0 0 65.4,-28.1 l 261.5,5.1 c 33.2,0.3 49.2,-37.8 23.1,-55.6 z" />
    </clipPath>
    <clipPath
       id="highlightClipPath-5">
      <path
         style="fill:none"
         inkscape:connector-curvature="0"
         id="path4089-9"
         data-name="&lt;Clipping Path&gt;"
         d="m 2200.5,2195.7 c -43,-29.4 -132.4,-61.7 -179.8,-75.5 l -0.8,-0.3 a 248.1,248.1 0 0 0 6.4,-155.8 l -174.8,-568.6 c 14.6,-15.2 23.3,-25.6 23.3,-25.6 42.4,27.2 109.7,-3.5 137.1,-18.2 a 3.1,3.1 0 0 0 -1.5,-5.9 c -53.6,0 -129.9,-41.6 -129.9,-41.6 60.7,16.1 84,-1.1 91.8,-10.5 a 3.1,3.1 0 0 0 -2.3,-5.2 c -19.6,-0.9 -86,-12.3 -134.4,-122.4 -6.6,-15.1 -13.6,-30 -21.2,-44.7 -14.6,-28.2 -38.8,-72.8 -66.6,-117.1 l 1.3,-7.1 50,-205.4 c 6.6,-27.3 -24.5,-47.9 -47,-31.2 l -131.2,97.4 -2.1,2.6 -4.9,-3.1 A 240.6,240.6 0 0 0 1559,836 l -3.3,-0.8 c 10,-28.5 40.9,-44.3 40.9,-44.3 -35.9,-33.7 -100,19.4 -100,19.4 -37,-35.7 17.4,-102.7 17.4,-102.7 -64.8,-29.4 -112.8,85.4 -112.8,85.4 -4.7,-56.4 -86.1,-64.9 -86.1,-64.9 27.1,29.7 13.6,82.9 13.6,82.9 -38.1,-37.3 -110.7,-2.4 -110.7,-2.4 29.7,2.9 48.9,15.7 60.8,28 l -3,0.8 a 240.6,240.6 0 0 0 -79,39 l -131,-81.2 c -23.3,-14.4 -52.1,7.3 -44.7,33.7 l 57.5,202.6 4.2,14.9 c -13.6,32.5 -24.1,61.9 -29.8,78.5 q -5.3,15.7 -12.1,30.8 c -40.9,107.2 -130.3,143.6 -160.1,153.1 a 3.1,3.1 0 0 0 0.1,6 c 20.6,5.7 72.8,17.4 111,-21 0,0 -37.3,51.7 -83.2,70.2 a 3.1,3.1 0 0 0 0.9,6.1 c 16.5,1.6 47.9,0.7 87.8,-18.6 0,0 -21.7,30.1 -40.8,44.4 a 3.2,3.2 0 0 0 2.3,5.7 c 15.5,-1.7 34.4,-5.1 45.5,-11.9 l 0.5,12.2 c 0.5,11.7 8.6,24.2 21.3,36.7 l -107,561 a 248.9,248.9 0 0 0 12.6,117.5 l -0.6,0.3 c -38.1,9.1 -130.4,43.4 -184.5,78.3 -26.5,17.1 -10.1,55.9 23.2,55.3 l 266.9,-5.2 q 6.8,4.1 13.8,7.9 l 0.2,3.4 c 0.4,23.3 -6.7,42.4 -29.9,43.6 -15.6,0.8 -28.2,9.9 -30.6,21.1 -4.7,21.5 5.8,38.9 27.2,40.4 l 84.3,5 c 26.4,1.6 51.9,-11.3 65.3,-34.1 a 71.4,71.4 0 0 0 8.8,-23.9 l 5,-26.6 h 533.6 l 3.5,20.7 a 71.6,71.6 0 0 0 43.1,54.3 53.5,53.5 0 0 0 22.3,4 l 91.8,-3 c 22,-2.2 30.1,-15.7 27.9,-36.9 -0.7,-6.9 -6.2,-24.5 -24.5,-25.5 -15.8,-0.9 -25.2,-8.6 -28.1,-21.9 a 246.8,246.8 0 0 0 65.4,-28.1 l 261.5,5.1 c 33.2,0.3 49.2,-37.8 23.1,-55.6 z" />
    </clipPath>
    <marker
       inkscape:isstock="true"
       style="overflow:visible"
       id="Arrow1Lstart-25"
       refX="0.0"
       refY="0.0"
       orient="auto"
       inkscape:stockid="Arrow1Lstart">
      <path
         transform="scale(0.8) translate(12.5,0)"
         style="fill-rule:evenodd;stroke:#000000;stroke-width:1pt;stroke-opacity:1;fill:#000000;fill-opacity:1"
         d="M 0.0,0.0 L 5.0,-5.0 L -12.5,0.0 L 5.0,5.0 L 0.0,0.0 z "
         id="path4997-22" />
    </marker>
    <clipPath
       id="tailShadowClipPath-6">
      <path
         style="fill:none"
         inkscape:connector-curvature="0"
         id="path3991-00"
         d="m 1942.6,1959.2 c 69,30 162.4,39.9 162.4,39.9 0,0 347.1,45 398.6,-246 19.5,-161.9 -177.1,-195.4 -177.1,-195.4 0,0 91.8,-36.7 124.7,-7 0,0 -18.5,-30.3 -46.3,-32.7 0,0 118.2,-79.9 213.3,102.6 0,0 -12.3,-93 -50.5,-111.6 0,0 142.5,32.6 167.6,241.5 0,0 26.3,-41.6 23.4,-76.4 0,0 67.9,99.8 -7.3,214.7 0,0 58.9,-56.3 63.7,-86.5 0,0 73.9,212.1 -151.5,244.1 0,0 61.2,22.9 101.8,3.3 0,0 -39.1,85.3 -165.9,74.3 0,0 61.7,42.1 99.3,33.5 0,0 -93.2,47.7 -251.3,13.2 0,0 53.6,49.5 93.2,50.5 l -10.5,2.6 a 635.5,635.5 0 0 1 -345.6,-16.1 l -151,-50.4 -90.9,-37.1 v -161 z" />
    </clipPath>
    <linearGradient
       xlink:href="#tailShadowGradient"
       href="#tailShadowGradient"
       y2="1468.7"
       y1="1826.3199"
       x2="2662.04"
       x1="2662.04"
       id="tailShadowGradient3-9" />
    <linearGradient
       xlink:href="#tailShadowGradient"
       href="#tailShadowGradient"
       y2="1592.0601"
       y1="1935.67"
       x2="2751.27"
       x1="2751.27"
       id="tailShadowGradient4-0" />
    <linearGradient
       xlink:href="#tailShadowGradient2"
       href="#tailShadowGradient2"
       y2="2094.95"
       y1="2094.95"
       x2="2807.7"
       x1="2518.8601"
       id="tailShadowGradient5-5" />
    <linearGradient
       xlink:href="#tailShadowGradient2"
       href="#tailShadowGradient2"
       y2="2162.1499"
       y1="2162.1499"
       x2="2697.5901"
       x1="2408.1201"
       id="tailShadowGradient6-6" />
    <clipPath
       id="shadowClipPath-7">
      <path
         style="fill:none"
         inkscape:connector-curvature="0"
         id="path4055-29"
         data-name="&lt;Clipping Path&gt;"
         d="m 2200.5,2195.7 c -43,-29.4 -132.4,-61.7 -179.8,-75.5 l -0.8,-0.3 a 248.1,248.1 0 0 0 6.4,-155.8 l -174.8,-568.6 c 14.6,-15.2 23.3,-25.6 23.3,-25.6 42.4,27.2 109.7,-3.5 137.1,-18.2 a 3.1,3.1 0 0 0 -1.5,-5.9 c -53.6,0 -129.9,-41.6 -129.9,-41.6 60.7,16.1 84,-1.1 91.8,-10.5 a 3.1,3.1 0 0 0 -2.3,-5.2 c -19.6,-0.9 -86,-12.3 -134.4,-122.4 -6.6,-15.1 -13.6,-30 -21.2,-44.7 -14.6,-28.2 -38.8,-72.8 -66.6,-117.1 l 1.3,-7.1 50,-205.4 c 6.6,-27.3 -24.5,-47.9 -47,-31.2 l -131.2,97.4 -2.1,2.6 -4.9,-3.1 A 240.6,240.6 0 0 0 1559,836 l -3.3,-0.8 c 10,-28.5 40.9,-44.3 40.9,-44.3 -35.9,-33.7 -100,19.4 -100,19.4 -37,-35.7 17.4,-102.7 17.4,-102.7 -64.8,-29.4 -112.8,85.4 -112.8,85.4 -4.7,-56.4 -86.1,-64.9 -86.1,-64.9 27.1,29.7 13.6,82.9 13.6,82.9 -38.1,-37.3 -110.7,-2.4 -110.7,-2.4 29.7,2.9 48.9,15.7 60.8,28 l -3,0.8 a 240.6,240.6 0 0 0 -79,39 l -131,-81.2 c -23.3,-14.4 -52.1,7.3 -44.7,33.7 l 57.5,202.6 4.2,14.9 c -13.6,32.5 -24.1,61.9 -29.8,78.5 q -5.3,15.7 -12.1,30.8 c -40.9,107.2 -130.3,143.6 -160.1,153.1 a 3.1,3.1 0 0 0 0.1,6 c 20.6,5.7 72.8,17.4 111,-21 0,0 -37.3,51.7 -83.2,70.2 a 3.1,3.1 0 0 0 0.9,6.1 c 16.5,1.6 47.9,0.7 87.8,-18.6 0,0 -21.7,30.1 -40.8,44.4 a 3.2,3.2 0 0 0 2.3,5.7 c 15.5,-1.7 34.4,-5.1 45.5,-11.9 l 0.5,12.2 c 0.5,11.7 8.6,24.2 21.3,36.7 l -107,561 a 248.9,248.9 0 0 0 12.6,117.5 l -0.6,0.3 c -38.1,9.1 -130.4,43.4 -184.5,78.3 -26.5,17.1 -10.1,55.9 23.2,55.3 l 266.9,-5.2 q 6.8,4.1 13.8,7.9 l 0.2,3.4 c 0.4,23.3 -6.7,42.4 -29.9,43.6 -15.6,0.8 -28.2,9.9 -30.6,21.1 -4.7,21.5 5.8,38.9 27.2,40.4 l 84.3,5 c 26.4,1.6 51.9,-11.3 65.3,-34.1 a 71.4,71.4 0 0 0 8.8,-23.9 l 5,-26.6 h 533.6 l 3.5,20.7 a 71.6,71.6 0 0 0 43.1,54.3 53.5,53.5 0 0 0 22.3,4 l 91.8,-3 c 22,-2.2 30.1,-15.7 27.9,-36.9 -0.7,-6.9 -6.2,-24.5 -24.5,-25.5 -15.8,-0.9 -25.2,-8.6 -28.1,-21.9 a 246.8,246.8 0 0 0 65.4,-28.1 l 261.5,5.1 c 33.2,0.3 49.2,-37.8 23.1,-55.6 z" />
    </clipPath>
    <clipPath
       id="highlightClipPath-51">
      <path
         style="fill:none"
         inkscape:connector-curvature="0"
         id="path4089-3"
         data-name="&lt;Clipping Path&gt;"
         d="m 2200.5,2195.7 c -43,-29.4 -132.4,-61.7 -179.8,-75.5 l -0.8,-0.3 a 248.1,248.1 0 0 0 6.4,-155.8 l -174.8,-568.6 c 14.6,-15.2 23.3,-25.6 23.3,-25.6 42.4,27.2 109.7,-3.5 137.1,-18.2 a 3.1,3.1 0 0 0 -1.5,-5.9 c -53.6,0 -129.9,-41.6 -129.9,-41.6 60.7,16.1 84,-1.1 91.8,-10.5 a 3.1,3.1 0 0 0 -2.3,-5.2 c -19.6,-0.9 -86,-12.3 -134.4,-122.4 -6.6,-15.1 -13.6,-30 -21.2,-44.7 -14.6,-28.2 -38.8,-72.8 -66.6,-117.1 l 1.3,-7.1 50,-205.4 c 6.6,-27.3 -24.5,-47.9 -47,-31.2 l -131.2,97.4 -2.1,2.6 -4.9,-3.1 A 240.6,240.6 0 0 0 1559,836 l -3.3,-0.8 c 10,-28.5 40.9,-44.3 40.9,-44.3 -35.9,-33.7 -100,19.4 -100,19.4 -37,-35.7 17.4,-102.7 17.4,-102.7 -64.8,-29.4 -112.8,85.4 -112.8,85.4 -4.7,-56.4 -86.1,-64.9 -86.1,-64.9 27.1,29.7 13.6,82.9 13.6,82.9 -38.1,-37.3 -110.7,-2.4 -110.7,-2.4 29.7,2.9 48.9,15.7 60.8,28 l -3,0.8 a 240.6,240.6 0 0 0 -79,39 l -131,-81.2 c -23.3,-14.4 -52.1,7.3 -44.7,33.7 l 57.5,202.6 4.2,14.9 c -13.6,32.5 -24.1,61.9 -29.8,78.5 q -5.3,15.7 -12.1,30.8 c -40.9,107.2 -130.3,143.6 -160.1,153.1 a 3.1,3.1 0 0 0 0.1,6 c 20.6,5.7 72.8,17.4 111,-21 0,0 -37.3,51.7 -83.2,70.2 a 3.1,3.1 0 0 0 0.9,6.1 c 16.5,1.6 47.9,0.7 87.8,-18.6 0,0 -21.7,30.1 -40.8,44.4 a 3.2,3.2 0 0 0 2.3,5.7 c 15.5,-1.7 34.4,-5.1 45.5,-11.9 l 0.5,12.2 c 0.5,11.7 8.6,24.2 21.3,36.7 l -107,561 a 248.9,248.9 0 0 0 12.6,117.5 l -0.6,0.3 c -38.1,9.1 -130.4,43.4 -184.5,78.3 -26.5,17.1 -10.1,55.9 23.2,55.3 l 266.9,-5.2 q 6.8,4.1 13.8,7.9 l 0.2,3.4 c 0.4,23.3 -6.7,42.4 -29.9,43.6 -15.6,0.8 -28.2,9.9 -30.6,21.1 -4.7,21.5 5.8,38.9 27.2,40.4 l 84.3,5 c 26.4,1.6 51.9,-11.3 65.3,-34.1 a 71.4,71.4 0 0 0 8.8,-23.9 l 5,-26.6 h 533.6 l 3.5,20.7 a 71.6,71.6 0 0 0 43.1,54.3 53.5,53.5 0 0 0 22.3,4 l 91.8,-3 c 22,-2.2 30.1,-15.7 27.9,-36.9 -0.7,-6.9 -6.2,-24.5 -24.5,-25.5 -15.8,-0.9 -25.2,-8.6 -28.1,-21.9 a 246.8,246.8 0 0 0 65.4,-28.1 l 261.5,5.1 c 33.2,0.3 49.2,-37.8 23.1,-55.6 z" />
    </clipPath>
    <marker
       inkscape:isstock="true"
       style="overflow:visible"
       id="Arrow1Lstart-7"
       refX="0.0"
       refY="0.0"
       orient="auto"
       inkscape:stockid="Arrow1Lstart">
      <path
         transform="scale(0.8) translate(12.5,0)"
         style="fill-rule:evenodd;stroke:#000000;stroke-width:1pt;stroke-opacity:1;fill:#000000;fill-opacity:1"
         d="M 0.0,0.0 L 5.0,-5.0 L -12.5,0.0 L 5.0,5.0 L 0.0,0.0 z "
         id="path4997-5" />
    </marker>
    <clipPath
       id="tailShadowClipPath-62">
      <path
         style="fill:none"
         inkscape:connector-curvature="0"
         id="path3991-4"
         d="m 1942.6,1959.2 c 69,30 162.4,39.9 162.4,39.9 0,0 347.1,45 398.6,-246 19.5,-161.9 -177.1,-195.4 -177.1,-195.4 0,0 91.8,-36.7 124.7,-7 0,0 -18.5,-30.3 -46.3,-32.7 0,0 118.2,-79.9 213.3,102.6 0,0 -12.3,-93 -50.5,-111.6 0,0 142.5,32.6 167.6,241.5 0,0 26.3,-41.6 23.4,-76.4 0,0 67.9,99.8 -7.3,214.7 0,0 58.9,-56.3 63.7,-86.5 0,0 73.9,212.1 -151.5,244.1 0,0 61.2,22.9 101.8,3.3 0,0 -39.1,85.3 -165.9,74.3 0,0 61.7,42.1 99.3,33.5 0,0 -93.2,47.7 -251.3,13.2 0,0 53.6,49.5 93.2,50.5 l -10.5,2.6 a 635.5,635.5 0 0 1 -345.6,-16.1 l -151,-50.4 -90.9,-37.1 v -161 z" />
    </clipPath>
    <clipPath
       id="shadowClipPath-37">
      <path
         style="fill:none"
         inkscape:connector-curvature="0"
         id="path4055-1"
         data-name="&lt;Clipping Path&gt;"
         d="m 2200.5,2195.7 c -43,-29.4 -132.4,-61.7 -179.8,-75.5 l -0.8,-0.3 a 248.1,248.1 0 0 0 6.4,-155.8 l -174.8,-568.6 c 14.6,-15.2 23.3,-25.6 23.3,-25.6 42.4,27.2 109.7,-3.5 137.1,-18.2 a 3.1,3.1 0 0 0 -1.5,-5.9 c -53.6,0 -129.9,-41.6 -129.9,-41.6 60.7,16.1 84,-1.1 91.8,-10.5 a 3.1,3.1 0 0 0 -2.3,-5.2 c -19.6,-0.9 -86,-12.3 -134.4,-122.4 -6.6,-15.1 -13.6,-30 -21.2,-44.7 -14.6,-28.2 -38.8,-72.8 -66.6,-117.1 l 1.3,-7.1 50,-205.4 c 6.6,-27.3 -24.5,-47.9 -47,-31.2 l -131.2,97.4 -2.1,2.6 -4.9,-3.1 A 240.6,240.6 0 0 0 1559,836 l -3.3,-0.8 c 10,-28.5 40.9,-44.3 40.9,-44.3 -35.9,-33.7 -100,19.4 -100,19.4 -37,-35.7 17.4,-102.7 17.4,-102.7 -64.8,-29.4 -112.8,85.4 -112.8,85.4 -4.7,-56.4 -86.1,-64.9 -86.1,-64.9 27.1,29.7 13.6,82.9 13.6,82.9 -38.1,-37.3 -110.7,-2.4 -110.7,-2.4 29.7,2.9 48.9,15.7 60.8,28 l -3,0.8 a 240.6,240.6 0 0 0 -79,39 l -131,-81.2 c -23.3,-14.4 -52.1,7.3 -44.7,33.7 l 57.5,202.6 4.2,14.9 c -13.6,32.5 -24.1,61.9 -29.8,78.5 q -5.3,15.7 -12.1,30.8 c -40.9,107.2 -130.3,143.6 -160.1,153.1 a 3.1,3.1 0 0 0 0.1,6 c 20.6,5.7 72.8,17.4 111,-21 0,0 -37.3,51.7 -83.2,70.2 a 3.1,3.1 0 0 0 0.9,6.1 c 16.5,1.6 47.9,0.7 87.8,-18.6 0,0 -21.7,30.1 -40.8,44.4 a 3.2,3.2 0 0 0 2.3,5.7 c 15.5,-1.7 34.4,-5.1 45.5,-11.9 l 0.5,12.2 c 0.5,11.7 8.6,24.2 21.3,36.7 l -107,561 a 248.9,248.9 0 0 0 12.6,117.5 l -0.6,0.3 c -38.1,9.1 -130.4,43.4 -184.5,78.3 -26.5,17.1 -10.1,55.9 23.2,55.3 l 266.9,-5.2 q 6.8,4.1 13.8,7.9 l 0.2,3.4 c 0.4,23.3 -6.7,42.4 -29.9,43.6 -15.6,0.8 -28.2,9.9 -30.6,21.1 -4.7,21.5 5.8,38.9 27.2,40.4 l 84.3,5 c 26.4,1.6 51.9,-11.3 65.3,-34.1 a 71.4,71.4 0 0 0 8.8,-23.9 l 5,-26.6 h 533.6 l 3.5,20.7 a 71.6,71.6 0 0 0 43.1,54.3 53.5,53.5 0 0 0 22.3,4 l 91.8,-3 c 22,-2.2 30.1,-15.7 27.9,-36.9 -0.7,-6.9 -6.2,-24.5 -24.5,-25.5 -15.8,-0.9 -25.2,-8.6 -28.1,-21.9 a 246.8,246.8 0 0 0 65.4,-28.1 l 261.5,5.1 c 33.2,0.3 49.2,-37.8 23.1,-55.6 z" />
    </clipPath>
    <clipPath
       id="highlightClipPath-7">
      <path
         style="fill:none"
         inkscape:connector-curvature="0"
         id="path4089-34"
         data-name="&lt;Clipping Path&gt;"
         d="m 2200.5,2195.7 c -43,-29.4 -132.4,-61.7 -179.8,-75.5 l -0.8,-0.3 a 248.1,248.1 0 0 0 6.4,-155.8 l -174.8,-568.6 c 14.6,-15.2 23.3,-25.6 23.3,-25.6 42.4,27.2 109.7,-3.5 137.1,-18.2 a 3.1,3.1 0 0 0 -1.5,-5.9 c -53.6,0 -129.9,-41.6 -129.9,-41.6 60.7,16.1 84,-1.1 91.8,-10.5 a 3.1,3.1 0 0 0 -2.3,-5.2 c -19.6,-0.9 -86,-12.3 -134.4,-122.4 -6.6,-15.1 -13.6,-30 -21.2,-44.7 -14.6,-28.2 -38.8,-72.8 -66.6,-117.1 l 1.3,-7.1 50,-205.4 c 6.6,-27.3 -24.5,-47.9 -47,-31.2 l -131.2,97.4 -2.1,2.6 -4.9,-3.1 A 240.6,240.6 0 0 0 1559,836 l -3.3,-0.8 c 10,-28.5 40.9,-44.3 40.9,-44.3 -35.9,-33.7 -100,19.4 -100,19.4 -37,-35.7 17.4,-102.7 17.4,-102.7 -64.8,-29.4 -112.8,85.4 -112.8,85.4 -4.7,-56.4 -86.1,-64.9 -86.1,-64.9 27.1,29.7 13.6,82.9 13.6,82.9 -38.1,-37.3 -110.7,-2.4 -110.7,-2.4 29.7,2.9 48.9,15.7 60.8,28 l -3,0.8 a 240.6,240.6 0 0 0 -79,39 l -131,-81.2 c -23.3,-14.4 -52.1,7.3 -44.7,33.7 l 57.5,202.6 4.2,14.9 c -13.6,32.5 -24.1,61.9 -29.8,78.5 q -5.3,15.7 -12.1,30.8 c -40.9,107.2 -130.3,143.6 -160.1,153.1 a 3.1,3.1 0 0 0 0.1,6 c 20.6,5.7 72.8,17.4 111,-21 0,0 -37.3,51.7 -83.2,70.2 a 3.1,3.1 0 0 0 0.9,6.1 c 16.5,1.6 47.9,0.7 87.8,-18.6 0,0 -21.7,30.1 -40.8,44.4 a 3.2,3.2 0 0 0 2.3,5.7 c 15.5,-1.7 34.4,-5.1 45.5,-11.9 l 0.5,12.2 c 0.5,11.7 8.6,24.2 21.3,36.7 l -107,561 a 248.9,248.9 0 0 0 12.6,117.5 l -0.6,0.3 c -38.1,9.1 -130.4,43.4 -184.5,78.3 -26.5,17.1 -10.1,55.9 23.2,55.3 l 266.9,-5.2 q 6.8,4.1 13.8,7.9 l 0.2,3.4 c 0.4,23.3 -6.7,42.4 -29.9,43.6 -15.6,0.8 -28.2,9.9 -30.6,21.1 -4.7,21.5 5.8,38.9 27.2,40.4 l 84.3,5 c 26.4,1.6 51.9,-11.3 65.3,-34.1 a 71.4,71.4 0 0 0 8.8,-23.9 l 5,-26.6 h 533.6 l 3.5,20.7 a 71.6,71.6 0 0 0 43.1,54.3 53.5,53.5 0 0 0 22.3,4 l 91.8,-3 c 22,-2.2 30.1,-15.7 27.9,-36.9 -0.7,-6.9 -6.2,-24.5 -24.5,-25.5 -15.8,-0.9 -25.2,-8.6 -28.1,-21.9 a 246.8,246.8 0 0 0 65.4,-28.1 l 261.5,5.1 c 33.2,0.3 49.2,-37.8 23.1,-55.6 z" />
    </clipPath>
    <marker
       inkscape:isstock="true"
       style="overflow:visible"
       id="Arrow1Lstart-23"
       refX="0"
       refY="0"
       orient="auto"
       inkscape:stockid="Arrow1Lstart">
      <path
         inkscape:connector-curvature="0"
         transform="matrix(0.8,0,0,0.8,10,0)"
         style="fill:#000000;fill-opacity:1;fill-rule:evenodd;stroke:#000000;stroke-width:1.00000003pt;stroke-opacity:1"
         d="M 0,0 5,-5 -12.5,0 5,5 Z"
         id="path4997-6" />
    </marker>
    <clipPath
       id="tailShadowClipPath-61">
      <path
         style="fill:none"
         inkscape:connector-curvature="0"
         id="path3991-9"
         d="m 1942.6,1959.2 c 69,30 162.4,39.9 162.4,39.9 0,0 347.1,45 398.6,-246 19.5,-161.9 -177.1,-195.4 -177.1,-195.4 0,0 91.8,-36.7 124.7,-7 0,0 -18.5,-30.3 -46.3,-32.7 0,0 118.2,-79.9 213.3,102.6 0,0 -12.3,-93 -50.5,-111.6 0,0 142.5,32.6 167.6,241.5 0,0 26.3,-41.6 23.4,-76.4 0,0 67.9,99.8 -7.3,214.7 0,0 58.9,-56.3 63.7,-86.5 0,0 73.9,212.1 -151.5,244.1 0,0 61.2,22.9 101.8,3.3 0,0 -39.1,85.3 -165.9,74.3 0,0 61.7,42.1 99.3,33.5 0,0 -93.2,47.7 -251.3,13.2 0,0 53.6,49.5 93.2,50.5 l -10.5,2.6 a 635.5,635.5 0 0 1 -345.6,-16.1 l -151,-50.4 -90.9,-37.1 v -161 z" />
    </clipPath>
    <clipPath
       id="shadowClipPath-0-2">
      <path
         style="fill:none"
         inkscape:connector-curvature="0"
         id="path4055-7"
         data-name="&lt;Clipping Path&gt;"
         d="m 2200.5,2195.7 c -43,-29.4 -132.4,-61.7 -179.8,-75.5 l -0.8,-0.3 a 248.1,248.1 0 0 0 6.4,-155.8 l -174.8,-568.6 c 14.6,-15.2 23.3,-25.6 23.3,-25.6 42.4,27.2 109.7,-3.5 137.1,-18.2 a 3.1,3.1 0 0 0 -1.5,-5.9 c -53.6,0 -129.9,-41.6 -129.9,-41.6 60.7,16.1 84,-1.1 91.8,-10.5 a 3.1,3.1 0 0 0 -2.3,-5.2 c -19.6,-0.9 -86,-12.3 -134.4,-122.4 -6.6,-15.1 -13.6,-30 -21.2,-44.7 -14.6,-28.2 -38.8,-72.8 -66.6,-117.1 l 1.3,-7.1 50,-205.4 c 6.6,-27.3 -24.5,-47.9 -47,-31.2 l -131.2,97.4 -2.1,2.6 -4.9,-3.1 A 240.6,240.6 0 0 0 1559,836 l -3.3,-0.8 c 10,-28.5 40.9,-44.3 40.9,-44.3 -35.9,-33.7 -100,19.4 -100,19.4 -37,-35.7 17.4,-102.7 17.4,-102.7 -64.8,-29.4 -112.8,85.4 -112.8,85.4 -4.7,-56.4 -86.1,-64.9 -86.1,-64.9 27.1,29.7 13.6,82.9 13.6,82.9 -38.1,-37.3 -110.7,-2.4 -110.7,-2.4 29.7,2.9 48.9,15.7 60.8,28 l -3,0.8 a 240.6,240.6 0 0 0 -79,39 l -131,-81.2 c -23.3,-14.4 -52.1,7.3 -44.7,33.7 l 57.5,202.6 4.2,14.9 c -13.6,32.5 -24.1,61.9 -29.8,78.5 q -5.3,15.7 -12.1,30.8 c -40.9,107.2 -130.3,143.6 -160.1,153.1 a 3.1,3.1 0 0 0 0.1,6 c 20.6,5.7 72.8,17.4 111,-21 0,0 -37.3,51.7 -83.2,70.2 a 3.1,3.1 0 0 0 0.9,6.1 c 16.5,1.6 47.9,0.7 87.8,-18.6 0,0 -21.7,30.1 -40.8,44.4 a 3.2,3.2 0 0 0 2.3,5.7 c 15.5,-1.7 34.4,-5.1 45.5,-11.9 l 0.5,12.2 c 0.5,11.7 8.6,24.2 21.3,36.7 l -107,561 a 248.9,248.9 0 0 0 12.6,117.5 l -0.6,0.3 c -38.1,9.1 -130.4,43.4 -184.5,78.3 -26.5,17.1 -10.1,55.9 23.2,55.3 l 266.9,-5.2 q 6.8,4.1 13.8,7.9 l 0.2,3.4 c 0.4,23.3 -6.7,42.4 -29.9,43.6 -15.6,0.8 -28.2,9.9 -30.6,21.1 -4.7,21.5 5.8,38.9 27.2,40.4 l 84.3,5 c 26.4,1.6 51.9,-11.3 65.3,-34.1 a 71.4,71.4 0 0 0 8.8,-23.9 l 5,-26.6 h 533.6 l 3.5,20.7 a 71.6,71.6 0 0 0 43.1,54.3 53.5,53.5 0 0 0 22.3,4 l 91.8,-3 c 22,-2.2 30.1,-15.7 27.9,-36.9 -0.7,-6.9 -6.2,-24.5 -24.5,-25.5 -15.8,-0.9 -25.2,-8.6 -28.1,-21.9 a 246.8,246.8 0 0 0 65.4,-28.1 l 261.5,5.1 c 33.2,0.3 49.2,-37.8 23.1,-55.6 z" />
    </clipPath>
    <clipPath
       id="highlightClipPath-3-4">
      <path
         style="fill:none"
         inkscape:connector-curvature="0"
         id="path4089-8"
         data-name="&lt;Clipping Path&gt;"
         d="m 2200.5,2195.7 c -43,-29.4 -132.4,-61.7 -179.8,-75.5 l -0.8,-0.3 a 248.1,248.1 0 0 0 6.4,-155.8 l -174.8,-568.6 c 14.6,-15.2 23.3,-25.6 23.3,-25.6 42.4,27.2 109.7,-3.5 137.1,-18.2 a 3.1,3.1 0 0 0 -1.5,-5.9 c -53.6,0 -129.9,-41.6 -129.9,-41.6 60.7,16.1 84,-1.1 91.8,-10.5 a 3.1,3.1 0 0 0 -2.3,-5.2 c -19.6,-0.9 -86,-12.3 -134.4,-122.4 -6.6,-15.1 -13.6,-30 -21.2,-44.7 -14.6,-28.2 -38.8,-72.8 -66.6,-117.1 l 1.3,-7.1 50,-205.4 c 6.6,-27.3 -24.5,-47.9 -47,-31.2 l -131.2,97.4 -2.1,2.6 -4.9,-3.1 A 240.6,240.6 0 0 0 1559,836 l -3.3,-0.8 c 10,-28.5 40.9,-44.3 40.9,-44.3 -35.9,-33.7 -100,19.4 -100,19.4 -37,-35.7 17.4,-102.7 17.4,-102.7 -64.8,-29.4 -112.8,85.4 -112.8,85.4 -4.7,-56.4 -86.1,-64.9 -86.1,-64.9 27.1,29.7 13.6,82.9 13.6,82.9 -38.1,-37.3 -110.7,-2.4 -110.7,-2.4 29.7,2.9 48.9,15.7 60.8,28 l -3,0.8 a 240.6,240.6 0 0 0 -79,39 l -131,-81.2 c -23.3,-14.4 -52.1,7.3 -44.7,33.7 l 57.5,202.6 4.2,14.9 c -13.6,32.5 -24.1,61.9 -29.8,78.5 q -5.3,15.7 -12.1,30.8 c -40.9,107.2 -130.3,143.6 -160.1,153.1 a 3.1,3.1 0 0 0 0.1,6 c 20.6,5.7 72.8,17.4 111,-21 0,0 -37.3,51.7 -83.2,70.2 a 3.1,3.1 0 0 0 0.9,6.1 c 16.5,1.6 47.9,0.7 87.8,-18.6 0,0 -21.7,30.1 -40.8,44.4 a 3.2,3.2 0 0 0 2.3,5.7 c 15.5,-1.7 34.4,-5.1 45.5,-11.9 l 0.5,12.2 c 0.5,11.7 8.6,24.2 21.3,36.7 l -107,561 a 248.9,248.9 0 0 0 12.6,117.5 l -0.6,0.3 c -38.1,9.1 -130.4,43.4 -184.5,78.3 -26.5,17.1 -10.1,55.9 23.2,55.3 l 266.9,-5.2 q 6.8,4.1 13.8,7.9 l 0.2,3.4 c 0.4,23.3 -6.7,42.4 -29.9,43.6 -15.6,0.8 -28.2,9.9 -30.6,21.1 -4.7,21.5 5.8,38.9 27.2,40.4 l 84.3,5 c 26.4,1.6 51.9,-11.3 65.3,-34.1 a 71.4,71.4 0 0 0 8.8,-23.9 l 5,-26.6 h 533.6 l 3.5,20.7 a 71.6,71.6 0 0 0 43.1,54.3 53.5,53.5 0 0 0 22.3,4 l 91.8,-3 c 22,-2.2 30.1,-15.7 27.9,-36.9 -0.7,-6.9 -6.2,-24.5 -24.5,-25.5 -15.8,-0.9 -25.2,-8.6 -28.1,-21.9 a 246.8,246.8 0 0 0 65.4,-28.1 l 261.5,5.1 c 33.2,0.3 49.2,-37.8 23.1,-55.6 z" />
    </clipPath>
    <marker
       inkscape:isstock="true"
       style="overflow:visible"
       id="Arrow1Lstart-2-9"
       refX="0"
       refY="0"
       orient="auto"
       inkscape:stockid="Arrow1Lstart">
      <path
         inkscape:connector-curvature="0"
         transform="matrix(0.8,0,0,0.8,10,0)"
         style="fill:#000000;fill-opacity:1;fill-rule:evenodd;stroke:#000000;stroke-width:1.00000003pt;stroke-opacity:1"
         d="M 0,0 5,-5 -12.5,0 5,5 Z"
         id="path4997-2-3" />
    </marker>
    <clipPath
       id="tailShadowClipPath-7-3">
      <path
         style="fill:none"
         inkscape:connector-curvature="0"
         id="path3991-0-4"
         d="m 1942.6,1959.2 c 69,30 162.4,39.9 162.4,39.9 0,0 347.1,45 398.6,-246 19.5,-161.9 -177.1,-195.4 -177.1,-195.4 0,0 91.8,-36.7 124.7,-7 0,0 -18.5,-30.3 -46.3,-32.7 0,0 118.2,-79.9 213.3,102.6 0,0 -12.3,-93 -50.5,-111.6 0,0 142.5,32.6 167.6,241.5 0,0 26.3,-41.6 23.4,-76.4 0,0 67.9,99.8 -7.3,214.7 0,0 58.9,-56.3 63.7,-86.5 0,0 73.9,212.1 -151.5,244.1 0,0 61.2,22.9 101.8,3.3 0,0 -39.1,85.3 -165.9,74.3 0,0 61.7,42.1 99.3,33.5 0,0 -93.2,47.7 -251.3,13.2 0,0 53.6,49.5 93.2,50.5 l -10.5,2.6 a 635.5,635.5 0 0 1 -345.6,-16.1 l -151,-50.4 -90.9,-37.1 v -161 z" />
    </clipPath>
    <clipPath
       id="shadowClipPath-3-1">
      <path
         style="fill:none"
         inkscape:connector-curvature="0"
         id="path4055-2-8"
         data-name="&lt;Clipping Path&gt;"
         d="m 2200.5,2195.7 c -43,-29.4 -132.4,-61.7 -179.8,-75.5 l -0.8,-0.3 a 248.1,248.1 0 0 0 6.4,-155.8 l -174.8,-568.6 c 14.6,-15.2 23.3,-25.6 23.3,-25.6 42.4,27.2 109.7,-3.5 137.1,-18.2 a 3.1,3.1 0 0 0 -1.5,-5.9 c -53.6,0 -129.9,-41.6 -129.9,-41.6 60.7,16.1 84,-1.1 91.8,-10.5 a 3.1,3.1 0 0 0 -2.3,-5.2 c -19.6,-0.9 -86,-12.3 -134.4,-122.4 -6.6,-15.1 -13.6,-30 -21.2,-44.7 -14.6,-28.2 -38.8,-72.8 -66.6,-117.1 l 1.3,-7.1 50,-205.4 c 6.6,-27.3 -24.5,-47.9 -47,-31.2 l -131.2,97.4 -2.1,2.6 -4.9,-3.1 A 240.6,240.6 0 0 0 1559,836 l -3.3,-0.8 c 10,-28.5 40.9,-44.3 40.9,-44.3 -35.9,-33.7 -100,19.4 -100,19.4 -37,-35.7 17.4,-102.7 17.4,-102.7 -64.8,-29.4 -112.8,85.4 -112.8,85.4 -4.7,-56.4 -86.1,-64.9 -86.1,-64.9 27.1,29.7 13.6,82.9 13.6,82.9 -38.1,-37.3 -110.7,-2.4 -110.7,-2.4 29.7,2.9 48.9,15.7 60.8,28 l -3,0.8 a 240.6,240.6 0 0 0 -79,39 l -131,-81.2 c -23.3,-14.4 -52.1,7.3 -44.7,33.7 l 57.5,202.6 4.2,14.9 c -13.6,32.5 -24.1,61.9 -29.8,78.5 q -5.3,15.7 -12.1,30.8 c -40.9,107.2 -130.3,143.6 -160.1,153.1 a 3.1,3.1 0 0 0 0.1,6 c 20.6,5.7 72.8,17.4 111,-21 0,0 -37.3,51.7 -83.2,70.2 a 3.1,3.1 0 0 0 0.9,6.1 c 16.5,1.6 47.9,0.7 87.8,-18.6 0,0 -21.7,30.1 -40.8,44.4 a 3.2,3.2 0 0 0 2.3,5.7 c 15.5,-1.7 34.4,-5.1 45.5,-11.9 l 0.5,12.2 c 0.5,11.7 8.6,24.2 21.3,36.7 l -107,561 a 248.9,248.9 0 0 0 12.6,117.5 l -0.6,0.3 c -38.1,9.1 -130.4,43.4 -184.5,78.3 -26.5,17.1 -10.1,55.9 23.2,55.3 l 266.9,-5.2 q 6.8,4.1 13.8,7.9 l 0.2,3.4 c 0.4,23.3 -6.7,42.4 -29.9,43.6 -15.6,0.8 -28.2,9.9 -30.6,21.1 -4.7,21.5 5.8,38.9 27.2,40.4 l 84.3,5 c 26.4,1.6 51.9,-11.3 65.3,-34.1 a 71.4,71.4 0 0 0 8.8,-23.9 l 5,-26.6 h 533.6 l 3.5,20.7 a 71.6,71.6 0 0 0 43.1,54.3 53.5,53.5 0 0 0 22.3,4 l 91.8,-3 c 22,-2.2 30.1,-15.7 27.9,-36.9 -0.7,-6.9 -6.2,-24.5 -24.5,-25.5 -15.8,-0.9 -25.2,-8.6 -28.1,-21.9 a 246.8,246.8 0 0 0 65.4,-28.1 l 261.5,5.1 c 33.2,0.3 49.2,-37.8 23.1,-55.6 z" />
    </clipPath>
    <clipPath
       id="highlightClipPath-5-9">
      <path
         style="fill:none"
         inkscape:connector-curvature="0"
         id="path4089-9-3"
         data-name="&lt;Clipping Path&gt;"
         d="m 2200.5,2195.7 c -43,-29.4 -132.4,-61.7 -179.8,-75.5 l -0.8,-0.3 a 248.1,248.1 0 0 0 6.4,-155.8 l -174.8,-568.6 c 14.6,-15.2 23.3,-25.6 23.3,-25.6 42.4,27.2 109.7,-3.5 137.1,-18.2 a 3.1,3.1 0 0 0 -1.5,-5.9 c -53.6,0 -129.9,-41.6 -129.9,-41.6 60.7,16.1 84,-1.1 91.8,-10.5 a 3.1,3.1 0 0 0 -2.3,-5.2 c -19.6,-0.9 -86,-12.3 -134.4,-122.4 -6.6,-15.1 -13.6,-30 -21.2,-44.7 -14.6,-28.2 -38.8,-72.8 -66.6,-117.1 l 1.3,-7.1 50,-205.4 c 6.6,-27.3 -24.5,-47.9 -47,-31.2 l -131.2,97.4 -2.1,2.6 -4.9,-3.1 A 240.6,240.6 0 0 0 1559,836 l -3.3,-0.8 c 10,-28.5 40.9,-44.3 40.9,-44.3 -35.9,-33.7 -100,19.4 -100,19.4 -37,-35.7 17.4,-102.7 17.4,-102.7 -64.8,-29.4 -112.8,85.4 -112.8,85.4 -4.7,-56.4 -86.1,-64.9 -86.1,-64.9 27.1,29.7 13.6,82.9 13.6,82.9 -38.1,-37.3 -110.7,-2.4 -110.7,-2.4 29.7,2.9 48.9,15.7 60.8,28 l -3,0.8 a 240.6,240.6 0 0 0 -79,39 l -131,-81.2 c -23.3,-14.4 -52.1,7.3 -44.7,33.7 l 57.5,202.6 4.2,14.9 c -13.6,32.5 -24.1,61.9 -29.8,78.5 q -5.3,15.7 -12.1,30.8 c -40.9,107.2 -130.3,143.6 -160.1,153.1 a 3.1,3.1 0 0 0 0.1,6 c 20.6,5.7 72.8,17.4 111,-21 0,0 -37.3,51.7 -83.2,70.2 a 3.1,3.1 0 0 0 0.9,6.1 c 16.5,1.6 47.9,0.7 87.8,-18.6 0,0 -21.7,30.1 -40.8,44.4 a 3.2,3.2 0 0 0 2.3,5.7 c 15.5,-1.7 34.4,-5.1 45.5,-11.9 l 0.5,12.2 c 0.5,11.7 8.6,24.2 21.3,36.7 l -107,561 a 248.9,248.9 0 0 0 12.6,117.5 l -0.6,0.3 c -38.1,9.1 -130.4,43.4 -184.5,78.3 -26.5,17.1 -10.1,55.9 23.2,55.3 l 266.9,-5.2 q 6.8,4.1 13.8,7.9 l 0.2,3.4 c 0.4,23.3 -6.7,42.4 -29.9,43.6 -15.6,0.8 -28.2,9.9 -30.6,21.1 -4.7,21.5 5.8,38.9 27.2,40.4 l 84.3,5 c 26.4,1.6 51.9,-11.3 65.3,-34.1 a 71.4,71.4 0 0 0 8.8,-23.9 l 5,-26.6 h 533.6 l 3.5,20.7 a 71.6,71.6 0 0 0 43.1,54.3 53.5,53.5 0 0 0 22.3,4 l 91.8,-3 c 22,-2.2 30.1,-15.7 27.9,-36.9 -0.7,-6.9 -6.2,-24.5 -24.5,-25.5 -15.8,-0.9 -25.2,-8.6 -28.1,-21.9 a 246.8,246.8 0 0 0 65.4,-28.1 l 261.5,5.1 c 33.2,0.3 49.2,-37.8 23.1,-55.6 z" />
    </clipPath>
    <marker
       inkscape:isstock="true"
       style="overflow:visible"
       id="Arrow1Lstart-25-8"
       refX="0"
       refY="0"
       orient="auto"
       inkscape:stockid="Arrow1Lstart">
      <path
         inkscape:connector-curvature="0"
         transform="matrix(0.8,0,0,0.8,10,0)"
         style="fill:#000000;fill-opacity:1;fill-rule:evenodd;stroke:#000000;stroke-width:1.00000003pt;stroke-opacity:1"
         d="M 0,0 5,-5 -12.5,0 5,5 Z"
         id="path4997-22-7" />
    </marker>
    <clipPath
       id="tailShadowClipPath-6-2">
      <path
         style="fill:none"
         inkscape:connector-curvature="0"
         id="path3991-00-3"
         d="m 1942.6,1959.2 c 69,30 162.4,39.9 162.4,39.9 0,0 347.1,45 398.6,-246 19.5,-161.9 -177.1,-195.4 -177.1,-195.4 0,0 91.8,-36.7 124.7,-7 0,0 -18.5,-30.3 -46.3,-32.7 0,0 118.2,-79.9 213.3,102.6 0,0 -12.3,-93 -50.5,-111.6 0,0 142.5,32.6 167.6,241.5 0,0 26.3,-41.6 23.4,-76.4 0,0 67.9,99.8 -7.3,214.7 0,0 58.9,-56.3 63.7,-86.5 0,0 73.9,212.1 -151.5,244.1 0,0 61.2,22.9 101.8,3.3 0,0 -39.1,85.3 -165.9,74.3 0,0 61.7,42.1 99.3,33.5 0,0 -93.2,47.7 -251.3,13.2 0,0 53.6,49.5 93.2,50.5 l -10.5,2.6 a 635.5,635.5 0 0 1 -345.6,-16.1 l -151,-50.4 -90.9,-37.1 v -161 z" />
    </clipPath>
    <clipPath
       id="shadowClipPath-7-8">
      <path
         style="fill:none"
         inkscape:connector-curvature="0"
         id="path4055-29-1"
         data-name="&lt;Clipping Path&gt;"
         d="m 2200.5,2195.7 c -43,-29.4 -132.4,-61.7 -179.8,-75.5 l -0.8,-0.3 a 248.1,248.1 0 0 0 6.4,-155.8 l -174.8,-568.6 c 14.6,-15.2 23.3,-25.6 23.3,-25.6 42.4,27.2 109.7,-3.5 137.1,-18.2 a 3.1,3.1 0 0 0 -1.5,-5.9 c -53.6,0 -129.9,-41.6 -129.9,-41.6 60.7,16.1 84,-1.1 91.8,-10.5 a 3.1,3.1 0 0 0 -2.3,-5.2 c -19.6,-0.9 -86,-12.3 -134.4,-122.4 -6.6,-15.1 -13.6,-30 -21.2,-44.7 -14.6,-28.2 -38.8,-72.8 -66.6,-117.1 l 1.3,-7.1 50,-205.4 c 6.6,-27.3 -24.5,-47.9 -47,-31.2 l -131.2,97.4 -2.1,2.6 -4.9,-3.1 A 240.6,240.6 0 0 0 1559,836 l -3.3,-0.8 c 10,-28.5 40.9,-44.3 40.9,-44.3 -35.9,-33.7 -100,19.4 -100,19.4 -37,-35.7 17.4,-102.7 17.4,-102.7 -64.8,-29.4 -112.8,85.4 -112.8,85.4 -4.7,-56.4 -86.1,-64.9 -86.1,-64.9 27.1,29.7 13.6,82.9 13.6,82.9 -38.1,-37.3 -110.7,-2.4 -110.7,-2.4 29.7,2.9 48.9,15.7 60.8,28 l -3,0.8 a 240.6,240.6 0 0 0 -79,39 l -131,-81.2 c -23.3,-14.4 -52.1,7.3 -44.7,33.7 l 57.5,202.6 4.2,14.9 c -13.6,32.5 -24.1,61.9 -29.8,78.5 q -5.3,15.7 -12.1,30.8 c -40.9,107.2 -130.3,143.6 -160.1,153.1 a 3.1,3.1 0 0 0 0.1,6 c 20.6,5.7 72.8,17.4 111,-21 0,0 -37.3,51.7 -83.2,70.2 a 3.1,3.1 0 0 0 0.9,6.1 c 16.5,1.6 47.9,0.7 87.8,-18.6 0,0 -21.7,30.1 -40.8,44.4 a 3.2,3.2 0 0 0 2.3,5.7 c 15.5,-1.7 34.4,-5.1 45.5,-11.9 l 0.5,12.2 c 0.5,11.7 8.6,24.2 21.3,36.7 l -107,561 a 248.9,248.9 0 0 0 12.6,117.5 l -0.6,0.3 c -38.1,9.1 -130.4,43.4 -184.5,78.3 -26.5,17.1 -10.1,55.9 23.2,55.3 l 266.9,-5.2 q 6.8,4.1 13.8,7.9 l 0.2,3.4 c 0.4,23.3 -6.7,42.4 -29.9,43.6 -15.6,0.8 -28.2,9.9 -30.6,21.1 -4.7,21.5 5.8,38.9 27.2,40.4 l 84.3,5 c 26.4,1.6 51.9,-11.3 65.3,-34.1 a 71.4,71.4 0 0 0 8.8,-23.9 l 5,-26.6 h 533.6 l 3.5,20.7 a 71.6,71.6 0 0 0 43.1,54.3 53.5,53.5 0 0 0 22.3,4 l 91.8,-3 c 22,-2.2 30.1,-15.7 27.9,-36.9 -0.7,-6.9 -6.2,-24.5 -24.5,-25.5 -15.8,-0.9 -25.2,-8.6 -28.1,-21.9 a 246.8,246.8 0 0 0 65.4,-28.1 l 261.5,5.1 c 33.2,0.3 49.2,-37.8 23.1,-55.6 z" />
    </clipPath>
    <clipPath
       id="highlightClipPath-51-1">
      <path
         style="fill:none"
         inkscape:connector-curvature="0"
         id="path4089-3-9"
         data-name="&lt;Clipping Path&gt;"
         d="m 2200.5,2195.7 c -43,-29.4 -132.4,-61.7 -179.8,-75.5 l -0.8,-0.3 a 248.1,248.1 0 0 0 6.4,-155.8 l -174.8,-568.6 c 14.6,-15.2 23.3,-25.6 23.3,-25.6 42.4,27.2 109.7,-3.5 137.1,-18.2 a 3.1,3.1 0 0 0 -1.5,-5.9 c -53.6,0 -129.9,-41.6 -129.9,-41.6 60.7,16.1 84,-1.1 91.8,-10.5 a 3.1,3.1 0 0 0 -2.3,-5.2 c -19.6,-0.9 -86,-12.3 -134.4,-122.4 -6.6,-15.1 -13.6,-30 -21.2,-44.7 -14.6,-28.2 -38.8,-72.8 -66.6,-117.1 l 1.3,-7.1 50,-205.4 c 6.6,-27.3 -24.5,-47.9 -47,-31.2 l -131.2,97.4 -2.1,2.6 -4.9,-3.1 A 240.6,240.6 0 0 0 1559,836 l -3.3,-0.8 c 10,-28.5 40.9,-44.3 40.9,-44.3 -35.9,-33.7 -100,19.4 -100,19.4 -37,-35.7 17.4,-102.7 17.4,-102.7 -64.8,-29.4 -112.8,85.4 -112.8,85.4 -4.7,-56.4 -86.1,-64.9 -86.1,-64.9 27.1,29.7 13.6,82.9 13.6,82.9 -38.1,-37.3 -110.7,-2.4 -110.7,-2.4 29.7,2.9 48.9,15.7 60.8,28 l -3,0.8 a 240.6,240.6 0 0 0 -79,39 l -131,-81.2 c -23.3,-14.4 -52.1,7.3 -44.7,33.7 l 57.5,202.6 4.2,14.9 c -13.6,32.5 -24.1,61.9 -29.8,78.5 q -5.3,15.7 -12.1,30.8 c -40.9,107.2 -130.3,143.6 -160.1,153.1 a 3.1,3.1 0 0 0 0.1,6 c 20.6,5.7 72.8,17.4 111,-21 0,0 -37.3,51.7 -83.2,70.2 a 3.1,3.1 0 0 0 0.9,6.1 c 16.5,1.6 47.9,0.7 87.8,-18.6 0,0 -21.7,30.1 -40.8,44.4 a 3.2,3.2 0 0 0 2.3,5.7 c 15.5,-1.7 34.4,-5.1 45.5,-11.9 l 0.5,12.2 c 0.5,11.7 8.6,24.2 21.3,36.7 l -107,561 a 248.9,248.9 0 0 0 12.6,117.5 l -0.6,0.3 c -38.1,9.1 -130.4,43.4 -184.5,78.3 -26.5,17.1 -10.1,55.9 23.2,55.3 l 266.9,-5.2 q 6.8,4.1 13.8,7.9 l 0.2,3.4 c 0.4,23.3 -6.7,42.4 -29.9,43.6 -15.6,0.8 -28.2,9.9 -30.6,21.1 -4.7,21.5 5.8,38.9 27.2,40.4 l 84.3,5 c 26.4,1.6 51.9,-11.3 65.3,-34.1 a 71.4,71.4 0 0 0 8.8,-23.9 l 5,-26.6 h 533.6 l 3.5,20.7 a 71.6,71.6 0 0 0 43.1,54.3 53.5,53.5 0 0 0 22.3,4 l 91.8,-3 c 22,-2.2 30.1,-15.7 27.9,-36.9 -0.7,-6.9 -6.2,-24.5 -24.5,-25.5 -15.8,-0.9 -25.2,-8.6 -28.1,-21.9 a 246.8,246.8 0 0 0 65.4,-28.1 l 261.5,5.1 c 33.2,0.3 49.2,-37.8 23.1,-55.6 z" />
    </clipPath>
    <marker
       inkscape:isstock="true"
       style="overflow:visible"
       id="Arrow1Lstart-7-9"
       refX="0"
       refY="0"
       orient="auto"
       inkscape:stockid="Arrow1Lstart">
      <path
         inkscape:connector-curvature="0"
         transform="matrix(0.8,0,0,0.8,10,0)"
         style="fill:#000000;fill-opacity:1;fill-rule:evenodd;stroke:#000000;stroke-width:1.00000003pt;stroke-opacity:1"
         d="M 0,0 5,-5 -12.5,0 5,5 Z"
         id="path4997-5-0" />
    </marker>
    <clipPath
       id="tailShadowClipPath-62-1">
      <path
         style="fill:none"
         inkscape:connector-curvature="0"
         id="path3991-4-6"
         d="m 1942.6,1959.2 c 69,30 162.4,39.9 162.4,39.9 0,0 347.1,45 398.6,-246 19.5,-161.9 -177.1,-195.4 -177.1,-195.4 0,0 91.8,-36.7 124.7,-7 0,0 -18.5,-30.3 -46.3,-32.7 0,0 118.2,-79.9 213.3,102.6 0,0 -12.3,-93 -50.5,-111.6 0,0 142.5,32.6 167.6,241.5 0,0 26.3,-41.6 23.4,-76.4 0,0 67.9,99.8 -7.3,214.7 0,0 58.9,-56.3 63.7,-86.5 0,0 73.9,212.1 -151.5,244.1 0,0 61.2,22.9 101.8,3.3 0,0 -39.1,85.3 -165.9,74.3 0,0 61.7,42.1 99.3,33.5 0,0 -93.2,47.7 -251.3,13.2 0,0 53.6,49.5 93.2,50.5 l -10.5,2.6 a 635.5,635.5 0 0 1 -345.6,-16.1 l -151,-50.4 -90.9,-37.1 v -161 z" />
    </clipPath>
    <clipPath
       id="shadowClipPath-37-3">
      <path
         style="fill:none"
         inkscape:connector-curvature="0"
         id="path4055-1-7"
         data-name="&lt;Clipping Path&gt;"
         d="m 2200.5,2195.7 c -43,-29.4 -132.4,-61.7 -179.8,-75.5 l -0.8,-0.3 a 248.1,248.1 0 0 0 6.4,-155.8 l -174.8,-568.6 c 14.6,-15.2 23.3,-25.6 23.3,-25.6 42.4,27.2 109.7,-3.5 137.1,-18.2 a 3.1,3.1 0 0 0 -1.5,-5.9 c -53.6,0 -129.9,-41.6 -129.9,-41.6 60.7,16.1 84,-1.1 91.8,-10.5 a 3.1,3.1 0 0 0 -2.3,-5.2 c -19.6,-0.9 -86,-12.3 -134.4,-122.4 -6.6,-15.1 -13.6,-30 -21.2,-44.7 -14.6,-28.2 -38.8,-72.8 -66.6,-117.1 l 1.3,-7.1 50,-205.4 c 6.6,-27.3 -24.5,-47.9 -47,-31.2 l -131.2,97.4 -2.1,2.6 -4.9,-3.1 A 240.6,240.6 0 0 0 1559,836 l -3.3,-0.8 c 10,-28.5 40.9,-44.3 40.9,-44.3 -35.9,-33.7 -100,19.4 -100,19.4 -37,-35.7 17.4,-102.7 17.4,-102.7 -64.8,-29.4 -112.8,85.4 -112.8,85.4 -4.7,-56.4 -86.1,-64.9 -86.1,-64.9 27.1,29.7 13.6,82.9 13.6,82.9 -38.1,-37.3 -110.7,-2.4 -110.7,-2.4 29.7,2.9 48.9,15.7 60.8,28 l -3,0.8 a 240.6,240.6 0 0 0 -79,39 l -131,-81.2 c -23.3,-14.4 -52.1,7.3 -44.7,33.7 l 57.5,202.6 4.2,14.9 c -13.6,32.5 -24.1,61.9 -29.8,78.5 q -5.3,15.7 -12.1,30.8 c -40.9,107.2 -130.3,143.6 -160.1,153.1 a 3.1,3.1 0 0 0 0.1,6 c 20.6,5.7 72.8,17.4 111,-21 0,0 -37.3,51.7 -83.2,70.2 a 3.1,3.1 0 0 0 0.9,6.1 c 16.5,1.6 47.9,0.7 87.8,-18.6 0,0 -21.7,30.1 -40.8,44.4 a 3.2,3.2 0 0 0 2.3,5.7 c 15.5,-1.7 34.4,-5.1 45.5,-11.9 l 0.5,12.2 c 0.5,11.7 8.6,24.2 21.3,36.7 l -107,561 a 248.9,248.9 0 0 0 12.6,117.5 l -0.6,0.3 c -38.1,9.1 -130.4,43.4 -184.5,78.3 -26.5,17.1 -10.1,55.9 23.2,55.3 l 266.9,-5.2 q 6.8,4.1 13.8,7.9 l 0.2,3.4 c 0.4,23.3 -6.7,42.4 -29.9,43.6 -15.6,0.8 -28.2,9.9 -30.6,21.1 -4.7,21.5 5.8,38.9 27.2,40.4 l 84.3,5 c 26.4,1.6 51.9,-11.3 65.3,-34.1 a 71.4,71.4 0 0 0 8.8,-23.9 l 5,-26.6 h 533.6 l 3.5,20.7 a 71.6,71.6 0 0 0 43.1,54.3 53.5,53.5 0 0 0 22.3,4 l 91.8,-3 c 22,-2.2 30.1,-15.7 27.9,-36.9 -0.7,-6.9 -6.2,-24.5 -24.5,-25.5 -15.8,-0.9 -25.2,-8.6 -28.1,-21.9 a 246.8,246.8 0 0 0 65.4,-28.1 l 261.5,5.1 c 33.2,0.3 49.2,-37.8 23.1,-55.6 z" />
    </clipPath>
    <clipPath
       id="highlightClipPath-7-4">
      <path
         style="fill:none"
         inkscape:connector-curvature="0"
         id="path4089-34-8"
         data-name="&lt;Clipping Path&gt;"
         d="m 2200.5,2195.7 c -43,-29.4 -132.4,-61.7 -179.8,-75.5 l -0.8,-0.3 a 248.1,248.1 0 0 0 6.4,-155.8 l -174.8,-568.6 c 14.6,-15.2 23.3,-25.6 23.3,-25.6 42.4,27.2 109.7,-3.5 137.1,-18.2 a 3.1,3.1 0 0 0 -1.5,-5.9 c -53.6,0 -129.9,-41.6 -129.9,-41.6 60.7,16.1 84,-1.1 91.8,-10.5 a 3.1,3.1 0 0 0 -2.3,-5.2 c -19.6,-0.9 -86,-12.3 -134.4,-122.4 -6.6,-15.1 -13.6,-30 -21.2,-44.7 -14.6,-28.2 -38.8,-72.8 -66.6,-117.1 l 1.3,-7.1 50,-205.4 c 6.6,-27.3 -24.5,-47.9 -47,-31.2 l -131.2,97.4 -2.1,2.6 -4.9,-3.1 A 240.6,240.6 0 0 0 1559,836 l -3.3,-0.8 c 10,-28.5 40.9,-44.3 40.9,-44.3 -35.9,-33.7 -100,19.4 -100,19.4 -37,-35.7 17.4,-102.7 17.4,-102.7 -64.8,-29.4 -112.8,85.4 -112.8,85.4 -4.7,-56.4 -86.1,-64.9 -86.1,-64.9 27.1,29.7 13.6,82.9 13.6,82.9 -38.1,-37.3 -110.7,-2.4 -110.7,-2.4 29.7,2.9 48.9,15.7 60.8,28 l -3,0.8 a 240.6,240.6 0 0 0 -79,39 l -131,-81.2 c -23.3,-14.4 -52.1,7.3 -44.7,33.7 l 57.5,202.6 4.2,14.9 c -13.6,32.5 -24.1,61.9 -29.8,78.5 q -5.3,15.7 -12.1,30.8 c -40.9,107.2 -130.3,143.6 -160.1,153.1 a 3.1,3.1 0 0 0 0.1,6 c 20.6,5.7 72.8,17.4 111,-21 0,0 -37.3,51.7 -83.2,70.2 a 3.1,3.1 0 0 0 0.9,6.1 c 16.5,1.6 47.9,0.7 87.8,-18.6 0,0 -21.7,30.1 -40.8,44.4 a 3.2,3.2 0 0 0 2.3,5.7 c 15.5,-1.7 34.4,-5.1 45.5,-11.9 l 0.5,12.2 c 0.5,11.7 8.6,24.2 21.3,36.7 l -107,561 a 248.9,248.9 0 0 0 12.6,117.5 l -0.6,0.3 c -38.1,9.1 -130.4,43.4 -184.5,78.3 -26.5,17.1 -10.1,55.9 23.2,55.3 l 266.9,-5.2 q 6.8,4.1 13.8,7.9 l 0.2,3.4 c 0.4,23.3 -6.7,42.4 -29.9,43.6 -15.6,0.8 -28.2,9.9 -30.6,21.1 -4.7,21.5 5.8,38.9 27.2,40.4 l 84.3,5 c 26.4,1.6 51.9,-11.3 65.3,-34.1 a 71.4,71.4 0 0 0 8.8,-23.9 l 5,-26.6 h 533.6 l 3.5,20.7 a 71.6,71.6 0 0 0 43.1,54.3 53.5,53.5 0 0 0 22.3,4 l 91.8,-3 c 22,-2.2 30.1,-15.7 27.9,-36.9 -0.7,-6.9 -6.2,-24.5 -24.5,-25.5 -15.8,-0.9 -25.2,-8.6 -28.1,-21.9 a 246.8,246.8 0 0 0 65.4,-28.1 l 261.5,5.1 c 33.2,0.3 49.2,-37.8 23.1,-55.6 z" />
    </clipPath>
    <clipPath
       id="shadowClipPath-9">
      <path
         d="M 1211.5,866.4 A 240.2,240.2 0 0 1 1341,828.6 h 158.2 A 240.5,240.5 0 0 1 1607,854 c 24.5,-19.2 89.4,-68.2 129.3,-66.3 a 15,15 0 0 1 12.1,22.9 L 1684,914.8 a 240.5,240.5 0 0 1 47.2,89.2 l 295.1,960.1 a 248.1,248.1 0 0 1 -6.4,155.9 l 0.8,0.3 c 47.5,13.8 136.8,46.1 179.8,75.5 26.1,17.8 10.1,55.9 -23.2,55.3 l -261.6,-5 a 246.8,246.8 0 0 1 -65.3,28 c 2.8,13.3 12.3,21 28.1,21.9 18.2,1 23.7,18.6 24.5,25.5 2.3,21.2 -5.8,34.7 -27.9,36.9 l -91.8,3 a 53.5,53.5 0 0 1 -22.3,-4 71.6,71.6 0 0 1 -43.1,-54.3 l -3.5,-20.7 h -533.5 l -5,26.6 a 71.4,71.4 0 0 1 -8.8,23.9 c -13.4,22.8 -38.9,35.7 -65.3,34.1 l -84.3,-5 c -21.4,-1.6 -31.9,-18.9 -27.2,-40.4 2.5,-11.1 15.1,-20.3 30.6,-21.1 23.3,-1.2 30.3,-20.2 29.9,-43.6 v -3.3 q -7.1,-3.7 -13.9,-7.9 L 770,2251 c -33.3,0.6 -49.7,-38.2 -23.2,-55.3 54,-34.9 146.4,-69.2 184.5,-78.3 l 0.6,-0.2 a 248.9,248.9 0 0 1 -12.6,-117.6 l 182.9,-961.4 a 240.3,240.3 0 0 1 33,-93.8 l -60.5,-108.1 a 15,15 0 0 1 0.9,-16 c 24.9,-34.9 89.3,8.5 130.8,42.6 z"
         id="path17-5"
         inkscape:connector-curvature="0"
         style="fill:none" />
    </clipPath>
    <linearGradient
       id="linearGradient12605"
       x1="1180.91"
       x2="1714.46"
       y1="2153.98"
       y2="2153.98"
       gradientUnits="userSpaceOnUse">
      <stop
         offset="0"
         stop-color="gray"
         id="stop20-0" />
      <stop
         offset=".27"
         stop-color="#7d7d7d"
         id="stop22-7" />
      <stop
         offset=".46"
         stop-color="#747474"
         id="stop24-7" />
      <stop
         offset=".64"
         stop-color="#646464"
         id="stop26-5" />
      <stop
         offset=".8"
         stop-color="#4d4d4d"
         id="stop28-8" />
      <stop
         offset=".95"
         stop-color="#303030"
         id="stop30-6" />
      <stop
         offset="1"
         stop-color="#242424"
         id="stop32-4" />
    </linearGradient>
    <linearGradient
       id="linearGradient12613"
       x1="1713.27"
       x2="1713.27"
       y1="794.54999"
       y2="927.94"
       gradientUnits="userSpaceOnUse">
      <stop
         offset="0"
         stop-color="gray"
         id="stop35-7" />
      <stop
         offset=".14"
         stop-color="#797979"
         id="stop37-6" />
      <stop
         offset=".35"
         stop-color="#646464"
         id="stop39-8" />
      <stop
         offset=".6"
         stop-color="#434343"
         id="stop41-7" />
      <stop
         offset=".89"
         stop-color="#141414"
         id="stop43-2" />
      <stop
         offset="1"
         id="stop45-1" />
    </linearGradient>
    <linearGradient
       id="linearGradient12615"
       x1="1028.58"
       x2="1028.58"
       y1="855.46997"
       y2="2254.4099"
       href="#shadowLinearGradient"
       xlink:href="#shadowLinearGradient" />
    <linearGradient
       id="linearGradient12617"
       x1="1971.8199"
       x2="1971.8199"
       y1="1970.17"
       y2="2305.1299"
       href="#shadowLinearGradient"
       xlink:href="#shadowLinearGradient" />
    <linearGradient
       id="linearGradient12619"
       x1="1041.15"
       x2="1175.15"
       y1="888.72998"
       y2="888.72998"
       href="#shadowLinearGradient2"
       xlink:href="#shadowLinearGradient2" />
    <clipPath
       id="highlightClipPath-9">
      <path
         d="M 1211.5,866.4 A 240.2,240.2 0 0 1 1341,828.6 h 158.2 A 240.5,240.5 0 0 1 1607,854 c 24.5,-19.2 89.4,-68.2 129.3,-66.3 a 15,15 0 0 1 12.1,22.9 L 1684,914.8 a 240.5,240.5 0 0 1 47.2,89.2 l 295.1,960.1 a 248.1,248.1 0 0 1 -6.4,155.9 l 0.8,0.3 c 47.5,13.8 136.8,46.1 179.8,75.5 26.1,17.8 10.1,55.9 -23.2,55.3 l -261.6,-5 a 246.8,246.8 0 0 1 -65.3,28 c 2.8,13.3 12.3,21 28.1,21.9 18.2,1 23.7,18.6 24.5,25.5 2.3,21.2 -5.8,34.7 -27.9,36.9 l -91.8,3 a 53.5,53.5 0 0 1 -22.3,-4 71.6,71.6 0 0 1 -43.1,-54.3 l -3.5,-20.7 h -533.5 l -5,26.6 a 71.4,71.4 0 0 1 -8.8,23.9 c -13.4,22.8 -38.9,35.7 -65.3,34.1 l -84.3,-5 c -21.4,-1.6 -31.9,-18.9 -27.2,-40.4 2.5,-11.1 15.1,-20.3 30.6,-21.1 23.3,-1.2 30.3,-20.2 29.9,-43.6 v -3.3 q -7.1,-3.7 -13.9,-7.9 L 770,2251 c -33.3,0.6 -49.7,-38.2 -23.2,-55.3 54,-34.9 146.4,-69.2 184.5,-78.3 l 0.6,-0.2 a 248.9,248.9 0 0 1 -12.6,-117.6 l 182.9,-961.4 a 240.3,240.3 0 0 1 33,-93.8 l -60.5,-108.1 a 15,15 0 0 1 0.9,-16 c 24.9,-34.9 89.3,8.5 130.8,42.6 z"
         id="path66-7"
         inkscape:connector-curvature="0"
         style="fill:none" />
    </clipPath>
    <linearGradient
       id="linearGradient12625"
       x1="1844.99"
       x2="1844.99"
       y1="2256.3899"
       y2="835.97998"
       gradientUnits="userSpaceOnUse">
      <stop
         offset="0"
         stop-color="#fff"
         stop-opacity="0"
         id="stop69-6" />
      <stop
         offset=".72"
         stop-color="#fff"
         id="stop71-7" />
    </linearGradient>
    <clipPath
       id="clipPath1352-0">
      <path
         style="fill:none"
         inkscape:connector-curvature="0"
         id="path1350-8"
         d="m 1942.6,1959.2 c 69,30 162.4,39.9 162.4,39.9 0,0 347.1,45 398.6,-246 19.5,-161.9 -177.1,-195.4 -177.1,-195.4 0,0 91.8,-36.7 124.7,-7 0,0 -18.5,-30.3 -46.3,-32.7 0,0 118.2,-79.9 213.3,102.6 0,0 -12.3,-93 -50.5,-111.6 0,0 142.5,32.6 167.6,241.5 0,0 26.3,-41.6 23.4,-76.4 0,0 67.9,99.8 -7.3,214.7 0,0 58.9,-56.3 63.7,-86.5 0,0 73.9,212.1 -151.5,244.1 0,0 61.2,22.9 101.8,3.3 0,0 -39.1,85.3 -165.9,74.3 0,0 61.7,42.1 99.3,33.5 0,0 -93.2,47.7 -251.3,13.2 0,0 53.6,49.5 93.2,50.5 l -10.5,2.6 a 635.5,635.5 0 0 1 -345.6,-16.1 l -151,-50.4 -90.9,-37.1 v -161 z" />
    </clipPath>
    <clipPath
       id="clipPath1407-1">
      <path
         style="fill:none"
         inkscape:connector-curvature="0"
         id="path1405-2"
         data-name="&lt;Clipping Path&gt;"
         d="m 2200.5,2195.7 c -43,-29.4 -132.4,-61.7 -179.8,-75.5 l -0.8,-0.3 a 248.1,248.1 0 0 0 6.4,-155.8 l -174.8,-568.6 c 14.6,-15.2 23.3,-25.6 23.3,-25.6 42.4,27.2 109.7,-3.5 137.1,-18.2 a 3.1,3.1 0 0 0 -1.5,-5.9 c -53.6,0 -129.9,-41.6 -129.9,-41.6 60.7,16.1 84,-1.1 91.8,-10.5 a 3.1,3.1 0 0 0 -2.3,-5.2 c -19.6,-0.9 -86,-12.3 -134.4,-122.4 -6.6,-15.1 -13.6,-30 -21.2,-44.7 -14.6,-28.2 -38.8,-72.8 -66.6,-117.1 l 1.3,-7.1 50,-205.4 c 6.6,-27.3 -24.5,-47.9 -47,-31.2 l -131.2,97.4 -2.1,2.6 -4.9,-3.1 A 240.6,240.6 0 0 0 1559,836 l -3.3,-0.8 c 10,-28.5 40.9,-44.3 40.9,-44.3 -35.9,-33.7 -100,19.4 -100,19.4 -37,-35.7 17.4,-102.7 17.4,-102.7 -64.8,-29.4 -112.8,85.4 -112.8,85.4 -4.7,-56.4 -86.1,-64.9 -86.1,-64.9 27.1,29.7 13.6,82.9 13.6,82.9 -38.1,-37.3 -110.7,-2.4 -110.7,-2.4 29.7,2.9 48.9,15.7 60.8,28 l -3,0.8 a 240.6,240.6 0 0 0 -79,39 l -131,-81.2 c -23.3,-14.4 -52.1,7.3 -44.7,33.7 l 57.5,202.6 4.2,14.9 c -13.6,32.5 -24.1,61.9 -29.8,78.5 q -5.3,15.7 -12.1,30.8 c -40.9,107.2 -130.3,143.6 -160.1,153.1 a 3.1,3.1 0 0 0 0.1,6 c 20.6,5.7 72.8,17.4 111,-21 0,0 -37.3,51.7 -83.2,70.2 a 3.1,3.1 0 0 0 0.9,6.1 c 16.5,1.6 47.9,0.7 87.8,-18.6 0,0 -21.7,30.1 -40.8,44.4 a 3.2,3.2 0 0 0 2.3,5.7 c 15.5,-1.7 34.4,-5.1 45.5,-11.9 l 0.5,12.2 c 0.5,11.7 8.6,24.2 21.3,36.7 l -107,561 a 248.9,248.9 0 0 0 12.6,117.5 l -0.6,0.3 c -38.1,9.1 -130.4,43.4 -184.5,78.3 -26.5,17.1 -10.1,55.9 23.2,55.3 l 266.9,-5.2 q 6.8,4.1 13.8,7.9 l 0.2,3.4 c 0.4,23.3 -6.7,42.4 -29.9,43.6 -15.6,0.8 -28.2,9.9 -30.6,21.1 -4.7,21.5 5.8,38.9 27.2,40.4 l 84.3,5 c 26.4,1.6 51.9,-11.3 65.3,-34.1 a 71.4,71.4 0 0 0 8.8,-23.9 l 5,-26.6 h 533.6 l 3.5,20.7 a 71.6,71.6 0 0 0 43.1,54.3 53.5,53.5 0 0 0 22.3,4 l 91.8,-3 c 22,-2.2 30.1,-15.7 27.9,-36.9 -0.7,-6.9 -6.2,-24.5 -24.5,-25.5 -15.8,-0.9 -25.2,-8.6 -28.1,-21.9 a 246.8,246.8 0 0 0 65.4,-28.1 l 261.5,5.1 c 33.2,0.3 49.2,-37.8 23.1,-55.6 z" />
    </clipPath>
    <clipPath
       id="clipPath1436-2">
      <path
         style="fill:none"
         inkscape:connector-curvature="0"
         id="path1434-5"
         data-name="&lt;Clipping Path&gt;"
         d="m 2200.5,2195.7 c -43,-29.4 -132.4,-61.7 -179.8,-75.5 l -0.8,-0.3 a 248.1,248.1 0 0 0 6.4,-155.8 l -174.8,-568.6 c 14.6,-15.2 23.3,-25.6 23.3,-25.6 42.4,27.2 109.7,-3.5 137.1,-18.2 a 3.1,3.1 0 0 0 -1.5,-5.9 c -53.6,0 -129.9,-41.6 -129.9,-41.6 60.7,16.1 84,-1.1 91.8,-10.5 a 3.1,3.1 0 0 0 -2.3,-5.2 c -19.6,-0.9 -86,-12.3 -134.4,-122.4 -6.6,-15.1 -13.6,-30 -21.2,-44.7 -14.6,-28.2 -38.8,-72.8 -66.6,-117.1 l 1.3,-7.1 50,-205.4 c 6.6,-27.3 -24.5,-47.9 -47,-31.2 l -131.2,97.4 -2.1,2.6 -4.9,-3.1 A 240.6,240.6 0 0 0 1559,836 l -3.3,-0.8 c 10,-28.5 40.9,-44.3 40.9,-44.3 -35.9,-33.7 -100,19.4 -100,19.4 -37,-35.7 17.4,-102.7 17.4,-102.7 -64.8,-29.4 -112.8,85.4 -112.8,85.4 -4.7,-56.4 -86.1,-64.9 -86.1,-64.9 27.1,29.7 13.6,82.9 13.6,82.9 -38.1,-37.3 -110.7,-2.4 -110.7,-2.4 29.7,2.9 48.9,15.7 60.8,28 l -3,0.8 a 240.6,240.6 0 0 0 -79,39 l -131,-81.2 c -23.3,-14.4 -52.1,7.3 -44.7,33.7 l 57.5,202.6 4.2,14.9 c -13.6,32.5 -24.1,61.9 -29.8,78.5 q -5.3,15.7 -12.1,30.8 c -40.9,107.2 -130.3,143.6 -160.1,153.1 a 3.1,3.1 0 0 0 0.1,6 c 20.6,5.7 72.8,17.4 111,-21 0,0 -37.3,51.7 -83.2,70.2 a 3.1,3.1 0 0 0 0.9,6.1 c 16.5,1.6 47.9,0.7 87.8,-18.6 0,0 -21.7,30.1 -40.8,44.4 a 3.2,3.2 0 0 0 2.3,5.7 c 15.5,-1.7 34.4,-5.1 45.5,-11.9 l 0.5,12.2 c 0.5,11.7 8.6,24.2 21.3,36.7 l -107,561 a 248.9,248.9 0 0 0 12.6,117.5 l -0.6,0.3 c -38.1,9.1 -130.4,43.4 -184.5,78.3 -26.5,17.1 -10.1,55.9 23.2,55.3 l 266.9,-5.2 q 6.8,4.1 13.8,7.9 l 0.2,3.4 c 0.4,23.3 -6.7,42.4 -29.9,43.6 -15.6,0.8 -28.2,9.9 -30.6,21.1 -4.7,21.5 5.8,38.9 27.2,40.4 l 84.3,5 c 26.4,1.6 51.9,-11.3 65.3,-34.1 a 71.4,71.4 0 0 0 8.8,-23.9 l 5,-26.6 h 533.6 l 3.5,20.7 a 71.6,71.6 0 0 0 43.1,54.3 53.5,53.5 0 0 0 22.3,4 l 91.8,-3 c 22,-2.2 30.1,-15.7 27.9,-36.9 -0.7,-6.9 -6.2,-24.5 -24.5,-25.5 -15.8,-0.9 -25.2,-8.6 -28.1,-21.9 a 246.8,246.8 0 0 0 65.4,-28.1 l 261.5,5.1 c 33.2,0.3 49.2,-37.8 23.1,-55.6 z" />
    </clipPath>
    <clipPath
       id="clipPath2067-9">
      <path
         style="fill:none"
         inkscape:connector-curvature="0"
         id="path2065-1"
         d="m 1942.6,1959.2 c 69,30 162.4,39.9 162.4,39.9 0,0 347.1,45 398.6,-246 19.5,-161.9 -177.1,-195.4 -177.1,-195.4 0,0 91.8,-36.7 124.7,-7 0,0 -18.5,-30.3 -46.3,-32.7 0,0 118.2,-79.9 213.3,102.6 0,0 -12.3,-93 -50.5,-111.6 0,0 142.5,32.6 167.6,241.5 0,0 26.3,-41.6 23.4,-76.4 0,0 67.9,99.8 -7.3,214.7 0,0 58.9,-56.3 63.7,-86.5 0,0 73.9,212.1 -151.5,244.1 0,0 61.2,22.9 101.8,3.3 0,0 -39.1,85.3 -165.9,74.3 0,0 61.7,42.1 99.3,33.5 0,0 -93.2,47.7 -251.3,13.2 0,0 53.6,49.5 93.2,50.5 l -10.5,2.6 a 635.5,635.5 0 0 1 -345.6,-16.1 l -151,-50.4 -90.9,-37.1 v -161 z" />
    </clipPath>
    <clipPath
       id="clipPath2111-8">
      <path
         style="fill:none"
         inkscape:connector-curvature="0"
         id="path2109-2"
         data-name="&lt;Clipping Path&gt;"
         d="m 2200.5,2195.7 c -43,-29.4 -132.4,-61.7 -179.8,-75.5 l -0.8,-0.3 a 248.1,248.1 0 0 0 6.4,-155.8 l -174.8,-568.6 c 14.6,-15.2 23.3,-25.6 23.3,-25.6 42.4,27.2 109.7,-3.5 137.1,-18.2 a 3.1,3.1 0 0 0 -1.5,-5.9 c -53.6,0 -129.9,-41.6 -129.9,-41.6 60.7,16.1 84,-1.1 91.8,-10.5 a 3.1,3.1 0 0 0 -2.3,-5.2 c -19.6,-0.9 -86,-12.3 -134.4,-122.4 -6.6,-15.1 -13.6,-30 -21.2,-44.7 -14.6,-28.2 -38.8,-72.8 -66.6,-117.1 l 1.3,-7.1 50,-205.4 c 6.6,-27.3 -24.5,-47.9 -47,-31.2 l -131.2,97.4 -2.1,2.6 -4.9,-3.1 A 240.6,240.6 0 0 0 1559,836 l -3.3,-0.8 c 10,-28.5 40.9,-44.3 40.9,-44.3 -35.9,-33.7 -100,19.4 -100,19.4 -37,-35.7 17.4,-102.7 17.4,-102.7 -64.8,-29.4 -112.8,85.4 -112.8,85.4 -4.7,-56.4 -86.1,-64.9 -86.1,-64.9 27.1,29.7 13.6,82.9 13.6,82.9 -38.1,-37.3 -110.7,-2.4 -110.7,-2.4 29.7,2.9 48.9,15.7 60.8,28 l -3,0.8 a 240.6,240.6 0 0 0 -79,39 l -131,-81.2 c -23.3,-14.4 -52.1,7.3 -44.7,33.7 l 57.5,202.6 4.2,14.9 c -13.6,32.5 -24.1,61.9 -29.8,78.5 q -5.3,15.7 -12.1,30.8 c -40.9,107.2 -130.3,143.6 -160.1,153.1 a 3.1,3.1 0 0 0 0.1,6 c 20.6,5.7 72.8,17.4 111,-21 0,0 -37.3,51.7 -83.2,70.2 a 3.1,3.1 0 0 0 0.9,6.1 c 16.5,1.6 47.9,0.7 87.8,-18.6 0,0 -21.7,30.1 -40.8,44.4 a 3.2,3.2 0 0 0 2.3,5.7 c 15.5,-1.7 34.4,-5.1 45.5,-11.9 l 0.5,12.2 c 0.5,11.7 8.6,24.2 21.3,36.7 l -107,561 a 248.9,248.9 0 0 0 12.6,117.5 l -0.6,0.3 c -38.1,9.1 -130.4,43.4 -184.5,78.3 -26.5,17.1 -10.1,55.9 23.2,55.3 l 266.9,-5.2 q 6.8,4.1 13.8,7.9 l 0.2,3.4 c 0.4,23.3 -6.7,42.4 -29.9,43.6 -15.6,0.8 -28.2,9.9 -30.6,21.1 -4.7,21.5 5.8,38.9 27.2,40.4 l 84.3,5 c 26.4,1.6 51.9,-11.3 65.3,-34.1 a 71.4,71.4 0 0 0 8.8,-23.9 l 5,-26.6 h 533.6 l 3.5,20.7 a 71.6,71.6 0 0 0 43.1,54.3 53.5,53.5 0 0 0 22.3,4 l 91.8,-3 c 22,-2.2 30.1,-15.7 27.9,-36.9 -0.7,-6.9 -6.2,-24.5 -24.5,-25.5 -15.8,-0.9 -25.2,-8.6 -28.1,-21.9 a 246.8,246.8 0 0 0 65.4,-28.1 l 261.5,5.1 c 33.2,0.3 49.2,-37.8 23.1,-55.6 z" />
    </clipPath>
    <clipPath
       id="clipPath2132-3">
      <path
         style="fill:none"
         inkscape:connector-curvature="0"
         id="path2130-3"
         data-name="&lt;Clipping Path&gt;"
         d="m 2200.5,2195.7 c -43,-29.4 -132.4,-61.7 -179.8,-75.5 l -0.8,-0.3 a 248.1,248.1 0 0 0 6.4,-155.8 l -174.8,-568.6 c 14.6,-15.2 23.3,-25.6 23.3,-25.6 42.4,27.2 109.7,-3.5 137.1,-18.2 a 3.1,3.1 0 0 0 -1.5,-5.9 c -53.6,0 -129.9,-41.6 -129.9,-41.6 60.7,16.1 84,-1.1 91.8,-10.5 a 3.1,3.1 0 0 0 -2.3,-5.2 c -19.6,-0.9 -86,-12.3 -134.4,-122.4 -6.6,-15.1 -13.6,-30 -21.2,-44.7 -14.6,-28.2 -38.8,-72.8 -66.6,-117.1 l 1.3,-7.1 50,-205.4 c 6.6,-27.3 -24.5,-47.9 -47,-31.2 l -131.2,97.4 -2.1,2.6 -4.9,-3.1 A 240.6,240.6 0 0 0 1559,836 l -3.3,-0.8 c 10,-28.5 40.9,-44.3 40.9,-44.3 -35.9,-33.7 -100,19.4 -100,19.4 -37,-35.7 17.4,-102.7 17.4,-102.7 -64.8,-29.4 -112.8,85.4 -112.8,85.4 -4.7,-56.4 -86.1,-64.9 -86.1,-64.9 27.1,29.7 13.6,82.9 13.6,82.9 -38.1,-37.3 -110.7,-2.4 -110.7,-2.4 29.7,2.9 48.9,15.7 60.8,28 l -3,0.8 a 240.6,240.6 0 0 0 -79,39 l -131,-81.2 c -23.3,-14.4 -52.1,7.3 -44.7,33.7 l 57.5,202.6 4.2,14.9 c -13.6,32.5 -24.1,61.9 -29.8,78.5 q -5.3,15.7 -12.1,30.8 c -40.9,107.2 -130.3,143.6 -160.1,153.1 a 3.1,3.1 0 0 0 0.1,6 c 20.6,5.7 72.8,17.4 111,-21 0,0 -37.3,51.7 -83.2,70.2 a 3.1,3.1 0 0 0 0.9,6.1 c 16.5,1.6 47.9,0.7 87.8,-18.6 0,0 -21.7,30.1 -40.8,44.4 a 3.2,3.2 0 0 0 2.3,5.7 c 15.5,-1.7 34.4,-5.1 45.5,-11.9 l 0.5,12.2 c 0.5,11.7 8.6,24.2 21.3,36.7 l -107,561 a 248.9,248.9 0 0 0 12.6,117.5 l -0.6,0.3 c -38.1,9.1 -130.4,43.4 -184.5,78.3 -26.5,17.1 -10.1,55.9 23.2,55.3 l 266.9,-5.2 q 6.8,4.1 13.8,7.9 l 0.2,3.4 c 0.4,23.3 -6.7,42.4 -29.9,43.6 -15.6,0.8 -28.2,9.9 -30.6,21.1 -4.7,21.5 5.8,38.9 27.2,40.4 l 84.3,5 c 26.4,1.6 51.9,-11.3 65.3,-34.1 a 71.4,71.4 0 0 0 8.8,-23.9 l 5,-26.6 h 533.6 l 3.5,20.7 a 71.6,71.6 0 0 0 43.1,54.3 53.5,53.5 0 0 0 22.3,4 l 91.8,-3 c 22,-2.2 30.1,-15.7 27.9,-36.9 -0.7,-6.9 -6.2,-24.5 -24.5,-25.5 -15.8,-0.9 -25.2,-8.6 -28.1,-21.9 a 246.8,246.8 0 0 0 65.4,-28.1 l 261.5,5.1 c 33.2,0.3 49.2,-37.8 23.1,-55.6 z" />
    </clipPath>
    <clipPath
       id="clipPath3130-0">
      <path
         style="fill:none"
         inkscape:connector-curvature="0"
         id="path3128-6"
         d="m 1942.6,1959.2 c 69,30 162.4,39.9 162.4,39.9 0,0 347.1,45 398.6,-246 19.5,-161.9 -177.1,-195.4 -177.1,-195.4 0,0 91.8,-36.7 124.7,-7 0,0 -18.5,-30.3 -46.3,-32.7 0,0 118.2,-79.9 213.3,102.6 0,0 -12.3,-93 -50.5,-111.6 0,0 142.5,32.6 167.6,241.5 0,0 26.3,-41.6 23.4,-76.4 0,0 67.9,99.8 -7.3,214.7 0,0 58.9,-56.3 63.7,-86.5 0,0 73.9,212.1 -151.5,244.1 0,0 61.2,22.9 101.8,3.3 0,0 -39.1,85.3 -165.9,74.3 0,0 61.7,42.1 99.3,33.5 0,0 -93.2,47.7 -251.3,13.2 0,0 53.6,49.5 93.2,50.5 l -10.5,2.6 a 635.5,635.5 0 0 1 -345.6,-16.1 l -151,-50.4 -90.9,-37.1 v -161 z" />
    </clipPath>
    <clipPath
       id="clipPath3170-2">
      <path
         style="fill:none"
         inkscape:connector-curvature="0"
         id="path3168-4"
         data-name="&lt;Clipping Path&gt;"
         d="m 2200.5,2195.7 c -43,-29.4 -132.4,-61.7 -179.8,-75.5 l -0.8,-0.3 a 248.1,248.1 0 0 0 6.4,-155.8 l -174.8,-568.6 c 14.6,-15.2 23.3,-25.6 23.3,-25.6 42.4,27.2 109.7,-3.5 137.1,-18.2 a 3.1,3.1 0 0 0 -1.5,-5.9 c -53.6,0 -129.9,-41.6 -129.9,-41.6 60.7,16.1 84,-1.1 91.8,-10.5 a 3.1,3.1 0 0 0 -2.3,-5.2 c -19.6,-0.9 -86,-12.3 -134.4,-122.4 -6.6,-15.1 -13.6,-30 -21.2,-44.7 -14.6,-28.2 -38.8,-72.8 -66.6,-117.1 l 1.3,-7.1 50,-205.4 c 6.6,-27.3 -24.5,-47.9 -47,-31.2 l -131.2,97.4 -2.1,2.6 -4.9,-3.1 A 240.6,240.6 0 0 0 1559,836 l -3.3,-0.8 c 10,-28.5 40.9,-44.3 40.9,-44.3 -35.9,-33.7 -100,19.4 -100,19.4 -37,-35.7 17.4,-102.7 17.4,-102.7 -64.8,-29.4 -112.8,85.4 -112.8,85.4 -4.7,-56.4 -86.1,-64.9 -86.1,-64.9 27.1,29.7 13.6,82.9 13.6,82.9 -38.1,-37.3 -110.7,-2.4 -110.7,-2.4 29.7,2.9 48.9,15.7 60.8,28 l -3,0.8 a 240.6,240.6 0 0 0 -79,39 l -131,-81.2 c -23.3,-14.4 -52.1,7.3 -44.7,33.7 l 57.5,202.6 4.2,14.9 c -13.6,32.5 -24.1,61.9 -29.8,78.5 q -5.3,15.7 -12.1,30.8 c -40.9,107.2 -130.3,143.6 -160.1,153.1 a 3.1,3.1 0 0 0 0.1,6 c 20.6,5.7 72.8,17.4 111,-21 0,0 -37.3,51.7 -83.2,70.2 a 3.1,3.1 0 0 0 0.9,6.1 c 16.5,1.6 47.9,0.7 87.8,-18.6 0,0 -21.7,30.1 -40.8,44.4 a 3.2,3.2 0 0 0 2.3,5.7 c 15.5,-1.7 34.4,-5.1 45.5,-11.9 l 0.5,12.2 c 0.5,11.7 8.6,24.2 21.3,36.7 l -107,561 a 248.9,248.9 0 0 0 12.6,117.5 l -0.6,0.3 c -38.1,9.1 -130.4,43.4 -184.5,78.3 -26.5,17.1 -10.1,55.9 23.2,55.3 l 266.9,-5.2 q 6.8,4.1 13.8,7.9 l 0.2,3.4 c 0.4,23.3 -6.7,42.4 -29.9,43.6 -15.6,0.8 -28.2,9.9 -30.6,21.1 -4.7,21.5 5.8,38.9 27.2,40.4 l 84.3,5 c 26.4,1.6 51.9,-11.3 65.3,-34.1 a 71.4,71.4 0 0 0 8.8,-23.9 l 5,-26.6 h 533.6 l 3.5,20.7 a 71.6,71.6 0 0 0 43.1,54.3 53.5,53.5 0 0 0 22.3,4 l 91.8,-3 c 22,-2.2 30.1,-15.7 27.9,-36.9 -0.7,-6.9 -6.2,-24.5 -24.5,-25.5 -15.8,-0.9 -25.2,-8.6 -28.1,-21.9 a 246.8,246.8 0 0 0 65.4,-28.1 l 261.5,5.1 c 33.2,0.3 49.2,-37.8 23.1,-55.6 z" />
    </clipPath>
    <clipPath
       id="clipPath3192-0">
      <path
         style="fill:none"
         inkscape:connector-curvature="0"
         id="path3190-1"
         data-name="&lt;Clipping Path&gt;"
         d="m 2200.5,2195.7 c -43,-29.4 -132.4,-61.7 -179.8,-75.5 l -0.8,-0.3 a 248.1,248.1 0 0 0 6.4,-155.8 l -174.8,-568.6 c 14.6,-15.2 23.3,-25.6 23.3,-25.6 42.4,27.2 109.7,-3.5 137.1,-18.2 a 3.1,3.1 0 0 0 -1.5,-5.9 c -53.6,0 -129.9,-41.6 -129.9,-41.6 60.7,16.1 84,-1.1 91.8,-10.5 a 3.1,3.1 0 0 0 -2.3,-5.2 c -19.6,-0.9 -86,-12.3 -134.4,-122.4 -6.6,-15.1 -13.6,-30 -21.2,-44.7 -14.6,-28.2 -38.8,-72.8 -66.6,-117.1 l 1.3,-7.1 50,-205.4 c 6.6,-27.3 -24.5,-47.9 -47,-31.2 l -131.2,97.4 -2.1,2.6 -4.9,-3.1 A 240.6,240.6 0 0 0 1559,836 l -3.3,-0.8 c 10,-28.5 40.9,-44.3 40.9,-44.3 -35.9,-33.7 -100,19.4 -100,19.4 -37,-35.7 17.4,-102.7 17.4,-102.7 -64.8,-29.4 -112.8,85.4 -112.8,85.4 -4.7,-56.4 -86.1,-64.9 -86.1,-64.9 27.1,29.7 13.6,82.9 13.6,82.9 -38.1,-37.3 -110.7,-2.4 -110.7,-2.4 29.7,2.9 48.9,15.7 60.8,28 l -3,0.8 a 240.6,240.6 0 0 0 -79,39 l -131,-81.2 c -23.3,-14.4 -52.1,7.3 -44.7,33.7 l 57.5,202.6 4.2,14.9 c -13.6,32.5 -24.1,61.9 -29.8,78.5 q -5.3,15.7 -12.1,30.8 c -40.9,107.2 -130.3,143.6 -160.1,153.1 a 3.1,3.1 0 0 0 0.1,6 c 20.6,5.7 72.8,17.4 111,-21 0,0 -37.3,51.7 -83.2,70.2 a 3.1,3.1 0 0 0 0.9,6.1 c 16.5,1.6 47.9,0.7 87.8,-18.6 0,0 -21.7,30.1 -40.8,44.4 a 3.2,3.2 0 0 0 2.3,5.7 c 15.5,-1.7 34.4,-5.1 45.5,-11.9 l 0.5,12.2 c 0.5,11.7 8.6,24.2 21.3,36.7 l -107,561 a 248.9,248.9 0 0 0 12.6,117.5 l -0.6,0.3 c -38.1,9.1 -130.4,43.4 -184.5,78.3 -26.5,17.1 -10.1,55.9 23.2,55.3 l 266.9,-5.2 q 6.8,4.1 13.8,7.9 l 0.2,3.4 c 0.4,23.3 -6.7,42.4 -29.9,43.6 -15.6,0.8 -28.2,9.9 -30.6,21.1 -4.7,21.5 5.8,38.9 27.2,40.4 l 84.3,5 c 26.4,1.6 51.9,-11.3 65.3,-34.1 a 71.4,71.4 0 0 0 8.8,-23.9 l 5,-26.6 h 533.6 l 3.5,20.7 a 71.6,71.6 0 0 0 43.1,54.3 53.5,53.5 0 0 0 22.3,4 l 91.8,-3 c 22,-2.2 30.1,-15.7 27.9,-36.9 -0.7,-6.9 -6.2,-24.5 -24.5,-25.5 -15.8,-0.9 -25.2,-8.6 -28.1,-21.9 a 246.8,246.8 0 0 0 65.4,-28.1 l 261.5,5.1 c 33.2,0.3 49.2,-37.8 23.1,-55.6 z" />
    </clipPath>
    <clipPath
       id="clipPath2685-7">
      <path
         style="fill:none"
         inkscape:connector-curvature="0"
         id="path2683-0"
         d="m 1942.6,1959.2 c 69,30 162.4,39.9 162.4,39.9 0,0 347.1,45 398.6,-246 19.5,-161.9 -177.1,-195.4 -177.1,-195.4 0,0 91.8,-36.7 124.7,-7 0,0 -18.5,-30.3 -46.3,-32.7 0,0 118.2,-79.9 213.3,102.6 0,0 -12.3,-93 -50.5,-111.6 0,0 142.5,32.6 167.6,241.5 0,0 26.3,-41.6 23.4,-76.4 0,0 67.9,99.8 -7.3,214.7 0,0 58.9,-56.3 63.7,-86.5 0,0 73.9,212.1 -151.5,244.1 0,0 61.2,22.9 101.8,3.3 0,0 -39.1,85.3 -165.9,74.3 0,0 61.7,42.1 99.3,33.5 0,0 -93.2,47.7 -251.3,13.2 0,0 53.6,49.5 93.2,50.5 l -10.5,2.6 a 635.5,635.5 0 0 1 -345.6,-16.1 l -151,-50.4 -90.9,-37.1 v -161 z" />
    </clipPath>
    <clipPath
       id="clipPath2729-8">
      <path
         style="fill:none"
         inkscape:connector-curvature="0"
         id="path2727-5"
         data-name="&lt;Clipping Path&gt;"
         d="m 2200.5,2195.7 c -43,-29.4 -132.4,-61.7 -179.8,-75.5 l -0.8,-0.3 a 248.1,248.1 0 0 0 6.4,-155.8 l -174.8,-568.6 c 14.6,-15.2 23.3,-25.6 23.3,-25.6 42.4,27.2 109.7,-3.5 137.1,-18.2 a 3.1,3.1 0 0 0 -1.5,-5.9 c -53.6,0 -129.9,-41.6 -129.9,-41.6 60.7,16.1 84,-1.1 91.8,-10.5 a 3.1,3.1 0 0 0 -2.3,-5.2 c -19.6,-0.9 -86,-12.3 -134.4,-122.4 -6.6,-15.1 -13.6,-30 -21.2,-44.7 -14.6,-28.2 -38.8,-72.8 -66.6,-117.1 l 1.3,-7.1 50,-205.4 c 6.6,-27.3 -24.5,-47.9 -47,-31.2 l -131.2,97.4 -2.1,2.6 -4.9,-3.1 A 240.6,240.6 0 0 0 1559,836 l -3.3,-0.8 c 10,-28.5 40.9,-44.3 40.9,-44.3 -35.9,-33.7 -100,19.4 -100,19.4 -37,-35.7 17.4,-102.7 17.4,-102.7 -64.8,-29.4 -112.8,85.4 -112.8,85.4 -4.7,-56.4 -86.1,-64.9 -86.1,-64.9 27.1,29.7 13.6,82.9 13.6,82.9 -38.1,-37.3 -110.7,-2.4 -110.7,-2.4 29.7,2.9 48.9,15.7 60.8,28 l -3,0.8 a 240.6,240.6 0 0 0 -79,39 l -131,-81.2 c -23.3,-14.4 -52.1,7.3 -44.7,33.7 l 57.5,202.6 4.2,14.9 c -13.6,32.5 -24.1,61.9 -29.8,78.5 q -5.3,15.7 -12.1,30.8 c -40.9,107.2 -130.3,143.6 -160.1,153.1 a 3.1,3.1 0 0 0 0.1,6 c 20.6,5.7 72.8,17.4 111,-21 0,0 -37.3,51.7 -83.2,70.2 a 3.1,3.1 0 0 0 0.9,6.1 c 16.5,1.6 47.9,0.7 87.8,-18.6 0,0 -21.7,30.1 -40.8,44.4 a 3.2,3.2 0 0 0 2.3,5.7 c 15.5,-1.7 34.4,-5.1 45.5,-11.9 l 0.5,12.2 c 0.5,11.7 8.6,24.2 21.3,36.7 l -107,561 a 248.9,248.9 0 0 0 12.6,117.5 l -0.6,0.3 c -38.1,9.1 -130.4,43.4 -184.5,78.3 -26.5,17.1 -10.1,55.9 23.2,55.3 l 266.9,-5.2 q 6.8,4.1 13.8,7.9 l 0.2,3.4 c 0.4,23.3 -6.7,42.4 -29.9,43.6 -15.6,0.8 -28.2,9.9 -30.6,21.1 -4.7,21.5 5.8,38.9 27.2,40.4 l 84.3,5 c 26.4,1.6 51.9,-11.3 65.3,-34.1 a 71.4,71.4 0 0 0 8.8,-23.9 l 5,-26.6 h 533.6 l 3.5,20.7 a 71.6,71.6 0 0 0 43.1,54.3 53.5,53.5 0 0 0 22.3,4 l 91.8,-3 c 22,-2.2 30.1,-15.7 27.9,-36.9 -0.7,-6.9 -6.2,-24.5 -24.5,-25.5 -15.8,-0.9 -25.2,-8.6 -28.1,-21.9 a 246.8,246.8 0 0 0 65.4,-28.1 l 261.5,5.1 c 33.2,0.3 49.2,-37.8 23.1,-55.6 z" />
    </clipPath>
    <clipPath
       id="clipPath2751-5">
      <path
         style="fill:none"
         inkscape:connector-curvature="0"
         id="path2749-7"
         data-name="&lt;Clipping Path&gt;"
         d="m 2200.5,2195.7 c -43,-29.4 -132.4,-61.7 -179.8,-75.5 l -0.8,-0.3 a 248.1,248.1 0 0 0 6.4,-155.8 l -174.8,-568.6 c 14.6,-15.2 23.3,-25.6 23.3,-25.6 42.4,27.2 109.7,-3.5 137.1,-18.2 a 3.1,3.1 0 0 0 -1.5,-5.9 c -53.6,0 -129.9,-41.6 -129.9,-41.6 60.7,16.1 84,-1.1 91.8,-10.5 a 3.1,3.1 0 0 0 -2.3,-5.2 c -19.6,-0.9 -86,-12.3 -134.4,-122.4 -6.6,-15.1 -13.6,-30 -21.2,-44.7 -14.6,-28.2 -38.8,-72.8 -66.6,-117.1 l 1.3,-7.1 50,-205.4 c 6.6,-27.3 -24.5,-47.9 -47,-31.2 l -131.2,97.4 -2.1,2.6 -4.9,-3.1 A 240.6,240.6 0 0 0 1559,836 l -3.3,-0.8 c 10,-28.5 40.9,-44.3 40.9,-44.3 -35.9,-33.7 -100,19.4 -100,19.4 -37,-35.7 17.4,-102.7 17.4,-102.7 -64.8,-29.4 -112.8,85.4 -112.8,85.4 -4.7,-56.4 -86.1,-64.9 -86.1,-64.9 27.1,29.7 13.6,82.9 13.6,82.9 -38.1,-37.3 -110.7,-2.4 -110.7,-2.4 29.7,2.9 48.9,15.7 60.8,28 l -3,0.8 a 240.6,240.6 0 0 0 -79,39 l -131,-81.2 c -23.3,-14.4 -52.1,7.3 -44.7,33.7 l 57.5,202.6 4.2,14.9 c -13.6,32.5 -24.1,61.9 -29.8,78.5 q -5.3,15.7 -12.1,30.8 c -40.9,107.2 -130.3,143.6 -160.1,153.1 a 3.1,3.1 0 0 0 0.1,6 c 20.6,5.7 72.8,17.4 111,-21 0,0 -37.3,51.7 -83.2,70.2 a 3.1,3.1 0 0 0 0.9,6.1 c 16.5,1.6 47.9,0.7 87.8,-18.6 0,0 -21.7,30.1 -40.8,44.4 a 3.2,3.2 0 0 0 2.3,5.7 c 15.5,-1.7 34.4,-5.1 45.5,-11.9 l 0.5,12.2 c 0.5,11.7 8.6,24.2 21.3,36.7 l -107,561 a 248.9,248.9 0 0 0 12.6,117.5 l -0.6,0.3 c -38.1,9.1 -130.4,43.4 -184.5,78.3 -26.5,17.1 -10.1,55.9 23.2,55.3 l 266.9,-5.2 q 6.8,4.1 13.8,7.9 l 0.2,3.4 c 0.4,23.3 -6.7,42.4 -29.9,43.6 -15.6,0.8 -28.2,9.9 -30.6,21.1 -4.7,21.5 5.8,38.9 27.2,40.4 l 84.3,5 c 26.4,1.6 51.9,-11.3 65.3,-34.1 a 71.4,71.4 0 0 0 8.8,-23.9 l 5,-26.6 h 533.6 l 3.5,20.7 a 71.6,71.6 0 0 0 43.1,54.3 53.5,53.5 0 0 0 22.3,4 l 91.8,-3 c 22,-2.2 30.1,-15.7 27.9,-36.9 -0.7,-6.9 -6.2,-24.5 -24.5,-25.5 -15.8,-0.9 -25.2,-8.6 -28.1,-21.9 a 246.8,246.8 0 0 0 65.4,-28.1 l 261.5,5.1 c 33.2,0.3 49.2,-37.8 23.1,-55.6 z" />
    </clipPath>
  </defs>
  <sodipodi:namedview
     pagecolor="#ffffff"
     bordercolor="#666666"
     borderopacity="1"
     objecttolerance="10"
     gridtolerance="10"
     guidetolerance="10"
     inkscape:pageopacity="0"
     inkscape:pageshadow="2"
     inkscape:window-width="1440"
     inkscape:window-height="829"
     id="namedview150"
     showgrid="false"
     inkscape:zoom="0.20363155"
     inkscape:cx="1690.2181"
     inkscape:cy="1305.8489"
     inkscape:window-x="0"
     inkscape:window-y="0"
     inkscape:window-maximized="0"
     inkscape:current-layer="g12667" />
  <g
     inkscape:groupmode="layer"
     id="layer16"
     inkscape:label="Tombstone">
    <g
       style=""
       id="g12667"
       transform="matrix(3.7795276,0,0,3.7795276,834.50596,513.24875)">
      <g
         style="display:inline"
         transform="translate(41.613614,136.88069)"
         id="layer1-4"
         inkscape:label="Tombstone">
        <rect
           ry="3.9906492"
           rx="4.9988632"
           y="305.05334"
           x="-37.871048"
           height="39.102962"
           width="325.22916"
           id="rect7341"
           style="opacity:0.54000005;fill:#e2e2e2;fill-opacity:1;stroke:#25345b;stroke-width:7.48513269;stroke-linecap:round;stroke-linejoin:round;stroke-miterlimit:4;stroke-dasharray:none;stroke-opacity:1" />
        <flowRoot
           transform="scale(0.26458333)"
           style="font-style:normal;font-weight:normal;font-size:40px;line-height:125%;font-family:sans-serif;letter-spacing:0px;word-spacing:0px;fill:#000000;fill-opacity:1;stroke:none;stroke-width:1px;stroke-linecap:butt;stroke-linejoin:miter;stroke-opacity:1"
           id="flowRoot7367"
           xml:space="preserve"><flowRegion
             id="flowRegion7369"><rect
               y="421.23819"
               x="339.04932"
               height="72.446434"
               width="36.223217"
               id="rect7371" /></flowRegion><flowPara
             id="flowPara7373" /></flowRoot>        <path
           sodipodi:nodetypes="ccscc"
           inkscape:connector-curvature="0"
           id="path7375"
           d="m -17.416365,301.60307 2.045466,-315.123851 c 0,0 3.051126,-120.775579 137.046229,-119.609069 143.17842,1.24646 145.22811,116.158805 145.22811,116.158805 l 0.1143,318.020555"
           style="fill:#e1e1e1;fill-opacity:0.95073888;fill-rule:evenodd;stroke:#959bac;stroke-width:7.48513269;stroke-linecap:butt;stroke-linejoin:miter;stroke-miterlimit:4;stroke-dasharray:none;stroke-opacity:1" />
      </g>
      <g
         transform="translate(41.613614,136.88069)"
         inkscape:label="Shading"
         id="layer14">
        <path
           sodipodi:nodetypes="ccscscc"
           inkscape:connector-curvature="0"
           id="path7392"
           d="m 20.78724,301.84091 0.964383,-323.519012 c 0,0 25.117611,-106.805538 107.090977,-106.805538 81.97341,0 112.83396,50.753361 112.83396,50.753361 0,0 20.76492,30.340305 21.97749,54.509883 0.86913,17.3241661 -0.1986,324.355136 -0.1986,324.355136 z"
           style="display:inline;fill:#b7b7b7;fill-opacity:1;fill-rule:evenodd;stroke:none;stroke-width:0.74851328px;stroke-linecap:butt;stroke-linejoin:miter;stroke-opacity:1" />
      </g>
      <g
         transform="translate(41.613614,136.88069)"
         inkscape:label="Damage"
         id="layer13">
        <path
           sodipodi:nodetypes="cccc"
           inkscape:connector-curvature="0"
           id="path7388"
           d="m 188.37208,235.97837 34.22466,-13.80102 14.31828,-28.75218 26.59107,-9.2007"
           style="fill:none;fill-rule:evenodd;stroke:#5d657a;stroke-width:7.48513269;stroke-linecap:round;stroke-linejoin:round;stroke-miterlimit:4;stroke-dasharray:none;stroke-opacity:1" />
        <path
           sodipodi:nodetypes="cccc"
           inkscape:connector-curvature="0"
           id="path7390"
           d="m 17.089773,-87.43173 8.685411,21.739119 27.964308,-2.317059 10.13469,21.682956"
           style="fill:none;fill-rule:evenodd;stroke:#5d657a;stroke-width:7.48513269;stroke-linecap:round;stroke-linejoin:round;stroke-miterlimit:4;stroke-dasharray:none;stroke-opacity:1" />
        <rect
           ry="0.44799286"
           rx="4.9988632"
           y="308.98987"
           x="5.5745468"
           height="32.452881"
           width="279.1694"
           id="rect7394"
           style="opacity:0.54000005;fill:#797979;fill-opacity:1;stroke:none;stroke-width:7.48513269;stroke-linecap:round;stroke-linejoin:round;stroke-miterlimit:4;stroke-dasharray:none;stroke-opacity:1" />
      </g>
      <g
         transform="translate(41.613614,136.88069)"
         inkscape:label="Text"
         id="layer12">
        <text
           transform="scale(0.80397323,1.2438225)"
           id="text7357"
           y="87.764412"
           x="25.287067"
           style="font-style:normal;font-variant:normal;font-weight:normal;font-stretch:normal;font-size:46.72840118px;line-height:125%;font-family:'Arial Rounded MT Bold';-inkscape-font-specification:'Arial Rounded MT Bold, ';letter-spacing:0px;word-spacing:0px;fill:#25345b;fill-opacity:0.54117647;stroke:none;stroke-width:1.16820979px;stroke-linecap:butt;stroke-linejoin:miter;stroke-opacity:1"
           xml:space="preserve"><tspan
             style="font-style:normal;font-variant:normal;font-weight:normal;font-stretch:normal;font-size:112.14816284px;line-height:100.40000677%;font-family:'Arial Rounded MT Bold';-inkscape-font-specification:'Arial Rounded MT Bold, ';letter-spacing:0.67468745px;fill:#25345b;fill-opacity:0.54117647;stroke:none;stroke-width:1.16820979px;stroke-opacity:1"
             y="87.764412"
             x="25.287067"
             id="tspan7355"
             sodipodi:role="line">R I P</tspan></text>
      </g>
    </g>
  </g>
</svg>
