<?xml version="1.0" encoding="UTF-8" standalone="no"?>
<svg
   xmlns:dc="http://purl.org/dc/elements/1.1/"
   xmlns:cc="http://creativecommons.org/ns#"
   xmlns:rdf="http://www.w3.org/1999/02/22-rdf-syntax-ns#"
   xmlns:svg="http://www.w3.org/2000/svg"
   xmlns="http://www.w3.org/2000/svg"
   xmlns:xlink="http://www.w3.org/1999/xlink"
   xmlns:sodipodi="http://sodipodi.sourceforge.net/DTD/sodipodi-0.dtd"
   xmlns:inkscape="http://www.inkscape.org/namespaces/inkscape"
   viewBox="0 0 3000 3000"
   version="1.1"
   id="svg4172"
   sodipodi:docname="head_bandage.svg"
   inkscape:version="0.92.2 5c3e80d, 2017-08-06">
  <metadata
     id="metadata4178">
    <rdf:RDF>
      <cc:Work
         rdf:about="">
        <dc:format>image/svg+xml</dc:format>
        <dc:type
           rdf:resource="http://purl.org/dc/dcmitype/StillImage" />
        <dc:title />
      </cc:Work>
    </rdf:RDF>
  </metadata>
  <defs
     id="defs4176">
    <marker
       inkscape:stockid="Arrow1Lstart"
       orient="auto"
       refY="0.0"
       refX="0.0"
       id="Arrow1Lstart"
       style="overflow:visible"
       inkscape:isstock="true">
      <path
         id="path4997"
         d="M 0.0,0.0 L 5.0,-5.0 L -12.5,0.0 L 5.0,5.0 L 0.0,0.0 z "
         style="fill-rule:evenodd;stroke:#000000;stroke-width:1pt;stroke-opacity:1;fill:#000000;fill-opacity:1"
         transform="scale(0.8) translate(12.5,0)" />
    </marker>
  </defs>
  <sodipodi:namedview
     pagecolor="#ffffff"
     bordercolor="#666666"
     borderopacity="1"
     objecttolerance="10"
     gridtolerance="10"
     guidetolerance="10"
     inkscape:pageopacity="0"
     inkscape:pageshadow="2"
     inkscape:window-width="1440"
     inkscape:window-height="798"
     id="namedview4174"
     showgrid="false"
     inkscape:zoom="0.31376946"
     inkscape:cx="537.9055"
     inkscape:cy="1445.0909"
     inkscape:window-x="-1"
     inkscape:window-y="0"
     inkscape:window-maximized="0"
     inkscape:current-layer="layer4" />
  <g
     inkscape:groupmode="layer"
     id="layer5"
     inkscape:label="Background"
     style="display:inline"
     sodipodi:insensitive="true" />
  <g
     inkscape:groupmode="layer"
     id="layer3"
     inkscape:label="Kitty"
     style="display:none">
    <g
       id="tailFur">
      <clipPath
         id="tailFurClipPath">
        <path
           d="m 1942.6,1959.2 c 69,30 162.4,39.9 162.4,39.9 0,0 347.1,45 398.6,-246 19.5,-161.9 -177.1,-195.4 -177.1,-195.4 0,0 91.8,-36.7 124.7,-7 0,0 -18.5,-30.3 -46.3,-32.7 0,0 118.2,-79.9 213.3,102.6 0,0 -12.3,-93 -50.5,-111.6 0,0 142.5,32.6 167.6,241.5 0,0 26.3,-41.6 23.4,-76.4 0,0 67.9,99.8 -7.3,214.7 0,0 58.9,-56.3 63.7,-86.5 0,0 73.9,212.1 -151.5,244.1 0,0 61.2,22.9 101.8,3.3 0,0 -39.1,85.3 -165.9,74.3 0,0 61.7,42.1 99.3,33.5 0,0 -93.2,47.7 -251.3,13.2 0,0 53.6,49.5 93.2,50.5 l -10.5,2.6 a 635.5,635.5 0 0 1 -345.6,-16.1 l -151,-50.4 -90.9,-37.1 v -161 z"
           id="path3984"
           inkscape:connector-curvature="0"
           style="fill:none;stroke:#31323d;stroke-width:12.5;stroke-linecap:round;stroke-linejoin:round" />
      </clipPath>
      <g
         clip-path="url(#tailFurClipPath)"
         id="g3989">
        <path
           d="m 1904,1437.5 h 939 v 808.41 h -939 z"
           id="path3987"
           inkscape:connector-curvature="0"
           style="fill:#ecd1eb" />
      </g>
      <g
         id="tailShadow">
        <defs
           id="defs4018">
          <clipPath
             id="tailShadowClipPath">
            <path
               d="m 1942.6,1959.2 c 69,30 162.4,39.9 162.4,39.9 0,0 347.1,45 398.6,-246 19.5,-161.9 -177.1,-195.4 -177.1,-195.4 0,0 91.8,-36.7 124.7,-7 0,0 -18.5,-30.3 -46.3,-32.7 0,0 118.2,-79.9 213.3,102.6 0,0 -12.3,-93 -50.5,-111.6 0,0 142.5,32.6 167.6,241.5 0,0 26.3,-41.6 23.4,-76.4 0,0 67.9,99.8 -7.3,214.7 0,0 58.9,-56.3 63.7,-86.5 0,0 73.9,212.1 -151.5,244.1 0,0 61.2,22.9 101.8,3.3 0,0 -39.1,85.3 -165.9,74.3 0,0 61.7,42.1 99.3,33.5 0,0 -93.2,47.7 -251.3,13.2 0,0 53.6,49.5 93.2,50.5 l -10.5,2.6 a 635.5,635.5 0 0 1 -345.6,-16.1 l -151,-50.4 -90.9,-37.1 v -161 z"
               id="path3991"
               inkscape:connector-curvature="0"
               style="fill:none" />
          </clipPath>
          <linearGradient
             id="tailShadowGradient"
             x1="2504.5601"
             x2="2504.5601"
             y1="1680.75"
             y2="1448.67"
             gradientUnits="userSpaceOnUse">
            <stop
               offset="0"
               stop-color="#fff"
               stop-opacity="0"
               id="stop3994" />
            <stop
               offset=".72"
               stop-color="#fff"
               id="stop3996" />
          </linearGradient>
          <linearGradient
             id="tailShadowGradient2"
             x1="1665.26"
             x2="2549.1001"
             y1="2120.22"
             y2="2120.22"
             gradientUnits="userSpaceOnUse">
            <stop
               offset="0"
               stop-color="gray"
               id="stop3999" />
            <stop
               offset=".27"
               stop-color="#7d7d7d"
               id="stop4001" />
            <stop
               offset=".46"
               stop-color="#747474"
               id="stop4003" />
            <stop
               offset=".64"
               stop-color="#646464"
               id="stop4005" />
            <stop
               offset=".8"
               stop-color="#4d4d4d"
               id="stop4007" />
            <stop
               offset=".95"
               stop-color="#303030"
               id="stop4009" />
            <stop
               offset="1"
               stop-color="#242424"
               id="stop4011" />
          </linearGradient>
          <linearGradient
             id="tailShadowGradient3"
             x1="2662.04"
             x2="2662.04"
             y1="1826.3199"
             y2="1468.7"
             href="#tailShadowGradient"
             xlink:href="#tailShadowGradient" />
          <linearGradient
             id="tailShadowGradient4"
             x1="2751.27"
             x2="2751.27"
             y1="1935.67"
             y2="1592.0601"
             href="#tailShadowGradient"
             xlink:href="#tailShadowGradient" />
          <linearGradient
             id="tailShadowGradient5"
             x1="2518.8601"
             x2="2807.7"
             y1="2094.95"
             y2="2094.95"
             href="#tailShadowGradient2"
             xlink:href="#tailShadowGradient2" />
          <linearGradient
             id="tailShadowGradient6"
             x1="2408.1201"
             x2="2697.5901"
             y1="2162.1499"
             y2="2162.1499"
             href="#tailShadowGradient2"
             xlink:href="#tailShadowGradient2" />
        </defs>
        <g
           style="isolation:isolate"
           id="g4038">
          <path
             d="M 3000,3010 0,3000 V 0 l 3000,10 v 3000"
             id="path4020"
             inkscape:connector-curvature="0"
             style="fill:none" />
          <path
             d="M 3000,3010 0,3000 V 0 l 3000,10 v 3000"
             id="path4022"
             inkscape:connector-curvature="0"
             style="fill:none" />
          <g
             clip-path="url(#tailShadowClipPath)"
             data-name="TAIL 02"
             id="g4036">
            <path
               d="m 2413.6,1500.9 c 82.9,31.3 151.8,98 185.8,179.8 7.6,-39.8 7.4,-81.7 -5,-120.3 -12.4,-38.6 -37.8,-73.7 -73,-93.9 -35.2,-20.2 -80.2,-24.3 -116.8,-6.8"
               style="opacity:0.5;mix-blend-mode:overlay;fill:url(#tailShadowGradient)"
               id="path4024"
               inkscape:connector-curvature="0" />
            <path
               d="m 2581.6,1513.1 c 86.1,76.2 125.5,201.4 98.7,313.2 49.5,-46 69.9,-118.6 59.7,-185.4 -10.2,-66.8 -48.5,-127.4 -99.1,-172.2"
               style="opacity:0.5;mix-blend-mode:overlay;fill:url(#tailShadowGradient3)"
               id="path4026"
               inkscape:connector-curvature="0" />
            <path
               d="m 2756.9,1685.6 c 7.8,87.6 -16,177.7 -66,250.1 63.9,-20.6 108,-84 118,-150.4 10,-66.4 -9.7,-134.4 -41.9,-193.3"
               style="opacity:0.5;mix-blend-mode:overlay;fill:url(#tailShadowGradient4)"
               id="path4028"
               inkscape:connector-curvature="0" />
            <path
               d="m 2042,1944.9 c 13.2,65.6 41.6,120.5 90.7,149.8 128.8,76.8 266.9,119.3 416.4,131.2 0.7,41.4 -25.3,79.9 -59.4,103.5 -34.1,23.6 -75.3,34.3 -116.1,41.5 -194.7,34.1 -402.2,-7.1 -567.5,-115.6 -56.1,-36.8 -109.5,-84.1 -131.1,-147.6 -20.8,-61.3 -7.3,-133.1 34.4,-182.6 41.7,-49.5 110.1,-75.1 174.1,-64.9"
               style="opacity:0.25;mix-blend-mode:multiply;fill:url(#tailShadowGradient2)"
               id="path4030"
               inkscape:connector-curvature="0" />
            <path
               d="m 2753.1,2055.2 c -71.1,38 -158.6,44.1 -234.2,16.3 9.3,20.4 27.2,35.9 46.9,46.4 19.7,10.5 41.6,16.6 63.2,22.4 28.7,7.7 58,15.1 87.7,13.7 29.7,-1.4 60.3,-13 77.9,-36.9 17.6,-23.9 18.3,-61.1 -3.5,-81.3"
               style="opacity:0.25;mix-blend-mode:multiply;fill:url(#tailShadowGradient5)"
               id="path4032"
               inkscape:connector-curvature="0" />
            <path
               d="m 2672.3,2157.6 c -91.9,11.2 -187.6,-11.9 -264.2,-63.8 7.8,45.4 43.4,81.8 83.4,104.6 52.2,29.8 116.2,41.3 173.8,24.1 13.9,-4.2 29,-11.8 32.3,-25.9"
               style="opacity:0.25;mix-blend-mode:multiply;fill:url(#tailShadowGradient6)"
               id="path4034"
               inkscape:connector-curvature="0" />
          </g>
        </g>
      </g>
    </g>
    <g
       id="tail">
      <path
         d="m 1942.6,1959.2 c 69,30 162.4,39.9 162.4,39.9 0,0 347.1,45 398.6,-246 19.5,-161.9 -177.1,-195.4 -177.1,-195.4 0,0 91.8,-36.7 124.7,-7 0,0 -18.5,-30.3 -46.3,-32.7 0,0 118.2,-79.9 213.3,102.6 0,0 -12.3,-93 -50.5,-111.6 0,0 142.5,32.6 167.6,241.5 0,0 26.3,-41.6 23.4,-76.4 0,0 67.9,99.8 -7.3,214.7 0,0 58.9,-56.3 63.7,-86.5 0,0 73.9,212.1 -151.5,244.1 0,0 61.2,22.9 101.8,3.3 0,0 -39.1,85.3 -165.9,74.3 0,0 61.7,42.1 99.3,33.5 0,0 -93.2,47.7 -251.3,13.2 0,0 53.6,49.5 93.2,50.5 l -10.5,2.6 a 635.5,635.5 0 0 1 -345.6,-16.1 l -151,-50.4 -90.9,-37.1 v -161 z"
         data-name="TAIL 02"
         id="path4042"
         inkscape:connector-curvature="0"
         style="fill:none;stroke:#31323d;stroke-width:12.5;stroke-linecap:round;stroke-linejoin:round" />
    </g>
    <g
       id="bodyFur">
      <clipPath
         id="furClipPath">
        <path
           d="m 2200.5,2195.7 c -43,-29.4 -132.4,-61.7 -179.8,-75.5 l -0.8,-0.3 a 248.1,248.1 0 0 0 6.4,-155.8 l -174.8,-568.6 c 14.6,-15.2 23.3,-25.6 23.3,-25.6 42.4,27.2 109.7,-3.5 137.1,-18.2 a 3.1,3.1 0 0 0 -1.5,-5.9 c -53.6,0 -129.9,-41.6 -129.9,-41.6 60.7,16.1 84,-1.1 91.8,-10.5 a 3.1,3.1 0 0 0 -2.3,-5.2 c -19.6,-0.9 -86,-12.3 -134.4,-122.4 -6.6,-15.1 -13.6,-30 -21.2,-44.7 -14.6,-28.2 -38.8,-72.8 -66.6,-117.1 l 1.3,-7.1 50,-205.4 c 6.6,-27.3 -24.5,-47.9 -47,-31.2 l -131.2,97.4 -2.1,2.6 -4.9,-3.1 A 240.6,240.6 0 0 0 1559,836 l -3.3,-0.8 c 10,-28.5 40.9,-44.3 40.9,-44.3 -35.9,-33.7 -100,19.4 -100,19.4 -37,-35.7 17.4,-102.7 17.4,-102.7 -64.8,-29.4 -112.8,85.4 -112.8,85.4 -4.7,-56.4 -86.1,-64.9 -86.1,-64.9 27.1,29.7 13.6,82.9 13.6,82.9 -38.1,-37.3 -110.7,-2.4 -110.7,-2.4 29.7,2.9 48.9,15.7 60.8,28 l -3,0.8 a 240.6,240.6 0 0 0 -79,39 l -131,-81.2 c -23.3,-14.4 -52.1,7.3 -44.7,33.7 l 57.5,202.6 4.2,14.9 c -13.6,32.5 -24.1,61.9 -29.8,78.5 q -5.3,15.7 -12.1,30.8 c -40.9,107.2 -130.3,143.6 -160.1,153.1 a 3.1,3.1 0 0 0 0.1,6 c 20.6,5.7 72.8,17.4 111,-21 0,0 -37.3,51.7 -83.2,70.2 a 3.1,3.1 0 0 0 0.9,6.1 c 16.5,1.6 47.9,0.7 87.8,-18.6 0,0 -21.7,30.1 -40.8,44.4 a 3.2,3.2 0 0 0 2.3,5.7 c 15.5,-1.7 34.4,-5.1 45.5,-11.9 l 0.5,12.2 c 0.5,11.7 8.6,24.2 21.3,36.7 l -107,561 a 248.9,248.9 0 0 0 12.6,117.5 l -0.6,0.3 c -38.1,9.1 -130.4,43.4 -184.5,78.3 -26.5,17.1 -10.1,55.9 23.2,55.3 l 266.9,-5.2 q 6.8,4.1 13.8,7.9 l 0.2,3.4 c 0.4,23.3 -6.7,42.4 -29.9,43.6 -15.6,0.8 -28.2,9.9 -30.6,21.1 -4.7,21.5 5.8,38.9 27.2,40.4 l 84.3,5 c 26.4,1.6 51.9,-11.3 65.3,-34.1 a 71.4,71.4 0 0 0 8.8,-23.9 l 5,-26.6 h 533.6 l 3.5,20.7 a 71.6,71.6 0 0 0 43.1,54.3 53.5,53.5 0 0 0 22.3,4 l 91.8,-3 c 22,-2.2 30.1,-15.7 27.9,-36.9 -0.7,-6.9 -6.2,-24.5 -24.5,-25.5 -15.8,-0.9 -25.2,-8.6 -28.1,-21.9 a 246.8,246.8 0 0 0 65.4,-28.1 l 261.5,5.1 c 33.2,0.3 49.2,-37.8 23.1,-55.6 z"
           id="path4045"
           inkscape:connector-curvature="0"
           style="fill:none" />
      </clipPath>
      <g
         clip-path="url(#furClipPath)"
         id="g4052">
        <path
           d="M 724.1,566.5 H 2244.6 V 2441.3 H 724.1 Z"
           id="path4048"
           inkscape:connector-curvature="0"
           style="fill:#ecd1eb" />
        <path
           d="m 1181.5,2294.7 c -5.6,-14.6 3.2,-56.8 20.7,-141.2 10.5,-50.5 18.8,-83.4 24,-105 38.8,-161.9 16.1,-179.6 50,-276 23.1,-65.9 47.1,-131.2 111,-162 7.6,-3.7 65.9,-30.7 125,-7 59.1,23.7 81.2,80.6 105.3,141.9 29.1,74.1 20,99.7 53,285.3 6.9,38.6 13.7,77.2 20.6,115.8 4.1,22.7 8,45.3 12,68 9.4,53.2 9.6,54.1 9.4,56.2 -9.7,78.5 -486.6,140.6 -531,24 z"
           id="path4050"
           inkscape:connector-curvature="0"
           style="fill:#f9cfad" />
      </g>
    </g>
    <g
       id="shadow">
      <defs
         id="defs4072">
        <clipPath
           id="shadowClipPath">
          <path
             d="m 2200.5,2195.7 c -43,-29.4 -132.4,-61.7 -179.8,-75.5 l -0.8,-0.3 a 248.1,248.1 0 0 0 6.4,-155.8 l -174.8,-568.6 c 14.6,-15.2 23.3,-25.6 23.3,-25.6 42.4,27.2 109.7,-3.5 137.1,-18.2 a 3.1,3.1 0 0 0 -1.5,-5.9 c -53.6,0 -129.9,-41.6 -129.9,-41.6 60.7,16.1 84,-1.1 91.8,-10.5 a 3.1,3.1 0 0 0 -2.3,-5.2 c -19.6,-0.9 -86,-12.3 -134.4,-122.4 -6.6,-15.1 -13.6,-30 -21.2,-44.7 -14.6,-28.2 -38.8,-72.8 -66.6,-117.1 l 1.3,-7.1 50,-205.4 c 6.6,-27.3 -24.5,-47.9 -47,-31.2 l -131.2,97.4 -2.1,2.6 -4.9,-3.1 A 240.6,240.6 0 0 0 1559,836 l -3.3,-0.8 c 10,-28.5 40.9,-44.3 40.9,-44.3 -35.9,-33.7 -100,19.4 -100,19.4 -37,-35.7 17.4,-102.7 17.4,-102.7 -64.8,-29.4 -112.8,85.4 -112.8,85.4 -4.7,-56.4 -86.1,-64.9 -86.1,-64.9 27.1,29.7 13.6,82.9 13.6,82.9 -38.1,-37.3 -110.7,-2.4 -110.7,-2.4 29.7,2.9 48.9,15.7 60.8,28 l -3,0.8 a 240.6,240.6 0 0 0 -79,39 l -131,-81.2 c -23.3,-14.4 -52.1,7.3 -44.7,33.7 l 57.5,202.6 4.2,14.9 c -13.6,32.5 -24.1,61.9 -29.8,78.5 q -5.3,15.7 -12.1,30.8 c -40.9,107.2 -130.3,143.6 -160.1,153.1 a 3.1,3.1 0 0 0 0.1,6 c 20.6,5.7 72.8,17.4 111,-21 0,0 -37.3,51.7 -83.2,70.2 a 3.1,3.1 0 0 0 0.9,6.1 c 16.5,1.6 47.9,0.7 87.8,-18.6 0,0 -21.7,30.1 -40.8,44.4 a 3.2,3.2 0 0 0 2.3,5.7 c 15.5,-1.7 34.4,-5.1 45.5,-11.9 l 0.5,12.2 c 0.5,11.7 8.6,24.2 21.3,36.7 l -107,561 a 248.9,248.9 0 0 0 12.6,117.5 l -0.6,0.3 c -38.1,9.1 -130.4,43.4 -184.5,78.3 -26.5,17.1 -10.1,55.9 23.2,55.3 l 266.9,-5.2 q 6.8,4.1 13.8,7.9 l 0.2,3.4 c 0.4,23.3 -6.7,42.4 -29.9,43.6 -15.6,0.8 -28.2,9.9 -30.6,21.1 -4.7,21.5 5.8,38.9 27.2,40.4 l 84.3,5 c 26.4,1.6 51.9,-11.3 65.3,-34.1 a 71.4,71.4 0 0 0 8.8,-23.9 l 5,-26.6 h 533.6 l 3.5,20.7 a 71.6,71.6 0 0 0 43.1,54.3 53.5,53.5 0 0 0 22.3,4 l 91.8,-3 c 22,-2.2 30.1,-15.7 27.9,-36.9 -0.7,-6.9 -6.2,-24.5 -24.5,-25.5 -15.8,-0.9 -25.2,-8.6 -28.1,-21.9 a 246.8,246.8 0 0 0 65.4,-28.1 l 261.5,5.1 c 33.2,0.3 49.2,-37.8 23.1,-55.6 z"
             data-name="&lt;Clipping Path&gt;"
             id="path4055"
             inkscape:connector-curvature="0"
             style="fill:none" />
        </clipPath>
        <linearGradient
           id="shadowLinearGradient"
           x1="1721.47"
           x2="1721.47"
           y1="787.59998"
           y2="997.23999"
           gradientUnits="userSpaceOnUse">
          <stop
             offset="0"
             stop-color="gray"
             id="stop4058" />
          <stop
             offset=".14"
             stop-color="#797979"
             id="stop4060" />
          <stop
             offset=".35"
             stop-color="#646464"
             id="stop4062" />
          <stop
             offset=".6"
             stop-color="#434343"
             id="stop4064" />
          <stop
             offset=".89"
             stop-color="#141414"
             id="stop4066" />
          <stop
             offset="1"
             id="stop4068" />
        </linearGradient>
        <linearGradient
           id="shadowLinearGradient2"
           x1="1027.09"
           x2="1148.15"
           y1="929.63"
           y2="929.63"
           href="#shadowLinearGradient"
           xlink:href="#shadowLinearGradient" />
      </defs>
      <g
         style="isolation:isolate"
         id="g4086">
        <g
           clip-path="url(#shadowClipPath)"
           id="g4084">
          <path
             d="m 1295.7,862.1 c -81.5,23.6 -145.1,108.7 -182.2,237.3 -10.9,34.2 -64.7,207.5 -62.8,270.3 2.1,68.6 38.2,109 31.7,109 -6.5,0 -19.7,-15.8 -21.9,-9.9 -7.1,19.3 -15.4,78.7 -15.5,79.1 -20.1,133.2 -33.5,328 -39.9,378.8 a 910.2,910.2 0 0 0 -6.8,98.4 v 3.4 c 23.5,26 47.6,88.8 52.6,176.8 l 1.3,49 c 0,0 -31.3,-0.8 -81,-0.8 -62,0 -110.8,-111.7 -79.2,-278.2 28.4,-149.5 -68,-915.5 -68,-915.5 l 282.1,-44.3 c 0,0 25.1,-136.1 172.6,-178.9 z"
             style="opacity:0.2;mix-blend-mode:multiply;fill:#7f7f7f"
             id="path4074"
             inkscape:connector-curvature="0" />
          <path
             d="m 1796.7,801.2 c 0,0 -17.5,-43.2 -81.6,24.2 -33.7,40.5 -68.9,54 -68.9,54 L 1749,997.2 Z"
             style="opacity:0.4;mix-blend-mode:multiply;fill:url(#shadowLinearGradient)"
             id="path4076"
             inkscape:connector-curvature="0" />
          <path
             d="m 1027.9,853.3 c 0,0 -9.4,-38.9 34.7,-20.8 18.5,7.6 50.7,40.6 63.5,56 l 22,35 -69.6,108.1 z"
             style="opacity:0.4;mix-blend-mode:multiply;fill:url(#shadowLinearGradient)"
             id="path4078"
             inkscape:connector-curvature="0" />
          <path
             d="m 1226.5,2040.4 c -24.3,147.7 54.3,178.3 68.5,181.6 86.5,15.5 223.8,8.8 268.5,-7 41.8,-14.8 129.9,-58.5 108,-189.5 l 43,256.8 h -533.6 z"
             style="opacity:0.15;mix-blend-mode:multiply;fill:#7f7f7f"
             id="path4080"
             inkscape:connector-curvature="0" />
          <path
             d="m 1854.3,2157.4 c 0,0 29.9,-91.4 66.3,-124.9 -39.4,75 14.1,92.7 28.1,87.7 53.7,-19.2 75,-66.7 79.2,-150 l 65.3,116.3 c 0,0 -55,256 -204,214 l -38.7,-18.1 z"
             style="opacity:0.2;mix-blend-mode:multiply;fill:#7f7f7f"
             id="path4082"
             inkscape:connector-curvature="0" />
        </g>
      </g>
    </g>
    <g
       id="highlight">
      <defs
         id="defs4098">
        <clipPath
           id="highlightClipPath">
          <path
             d="m 2200.5,2195.7 c -43,-29.4 -132.4,-61.7 -179.8,-75.5 l -0.8,-0.3 a 248.1,248.1 0 0 0 6.4,-155.8 l -174.8,-568.6 c 14.6,-15.2 23.3,-25.6 23.3,-25.6 42.4,27.2 109.7,-3.5 137.1,-18.2 a 3.1,3.1 0 0 0 -1.5,-5.9 c -53.6,0 -129.9,-41.6 -129.9,-41.6 60.7,16.1 84,-1.1 91.8,-10.5 a 3.1,3.1 0 0 0 -2.3,-5.2 c -19.6,-0.9 -86,-12.3 -134.4,-122.4 -6.6,-15.1 -13.6,-30 -21.2,-44.7 -14.6,-28.2 -38.8,-72.8 -66.6,-117.1 l 1.3,-7.1 50,-205.4 c 6.6,-27.3 -24.5,-47.9 -47,-31.2 l -131.2,97.4 -2.1,2.6 -4.9,-3.1 A 240.6,240.6 0 0 0 1559,836 l -3.3,-0.8 c 10,-28.5 40.9,-44.3 40.9,-44.3 -35.9,-33.7 -100,19.4 -100,19.4 -37,-35.7 17.4,-102.7 17.4,-102.7 -64.8,-29.4 -112.8,85.4 -112.8,85.4 -4.7,-56.4 -86.1,-64.9 -86.1,-64.9 27.1,29.7 13.6,82.9 13.6,82.9 -38.1,-37.3 -110.7,-2.4 -110.7,-2.4 29.7,2.9 48.9,15.7 60.8,28 l -3,0.8 a 240.6,240.6 0 0 0 -79,39 l -131,-81.2 c -23.3,-14.4 -52.1,7.3 -44.7,33.7 l 57.5,202.6 4.2,14.9 c -13.6,32.5 -24.1,61.9 -29.8,78.5 q -5.3,15.7 -12.1,30.8 c -40.9,107.2 -130.3,143.6 -160.1,153.1 a 3.1,3.1 0 0 0 0.1,6 c 20.6,5.7 72.8,17.4 111,-21 0,0 -37.3,51.7 -83.2,70.2 a 3.1,3.1 0 0 0 0.9,6.1 c 16.5,1.6 47.9,0.7 87.8,-18.6 0,0 -21.7,30.1 -40.8,44.4 a 3.2,3.2 0 0 0 2.3,5.7 c 15.5,-1.7 34.4,-5.1 45.5,-11.9 l 0.5,12.2 c 0.5,11.7 8.6,24.2 21.3,36.7 l -107,561 a 248.9,248.9 0 0 0 12.6,117.5 l -0.6,0.3 c -38.1,9.1 -130.4,43.4 -184.5,78.3 -26.5,17.1 -10.1,55.9 23.2,55.3 l 266.9,-5.2 q 6.8,4.1 13.8,7.9 l 0.2,3.4 c 0.4,23.3 -6.7,42.4 -29.9,43.6 -15.6,0.8 -28.2,9.9 -30.6,21.1 -4.7,21.5 5.8,38.9 27.2,40.4 l 84.3,5 c 26.4,1.6 51.9,-11.3 65.3,-34.1 a 71.4,71.4 0 0 0 8.8,-23.9 l 5,-26.6 h 533.6 l 3.5,20.7 a 71.6,71.6 0 0 0 43.1,54.3 53.5,53.5 0 0 0 22.3,4 l 91.8,-3 c 22,-2.2 30.1,-15.7 27.9,-36.9 -0.7,-6.9 -6.2,-24.5 -24.5,-25.5 -15.8,-0.9 -25.2,-8.6 -28.1,-21.9 a 246.8,246.8 0 0 0 65.4,-28.1 l 261.5,5.1 c 33.2,0.3 49.2,-37.8 23.1,-55.6 z"
             data-name="&lt;Clipping Path&gt;"
             id="path4089"
             inkscape:connector-curvature="0"
             style="fill:none" />
        </clipPath>
        <linearGradient
           id="linearGradient4096"
           x1="1847.36"
           x2="1847.36"
           y1="2256.3899"
           y2="835.25"
           gradientUnits="userSpaceOnUse">
          <stop
             offset="0"
             stop-color="#fff"
             stop-opacity="0"
             id="stop4092" />
          <stop
             offset=".72"
             stop-color="#fff"
             id="stop4094" />
        </linearGradient>
      </defs>
      <g
         style="isolation:isolate"
         id="g4104">
        <g
           clip-path="url(#highlightClipPath)"
           id="g4102">
          <path
             style="opacity:0.2;mix-blend-mode:overlay;fill:url(#highlightClipPath)"
             d="m 1552.5,855.4 c 0,0 54.3,14.8 76.3,46.1 22,31.3 43.9,85.7 88.3,172 31.9,62 96.1,159.9 110,258.3 6.3,56.9 -35,111.1 -41.4,123.5 1.1,3.4 35.2,-31.9 36.4,-28.5 65.5,192.8 120.8,423.9 147.8,543.6 46.1,204.7 -81.2,286 -81.2,286 l 61.1,-35.5 c 0,0 63,-74.8 72.5,-107.6 20.8,-71.9 139,-33 117.2,-147.7 -31.7,-166.5 -227.9,-1014.4 -227.9,-1014.4 0,0 -117.4,96.2 -162.6,46.1 -21.6,-24 -56.5,-63.8 -66.3,-81.3 -20.7,-36.8 -76.1,-65.4 -127.1,-80.7 z"
             id="path4100"
             inkscape:connector-curvature="0" />
        </g>
      </g>
    </g>
    <g
       id="body">
      <path
         stroke-miterlimit="10"
         d="M 1620.8,858.1 1752,760.7 c 22.5,-16.7 53.7,3.9 47,31.2 l -50,205.4 -1.3,7.1 m -550.9,-127.9 -131,-81.2 c -23.3,-14.4 -52.1,7.3 -44.7,33.7 l 57.5,202.6 4.2,14.9"
         id="path4107"
         inkscape:connector-curvature="0"
         style="fill:none;stroke:#31323d;stroke-width:12.5;stroke-linecap:round;stroke-miterlimit:10" />
      <path
         stroke-miterlimit="10"
         d="M 1714.5,2282.4 H 1180.9"
         id="path4109"
         inkscape:connector-curvature="0"
         style="fill:#ffffff;stroke:#31323d;stroke-width:12.5;stroke-linecap:round;stroke-miterlimit:10" />
      <path
         stroke-miterlimit="10"
         d="m 1851.5,1395.4 174.8,568.6 c 39,137.9 -45.2,275 -175.8,309.9 m -799.8,-20.2 C 961.5,2206.6 905,2107.5 919.2,1999.6 l 106.3,-558.8"
         id="path4111"
         inkscape:connector-curvature="0"
         style="fill:none;stroke:#31323d;stroke-width:12.5;stroke-linecap:round;stroke-miterlimit:10" />
      <path
         d="m 1228.6,2040.8 c -1.7,15.3 -3.8,30.4 -6,45.6 l -3.5,22.7 -3.8,22.6 c -2.6,15.1 -5.4,30.1 -8.1,45.2 l -8.3,45.1 -16.6,90.3 a 76.3,76.3 0 0 1 -3.5,12.1 77.5,77.5 0 0 1 -5.4,11.4 75.5,75.5 0 0 1 -16,19.4 78.7,78.7 0 0 1 -45.9,18.8 l -6.3,0.2 h -6.1 l -11.5,-0.7 -22.9,-1.3 -45.8,-2.8 h -4.7 l -1.8,-0.3 a 44.1,44.1 0 0 1 -6.7,-1.7 35.7,35.7 0 0 1 -12.3,-7.3 34.7,34.7 0 0 1 -8.3,-11.7 40.4,40.4 0 0 1 -3.1,-13.5 50.7,50.7 0 0 1 1,-13.2 l 0.2,-0.8 v -1.7 l 0.3,-1.1 a 26.9,26.9 0 0 1 1.5,-3.6 30.2,30.2 0 0 1 4.1,-6.2 37.9,37.9 0 0 1 11,-8.8 45.9,45.9 0 0 1 12.7,-4.5 49,49 0 0 1 6.6,-0.9 l 2.7,-0.2 2.1,-0.3 a 22,22 0 0 0 4.3,-1.2 18.5,18.5 0 0 0 3.8,-1.9 c 4.6,-3 7.7,-8.4 9.4,-14.8 a 70.5,70.5 0 0 0 1.8,-20.8 l -0.9,-22.9 -1.9,-45.9 c -0.6,-15.3 -1.3,-30.6 -1.8,-45.9 v 0.5 c -0.6,-5 -1.3,-9.9 -2,-14.9 -0.4,-2.5 -0.8,-4.9 -1.2,-7.4 -0.4,-2.5 -0.9,-4.9 -1.4,-7.3 -0.5,-2.4 -1,-4.9 -1.6,-7.3 l -1.8,-7.2 q -1.9,-7.2 -4.4,-14.2 c -0.8,-2.3 -1.7,-4.6 -2.6,-6.9 -0.9,-2.3 -1.8,-4.6 -2.9,-6.8 l -1.5,-3.4 -1.6,-3.3 -1.7,-3.3 -1.8,-3.3 -1.8,-3.2 -1.9,-3.2 -4,-6.3 c -1.4,-2.1 -2.8,-4.1 -4.3,-6.2 l -2.2,-3 -2.3,-3 a 2.2343903,2.2343903 0 0 1 3.4,-2.9 l 5.4,5.6 q 2.6,2.9 5.1,5.9 c 1.7,2 3.3,4 4.8,6.1 l 2.3,3.2 2.2,3.2 c 1.5,2.2 2.9,4.3 4.2,6.6 l 2,3.4 1.9,3.4 q 1.9,3.4 3.5,7 c 1.1,2.4 2.2,4.7 3.2,7.2 q 3,7.2 5.4,14.7 c 1.6,5 3,10 4.2,15 q 0.9,3.8 1.7,7.6 c 0.5,2.5 1.1,5.1 1.5,7.6 0.9,5.1 1.7,10.2 2.4,15.3 v 0.5 c 0.9,15.3 1.6,30.6 2.4,45.8 l 2.3,45.8 1.1,22.9 a 94.4,94.4 0 0 1 -0.1,12.3 71.8,71.8 0 0 1 -1.9,12.5 54.5,54.5 0 0 1 -2,6.3 42.8,42.8 0 0 1 -3.1,6.2 33.3,33.3 0 0 1 -9.8,10.4 35.1,35.1 0 0 1 -13.2,5.3 l -3.5,0.5 -3,0.2 a 35,35 0 0 0 -4.7,0.6 31.9,31.9 0 0 0 -8.8,3.2 23.9,23.9 0 0 0 -6.9,5.5 16.1,16.1 0 0 0 -2.2,3.3 13,13 0 0 0 -1.2,3.7 36.6,36.6 0 0 0 -0.7,9.6 26.2,26.2 0 0 0 2,8.7 20.4,20.4 0 0 0 4.9,6.9 21.4,21.4 0 0 0 7.3,4.3 30.1,30.1 0 0 0 4.4,1.1 l 1,0.2 h 3.9 l 45.8,2.7 22.9,1.4 11.5,0.7 h 10.5 a 64.5,64.5 0 0 0 37.6,-15.2 61.4,61.4 0 0 0 13.1,-15.7 65,65 0 0 0 7.4,-19.2 l 17.4,-90.1 8.7,-45.1 c 2.9,-15 5.8,-30 8.8,-45 l 4.7,-22.5 5,-22.4 c 3.4,-14.9 7,-29.8 11,-44.6 a 2.468299,2.468299 0 0 1 4.9,0.6 z"
         id="path4113"
         inkscape:connector-curvature="0"
         style="fill:#31323d" />
      <path
         d="m 1095.2,2319.6 h -0.5 l -1.7,0.2 a 18.6,18.6 0 0 0 -5.8,2 22.5,22.5 0 0 0 -6.7,5.5 30.2,30.2 0 0 0 -2.9,4 38.9,38.9 0 0 0 -2.4,4.6 l -0.5,1.2 -0.5,1.2 -0.5,1.2 -0.4,1.3 c -0.5,1.7 -0.9,3.4 -1.3,5 l -0.5,2.4 c -0.2,0.8 -0.3,1.6 -0.4,2.4 -0.1,0.8 -0.4,3 -0.6,4.4 -0.2,1.4 -0.2,2.6 -0.3,3.7 -0.1,1.1 -0.1,2.1 -0.2,2.9 v 2.7 a 6.3,6.3 0 1 1 -12.5,-0.6 6.9,6.9 0 0 1 0.1,-0.8 l 0.5,-2.7 c 0.2,-0.9 0.3,-1.9 0.6,-3.1 0.3,-1.2 0.5,-2.6 0.9,-4.1 0.4,-1.5 0.8,-3.1 1.3,-4.8 l 0.8,-2.6 0.9,-2.7 c 0.7,-1.8 1.4,-3.7 2.3,-5.5 l 0.6,-1.4 0.7,-1.4 0.7,-1.4 0.8,-1.4 a 46.9,46.9 0 0 1 3.6,-5.2 37.5,37.5 0 0 1 4.2,-4.5 28.8,28.8 0 0 1 9.4,-5.8 23.9,23.9 0 0 1 7.7,-1.5 h 3.1 a 2.4129857,2.4129857 0 1 1 -0.5,4.8 z m -42.5,-4.7 h -0.6 l -1.6,0.4 -2.5,0.9 -0.7,0.3 -0.8,0.4 -1.6,0.9 -1.7,1.1 -1.7,1.3 -0.9,0.7 -0.8,0.8 -1.6,1.7 -1.5,2 -0.7,1 -0.6,1.1 -1.3,2.2 -1.1,2.4 c -0.3,0.8 -0.7,1.6 -1,2.4 l -0.8,2.5 -0.8,2.4 -0.6,2.5 a 42.3,42.3 0 0 0 -1,4.7 l -0.6,4.3 a 35.4,35.4 0 0 0 -0.3,3.7 l -0.2,2.8 -0.2,2.5 v 0.4 a 6.3,6.3 0 1 1 -12.5,-0.8 6.9,6.9 0 0 1 0.1,-0.8 l 0.5,-2.7 0.6,-3.1 c 0.3,-1.2 0.4,-2.5 0.9,-4 l 1.3,-4.7 a 51.3,51.3 0 0 1 1.8,-5.2 l 1,-2.7 1.3,-2.7 1.3,-2.7 c 0.5,-0.9 1.1,-1.8 1.6,-2.7 l 1.7,-2.6 1.9,-2.4 0.9,-1.2 1.1,-1.1 2.1,-2.1 2.2,-1.8 1.1,-0.9 1.2,-0.7 2.2,-1.4 2.2,-1.1 2.1,-0.8 1,-0.4 1,-0.3 a 26.5,26.5 0 0 1 3.2,-0.7 l 2.2,-0.2 h 0.8 a 2.2090722,2.2090722 0 1 1 0.4,4.4 z m 621,-289.7 2.2,9.4 c 1.4,6.1 3.4,15.1 5.8,26.6 1.2,5.7 2.5,12.1 3.9,19 l 4.4,22.5 4.8,25.6 5,28.4 23.3,135.3 c 1.1,6.1 2,12.8 3.6,17.8 a 63.3,63.3 0 0 0 7.2,15.7 65.1,65.1 0 0 0 25.9,23.4 l 4.1,1.9 1.1,0.4 1,0.4 2,0.7 a 45.4,45.4 0 0 0 8.4,1.7 l 4.3,0.3 h 4.6 l 10,-0.3 40.1,-1.4 39.4,-1.2 2.5,-0.3 1.2,-0.2 0.9,-0.2 1.9,-0.4 1.9,-0.6 a 21.7,21.7 0 0 0 6.5,-3.5 17,17 0 0 0 4.3,-5.4 c 0.2,-0.6 0.6,-1.1 0.7,-1.7 l 0.6,-1.8 a 30.4,30.4 0 0 0 0.8,-3.9 37.8,37.8 0 0 0 0.4,-4.1 v -2.1 c 0,0 0,-1.4 -0.1,-2.2 l -0.2,-2.2 v -0.3 a 0.3,0.3 0 1 1 0,-0.1 v -1.6 l -0.2,-0.8 -0.2,-0.9 c -0.1,-0.6 -0.4,-1.3 -0.6,-1.9 -1.7,-5 -4.7,-9.3 -8.4,-11.7 a 17.3,17.3 0 0 0 -6.4,-2.3 l -1.8,-0.2 -2.6,-0.2 h -1.2 l -1.5,-0.2 -2.9,-0.5 a 39.5,39.5 0 0 1 -10.9,-4.2 30.1,30.1 0 0 1 -9.1,-8 34,34 0 0 1 -5.3,-10.4 47.2,47.2 0 0 1 -1.9,-10.7 c -0.1,-0.9 -0.1,-1.7 -0.1,-2.6 v -7.2 l 0.2,-9.1 0.8,-35.4 0.2,-8.6 v -4.6 l 0.3,-4.2 0.3,-4.2 c 0.1,-1.4 0.2,-2.7 0.4,-4.2 l 1,-8.4 a 250.4,250.4 0 0 1 6.4,-31.5 277,277 0 0 1 9.1,-28 l 2.7,-6.4 c 0.9,-2.1 1.7,-4.2 2.7,-6.2 l 2.8,-5.9 c 0.9,-1.9 1.8,-3.9 2.8,-5.7 l 2.9,-5.4 1.4,-2.6 1.5,-2.5 2.9,-4.9 c 0.9,-1.6 1.8,-3.2 2.8,-4.7 l 5.6,-8.7 5.4,-7.7 2.6,-3.5 2.5,-3.2 c 1.6,-2.1 3.1,-4.1 4.6,-5.8 l 4.1,-4.9 3.5,-4 6.6,-7.1 a 2.2022716,2.2022716 0 0 1 3.4,2.8 l -5.6,7.8 c -3.6,5.1 -8.8,12.6 -14.9,22.5 l -4.7,7.8 -4.8,8.8 c -0.9,1.5 -1.7,3.1 -2.5,4.7 l -2.5,4.9 -1.3,2.5 -1.2,2.6 -2.5,5.4 a 290.9,290.9 0 0 0 -17.7,50.6 l -0.9,3.6 -0.4,1.8 -0.4,1.8 -1.5,7.4 -0.4,1.9 -0.3,1.9 -0.6,3.8 -0.6,3.9 -0.3,1.9 -0.2,1.9 -0.9,7.8 c -0.2,1.3 -0.2,2.7 -0.3,4.1 l -0.3,4.2 -0.3,4.2 v 12.5 l -0.5,35.4 v 15.8 c 0,0 0,1.4 0.1,2 a 33.7,33.7 0 0 0 1.4,7.5 20.3,20.3 0 0 0 3.2,6.2 c 2.7,3.6 6.9,5.8 12,6.9 l 1.8,0.3 0.9,0.2 h 1.2 l 2.2,0.2 3,0.3 a 31.3,31.3 0 0 1 11.7,4.2 31.8,31.8 0 0 1 9,8.5 40.3,40.3 0 0 1 5.4,10.5 c 0.3,0.9 0.6,1.8 0.8,2.8 l 0.4,1.4 0.3,1.6 v 2.9 l 0.2,2.7 c 0.1,0.9 0.1,1.8 0.1,2.8 0,1 0.1,1.8 0,2.8 a 52,52 0 0 1 -0.5,5.7 44.4,44.4 0 0 1 -1.2,5.8 l -1,2.9 c -0.3,1 -0.8,1.9 -1.3,2.9 a 31.3,31.3 0 0 1 -7.9,10.1 35.8,35.8 0 0 1 -10.9,6 l -2.8,0.9 -3,0.7 -1.5,0.3 -1.3,0.2 -2.5,0.3 h -5.7 l -5,0.2 -10,0.4 -20.1,0.7 -40.1,1.3 -10,0.3 h -5.4 l -5.6,-0.4 a 59.7,59.7 0 0 1 -11,-2.3 l -2.7,-0.9 -1.4,-0.5 -1.2,-0.5 -4.9,-2.3 a 79.2,79.2 0 0 1 -31.4,-28.6 77.2,77.2 0 0 1 -8.7,-19.2 l -0.7,-2.6 -0.3,-1.3 c -0.1,-0.4 -0.2,-0.9 -0.3,-1.3 l -0.5,-2.3 -0.2,-1.2 v -1.4 l -1.5,-9.3 -22,-135.6 -4.5,-28.5 -3.8,-25.7 -3.2,-22.7 c -1,-7 -1.8,-13.4 -2.5,-19.3 -1.5,-11.6 -2.5,-20.8 -3.2,-27.1 l -1,-9.6 a 2.2,2.2 0 0 1 3.8,-0.6 z"
         id="path4115"
         inkscape:connector-curvature="0"
         style="fill:#31323d" />
      <path
         d="m 1783.2,2307.4 h 3.2 a 34.8,34.8 0 0 1 8,1.7 33.5,33.5 0 0 1 5.1,2.1 34.2,34.2 0 0 1 5.3,3.3 37.9,37.9 0 0 1 5,4.5 c 0.7,0.9 1.5,1.7 2.2,2.7 l 1,1.4 1,1.5 a 46.8,46.8 0 0 1 3.3,6.1 56.5,56.5 0 0 1 2.4,6.2 c 0.4,1 0.6,2 0.9,3 0.3,1 0.5,2 0.7,2.9 l 0.6,2.8 0.4,2.6 c 0.3,1.7 0.4,3.2 0.6,4.6 0.2,1.4 0.3,2.5 0.3,3.5 l 0.2,3.1 a 6.3,6.3 0 0 1 -12.5,0.8 6.4,6.4 0 0 1 0,-0.7 v -0.3 l 0.2,-2.7 c 0.1,-0.9 0.1,-1.9 0.1,-3.1 0,-1.2 0.1,-2.6 0,-4 v -2.3 l -0.2,-2.4 c -0.1,-0.8 -0.2,-1.7 -0.3,-2.5 -0.1,-0.8 -0.2,-1.8 -0.4,-2.6 a 47.1,47.1 0 0 0 -1.3,-5.3 38.1,38.1 0 0 0 -2.1,-5.2 l -0.6,-1.3 -0.7,-1.2 c -0.4,-0.8 -1,-1.6 -1.5,-2.3 a 30.5,30.5 0 0 0 -3.5,-4.1 29.3,29.3 0 0 0 -8,-5.5 29.5,29.5 0 0 0 -6.6,-2.2 l -1.9,-0.3 h -0.7 a 2.4020824,2.4020824 0 0 1 -0.2,-4.8 z m 50.6,-3.2 h 3.2 a 34.8,34.8 0 0 1 8,1.7 33.5,33.5 0 0 1 5.1,2.1 34.2,34.2 0 0 1 5.3,3.3 37.9,37.9 0 0 1 5,4.5 c 0.7,0.9 1.5,1.7 2.2,2.7 l 1,1.4 1,1.5 a 46.8,46.8 0 0 1 3.3,6.1 56.6,56.6 0 0 1 2.4,6.2 c 0.4,1 0.6,2 0.9,3 0.3,1 0.5,2 0.7,2.9 l 0.6,2.8 0.4,2.6 c 0.3,1.7 0.4,3.2 0.6,4.6 0.2,1.4 0.3,2.5 0.3,3.5 l 0.2,3.1 a 6.3,6.3 0 1 1 -12.5,0.1 v -0.3 l 0.2,-2.7 c 0.1,-0.9 0.1,-1.9 0.1,-3.1 0,-1.2 0.1,-2.6 0,-4 v -2.3 l -0.2,-2.4 c -0.1,-0.8 -0.2,-1.7 -0.3,-2.5 -0.1,-0.8 -0.2,-1.8 -0.4,-2.6 a 47.1,47.1 0 0 0 -1.3,-5.3 38,38 0 0 0 -2.1,-5.2 l -0.6,-1.3 -0.7,-1.2 c -0.4,-0.8 -1,-1.6 -1.5,-2.3 a 30.5,30.5 0 0 0 -3.5,-4.1 29.3,29.3 0 0 0 -8,-5.5 29.5,29.5 0 0 0 -6.6,-2.2 l -1.9,-0.3 h -0.7 a 2.4020824,2.4020824 0 0 1 -0.2,-4.8 z"
         id="path4117"
         inkscape:connector-curvature="0"
         style="fill:#31323d" />
      <path
         stroke-miterlimit="10"
         d="m 931.3,2117.4 c -38.1,9.1 -130.4,43.4 -184.5,78.3 -26.5,17.1 -10.1,55.9 23.2,55.3 l 280.4,-5.5"
         id="path4119"
         inkscape:connector-curvature="0"
         style="fill:none;stroke:#31323d;stroke-width:12.5;stroke-linecap:round;stroke-miterlimit:10" />
      <path
         d="m 840.5,2200.1 -0.7,0.2 -2,0.6 -3.1,1 -4,1.5 -4.5,2.1 a 49.4,49.4 0 0 0 -4.7,2.8 36,36 0 0 0 -4.4,3.5 26.3,26.3 0 0 0 -3.7,4.2 l -0.8,1.1 -0.7,1.2 a 21.4,21.4 0 0 0 -1.1,2.4 c -0.2,0.4 -0.3,0.8 -0.4,1.2 a 8.9,8.9 0 0 0 -0.3,1.2 18.1,18.1 0 0 0 -0.4,2.4 v 3.6 c 0,0.4 0.1,0.8 0.1,1.2 a 15.6,15.6 0 0 0 0.3,2.2 c 0.2,0.7 0.3,1.4 0.5,2.1 a 36.6,36.6 0 0 0 1.2,3.6 29.8,29.8 0 0 0 1.2,2.8 l 1.2,2.4 0.2,0.3 a 6.3,6.3 0 0 1 -11.3,5.5 l -0.3,-0.7 -1.1,-3.1 c -0.4,-1 -0.7,-2.2 -1.1,-3.7 a 48,48 0 0 1 -1,-4.9 c -0.1,-0.9 -0.2,-1.9 -0.3,-2.9 a 24.9,24.9 0 0 1 -0.1,-3.2 v -1.7 l 0.2,-1.7 c 0.1,-0.6 0.1,-1.2 0.2,-1.7 l 0.4,-1.8 a 27.7,27.7 0 0 1 1,-3.5 16.1,16.1 0 0 1 0.7,-1.7 l 0.8,-1.7 a 30.5,30.5 0 0 1 2,-3.2 l 1.1,-1.5 1.2,-1.4 a 34.5,34.5 0 0 1 5.4,-4.9 43.4,43.4 0 0 1 5.8,-3.6 56.1,56.1 0 0 1 5.7,-2.6 l 5.2,-1.8 4.4,-1.2 3.5,-0.7 2.3,-0.3 h 0.8 a 2.236068,2.236068 0 0 1 0.8,4.4 h -0.1 z m -47.5,2 h -0.6 l -1.7,0.5 a 38.1,38.1 0 0 0 -5.9,2.5 32.6,32.6 0 0 0 -3.6,2.2 29.2,29.2 0 0 0 -3.5,2.9 23.5,23.5 0 0 0 -2.9,3.7 18.7,18.7 0 0 0 -2,4.2 21.2,21.2 0 0 0 -0.6,2.2 c -0.1,0.8 -0.3,1.5 -0.3,2.3 a 24.7,24.7 0 0 0 0.1,4.6 34.5,34.5 0 0 0 0.8,4.3 c 0.4,1.4 0.7,2.7 1.2,3.9 l 0.6,1.7 0.7,1.5 0.6,1.3 0.6,1.1 1.1,2.1 v 0.2 a 6.3,6.3 0 0 1 -11.2,5.6 l -0.3,-0.8 -0.9,-2.7 -0.5,-1.4 -0.5,-1.7 -0.5,-1.9 c -0.2,-0.7 -0.3,-1.4 -0.5,-2.2 -0.2,-0.8 -0.6,-3.3 -0.8,-5.1 a 44.7,44.7 0 0 1 -0.2,-5.9 34.2,34.2 0 0 1 0.8,-6.3 c 0.2,-1.1 0.6,-2.1 0.9,-3.2 a 29.7,29.7 0 0 1 1.3,-3.1 26.9,26.9 0 0 1 3.6,-5.6 31,31 0 0 1 4.5,-4.3 35.8,35.8 0 0 1 4.8,-3 38.6,38.6 0 0 1 4.6,-2 43.3,43.3 0 0 1 7.1,-2 l 2,-0.3 h 0.8 a 2.236068,2.236068 0 0 1 0.8,4.4 H 793 Z"
         id="path4121"
         inkscape:connector-curvature="0"
         style="fill:#31323d" />
      <path
         stroke-miterlimit="10"
         d="m 2020.7,2120.2 c 47.5,13.8 136.8,46.1 179.8,75.5 26.1,17.8 10.1,55.9 -23.2,55.3 l -261.6,-5.1"
         id="path4123"
         inkscape:connector-curvature="0"
         style="fill:none;stroke:#31323d;stroke-width:12.5;stroke-linecap:round;stroke-miterlimit:10" />
      <path
         d="m 2107.6,2193.7 h 0.8 l 2.3,0.4 3.5,0.8 4.5,1.4 5.2,2 a 58.4,58.4 0 0 1 5.6,2.8 45.8,45.8 0 0 1 5.7,3.8 36.7,36.7 0 0 1 5.3,5.1 l 1.2,1.5 1.1,1.6 a 31,31 0 0 1 1.9,3.3 c 0.3,0.6 0.5,1.2 0.8,1.7 0.3,0.5 0.5,1.2 0.7,1.8 l 0.6,1.8 0.3,0.9 0.2,0.9 a 26.4,26.4 0 0 1 0.6,3.5 25.1,25.1 0 0 1 0.2,3.4 42.1,42.1 0 0 1 -0.4,6.2 50.3,50.3 0 0 1 -1,5 c -0.4,1.5 -0.7,2.8 -1.1,3.7 l -1.1,3.2 a 6.3,6.3 0 0 1 -11.8,-4.1 l 0.3,-0.7 0.2,-0.3 1.2,-2.4 c 0.4,-0.8 0.7,-1.7 1.2,-2.8 0.5,-1.1 0.8,-2.3 1.2,-3.7 a 31.5,31.5 0 0 0 0.8,-4.4 15.7,15.7 0 0 0 0.1,-2.4 16.7,16.7 0 0 0 -0.1,-2.5 v -1.2 l -0.2,-1.3 c -0.1,-0.4 -0.2,-0.8 -0.4,-1.3 a 12.8,12.8 0 0 0 -0.4,-1.3 21.8,21.8 0 0 0 -1.1,-2.5 l -0.7,-1.2 -0.8,-1.2 a 28.5,28.5 0 0 0 -3.7,-4.4 38.4,38.4 0 0 0 -4.4,-3.8 51.5,51.5 0 0 0 -4.7,-3 l -4.5,-2.3 a 66.6,66.6 0 0 0 -7.1,-2.9 l -2,-0.6 -0.7,-0.2 h -0.1 a 2.2,2.2 0 0 1 0.8,-4.3 z m 47.5,2 h 0.8 l 2.1,0.4 a 44.7,44.7 0 0 1 7.1,2.4 40.4,40.4 0 0 1 4.5,2.3 38.2,38.2 0 0 1 4.7,3.3 33.1,33.1 0 0 1 4.4,4.5 30,30 0 0 1 4.8,8.8 c 0.4,1.1 0.6,2.2 0.9,3.2 0.3,1 0.4,2.2 0.6,3.3 0.2,1.1 0.3,2.2 0.2,3.2 -0.1,1 0.1,2.1 0,3.1 l -0.2,2.9 c -0.3,1.8 -0.5,3.6 -0.8,5.2 l -0.5,2.3 -0.6,2 -0.5,1.8 -0.5,1.4 -0.9,2.7 a 6.3,6.3 0 0 1 -11.8,-4.1 l 0.3,-0.7 v -0.3 l 1.1,-2.2 0.6,-1.2 0.6,-1.4 0.7,-1.6 0.6,-1.7 c 0.5,-1.2 0.8,-2.6 1.2,-4 l 0.4,-2.2 c 0.2,-0.7 0.2,-1.5 0.3,-2.3 0.1,-0.8 0.1,-1.5 0.1,-2.3 0,-0.8 -0.1,-1.6 -0.1,-2.4 0,-0.8 -0.2,-1.6 -0.3,-2.4 a 20.2,20.2 0 0 0 -0.6,-2.3 20.6,20.6 0 0 0 -2,-4.4 25.7,25.7 0 0 0 -2.9,-3.9 31.5,31.5 0 0 0 -3.5,-3.2 34.4,34.4 0 0 0 -3.6,-2.4 39.4,39.4 0 0 0 -5.9,-2.9 l -1.7,-0.6 -0.6,-0.2 h -0.1 a 2.2,2.2 0 0 1 1.1,-4.1 z M 1290.8,864.6 a 52.1,52.1 0 0 0 -2.3,-5.3 c -0.9,-1.8 -1.8,-3.5 -2.9,-5.2 a 80.7,80.7 0 0 0 -6.9,-9.6 79.4,79.4 0 0 0 -17.5,-15.6 81.2,81.2 0 0 0 -21,-9.8 90,90 0 0 0 -11.3,-2.7 l -5.8,-0.8 -5.8,-0.5 h -0.1 a 6.2,6.2 0 0 1 -2,-11.8 l 3.6,-1.6 3.5,-1.5 7.1,-2.7 q 7.1,-2.5 14.5,-4.5 a 152.8,152.8 0 0 1 30.1,-5 94.5,94.5 0 0 1 31.1,3 69.1,69.1 0 0 1 7.6,2.6 63.5,63.5 0 0 1 14.1,8 68.6,68.6 0 0 1 6.2,5.3 l -10.4,2.9 0.5,-2.4 0.5,-2.5 c 0.3,-1.7 0.6,-3.4 0.8,-5.1 0.5,-3.4 0.8,-6.9 1.1,-10.4 a 117.4,117.4 0 0 0 -0.4,-20.6 78.3,78.3 0 0 0 -4.6,-19.6 52.4,52.4 0 0 0 -10,-16.5 l -0.2,-0.3 a 6.2,6.2 0 0 1 5.5,-10.2 l 3.9,0.6 3.7,0.7 7.4,1.6 q 7.3,1.8 14.5,4.2 a 129.1,129.1 0 0 1 27.5,12.9 c 8.6,5.5 16.6,12.5 22.6,21.2 a 64.3,64.3 0 0 1 4,6.8 59.9,59.9 0 0 1 3.1,7.3 59.1,59.1 0 0 1 2.1,7.6 65.8,65.8 0 0 1 1,7.8 l -8.6,-1.4 c 1.3,-3.2 2.7,-6.2 4.1,-9.2 1.4,-3 2.9,-6 4.5,-8.9 q 4.6,-8.8 9.9,-17.4 c 3.5,-5.7 7.3,-11.2 11.3,-16.6 a 166.5,166.5 0 0 1 13.1,-15.5 c 2.3,-2.5 4.8,-4.8 7.4,-7.1 a 99.5,99.5 0 0 1 8.1,-6.5 87,87 0 0 1 8.9,-5.6 67.5,67.5 0 0 1 9.7,-4.4 60.2,60.2 0 0 1 10.5,-2.7 53.1,53.1 0 0 1 11,-0.6 55.9,55.9 0 0 1 10.9,1.5 67.3,67.3 0 0 1 10.3,3.5 6.1,6.1 0 0 1 2.4,9.5 v 0.2 l -2,2.6 -2,2.8 -3.9,5.7 q -3.8,5.7 -7.1,11.7 a 128.7,128.7 0 0 0 -10.7,24.8 c -2.6,8.5 -3.8,17.2 -2.8,25.4 a 36.4,36.4 0 0 0 3.5,11.6 35.4,35.4 0 0 0 3.1,5.1 41.8,41.8 0 0 0 4,4.6 l -8.3,-0.3 2.9,-2.3 2.9,-2.1 5.8,-4.1 q 5.9,-4 12.1,-7.5 a 141.4,141.4 0 0 1 26.3,-11.8 90,90 0 0 1 14.4,-3.4 64.6,64.6 0 0 1 15.3,-0.5 49,49 0 0 1 15.3,3.9 46.2,46.2 0 0 1 7,3.8 51.8,51.8 0 0 1 6.2,4.9 6.2,6.2 0 0 1 -1.7,10.2 h -0.4 l -2.4,1 -2.5,1.1 -5,2.4 q -5,2.5 -9.7,5.5 a 116.9,116.9 0 0 0 -17.8,13.2 68.7,68.7 0 0 0 -13.8,16.9 42.5,42.5 0 0 0 -5.7,20.7 2.5019992,2.5019992 0 0 1 -5,0.2 49.6,49.6 0 0 1 -0.1,-6.1 48,48 0 0 1 2.3,-12.1 52.5,52.5 0 0 1 2.2,-5.7 76.4,76.4 0 0 1 13.8,-20 126.5,126.5 0 0 1 18.1,-15.9 q 4.8,-3.5 10,-6.7 l 5.2,-3.1 2.7,-1.5 2.8,-1.4 -1.8,10.3 a 39.4,39.4 0 0 0 -4.6,-3.6 33.7,33.7 0 0 0 -5.1,-2.8 36.5,36.5 0 0 0 -11.4,-2.9 c -8,-0.7 -16.5,0.7 -24.7,3.4 a 129.1,129.1 0 0 0 -24,10.8 q -5.8,3.3 -11.3,7 l -5.5,3.8 -2.7,2 -2.5,2 h -0.1 a 6.2,6.2 0 0 1 -8.3,-0.4 54.1,54.1 0 0 1 -5.4,-6.1 47.9,47.9 0 0 1 -4.3,-7 48.9,48.9 0 0 1 -4.7,-15.5 63.6,63.6 0 0 1 0,-15.7 88.7,88.7 0 0 1 3.2,-14.9 141,141 0 0 1 11.8,-27.3 q 3.6,-6.4 7.6,-12.6 l 4.1,-6.1 2.2,-3 2.3,-3 2.3,9.6 a 55.1,55.1 0 0 0 -8.2,-3 43.7,43.7 0 0 0 -8.5,-1.4 41.1,41.1 0 0 0 -8.6,0.3 48.4,48.4 0 0 0 -8.5,2 56,56 0 0 0 -8.2,3.5 75.8,75.8 0 0 0 -7.8,4.7 88.6,88.6 0 0 0 -7.3,5.6 c -2.4,2 -4.7,4.1 -6.9,6.3 a 156,156 0 0 0 -12.6,14.2 c -3.9,5 -7.6,10.2 -11.1,15.6 -3.5,5.4 -6.8,10.9 -9.9,16.5 q -2.3,4.2 -4.5,8.5 c -1.4,2.8 -2.9,5.8 -4.1,8.6 a 4.5,4.5 0 0 1 -8.6,-1.4 56.8,56.8 0 0 0 -1.1,-6.6 49.8,49.8 0 0 0 -1.9,-6.4 50.4,50.4 0 0 0 -2.8,-6 54.6,54.6 0 0 0 -3.6,-5.6 67.5,67.5 0 0 0 -20.2,-17.7 118,118 0 0 0 -25.5,-11 c -4.5,-1.4 -9,-2.5 -13.6,-3.5 l -6.9,-1.3 -3.4,-0.5 -3.3,-0.4 5.3,-10.4 a 64.9,64.9 0 0 1 12.5,20.5 90.7,90.7 0 0 1 5.4,22.7 129.8,129.8 0 0 1 0.4,22.9 q -0.4,5.7 -1.2,11.3 -0.4,2.8 -0.9,5.6 l -0.5,2.8 c -0.2,1 -0.4,1.8 -0.7,2.9 a 6.2,6.2 0 0 1 -10.3,3 h -0.1 a 56.2,56.2 0 0 0 -4.9,-4.2 51,51 0 0 0 -11.1,-6.4 56.7,56.7 0 0 0 -6.3,-2.1 82.2,82.2 0 0 0 -27,-2.5 140.3,140.3 0 0 0 -27.6,4.6 q -6.8,1.8 -13.5,4.2 l -6.6,2.5 -3.2,1.3 -3.1,1.4 -2.1,-11.9 6.4,1 6.4,1.4 a 101.1,101.1 0 0 1 12.4,3.9 90.9,90.9 0 0 1 22.6,12.7 87.2,87.2 0 0 1 24.4,29.5 q 1.4,2.9 2.7,5.8 a 56.2,56.2 0 0 1 2.2,6.1 2.5144582,2.5144582 0 0 1 -4.8,1.5 z"
         id="path4125"
         inkscape:connector-curvature="0"
         style="fill:#31323d" />
      <path
         d="m 1784.2,1453.3 5.7,-5.2 2.9,-2.6 2.8,-2.6 5.6,-5.2 5.5,-5.3 2.8,-2.6 2.8,-2.7 5.5,-5.4 5.4,-5.4 5.4,-5.4 5.3,-5.5 5.3,-5.5 5.3,-5.6 5.2,-5.6 5.2,-5.7 5.1,-5.7 5,-5.7 4.9,-5.7 a 6.3,6.3 0 0 1 8.1,-1.3 58.8,58.8 0 0 0 14.9,6.7 75.6,75.6 0 0 0 16.5,2.8 c 11.3,0.7 22.9,-0.6 34.2,-3.1 a 217.4,217.4 0 0 0 33.6,-10.5 q 8.2,-3.3 16.3,-7.1 l 8,-3.9 3.9,-2 2,-1 1,-0.5 h 0.2 l -0.2,0.2 -0.3,0.2 a 3.7,3.7 0 0 0 -1.2,2.4 3.4,3.4 0 0 0 0.6,2.2 3.7,3.7 0 0 0 2.1,1.5 h -5.6 l -4.9,-0.3 a 179.9,179.9 0 0 1 -18.6,-2.7 c -6.1,-1.2 -12.2,-2.7 -18.1,-4.3 -5.9,-1.6 -11.9,-3.4 -17.7,-5.4 -11.7,-3.9 -23.1,-8.4 -34.3,-13.3 q -8.4,-3.7 -16.7,-7.6 c -5.6,-2.7 -11,-5.3 -16.5,-8.3 a 6.9,6.9 0 0 1 5,-12.8 h 0.1 c 13.3,3.5 26.9,6 40.3,6.3 a 91,91 0 0 0 19.6,-1.6 51.3,51.3 0 0 0 17.3,-6.6 32.7,32.7 0 0 0 6.7,-5.6 l 0.7,-0.8 -0.3,0.3 -0.3,0.7 v 0.4 a 3.9,3.9 0 0 0 0.4,3.2 4,4 0 0 0 2.8,1.8 h -2 l -5.8,-0.6 -5.6,-0.9 c -3.7,-0.7 -7.4,-1.7 -11,-2.8 a 136.4,136.4 0 0 1 -39.8,-20.1 185.9,185.9 0 0 1 -32.2,-30.1 252.5,252.5 0 0 1 -25.2,-35.7 c -3.7,-6.3 -7.1,-12.6 -10.4,-19.1 -1.6,-3.2 -3.3,-6.5 -4.7,-9.8 l -2.2,-4.9 -1.1,-2.5 -1.1,-2.4 c -5.7,-12.8 -11.6,-25.6 -18,-38 -6.4,-12.4 -13.1,-25 -19.8,-37.4 -6.7,-12.4 -13.6,-24.7 -20.7,-36.9 -14.1,-24.4 -28.8,-48.5 -44.3,-71.9 q -11.7,-17.6 -24.1,-34.5 c -8.4,-11.2 -17.1,-22.3 -26.2,-32.7 a 235.8,235.8 0 0 0 -30,-28.4 q -8.1,-6.4 -16.7,-12.1 l -17.7,-11.6 0.4,0.3 -7.5,-3.9 -7.6,-3.7 -7.8,-3.4 -3.9,-1.6 -4,-1.5 -8,-2.8 -8.1,-2.5 -4.1,-1.1 -2,-0.6 -0.7,-0.2 -0.5,-0.2 -1,-0.3 -8.3,-2.5 a 6.3,6.3 0 0 1 3.5,-12 l 8.4,2.4 1.9,0.5 2.2,0.6 4.3,1.2 8.6,2.6 8.5,2.9 4.2,1.6 4.2,1.6 8.2,3.5 8.1,3.8 8,4.1 0.4,0.2 h 0.1 l 17.9,11.5 q 9.1,6 17.7,12.7 a 249.2,249.2 0 0 1 31.8,29.8 c 9.6,10.8 18.5,22 27.1,33.4 8.6,11.4 16.8,23.1 24.7,35 7.9,11.9 15.6,23.8 23.1,36 7.5,12.2 14.7,24.4 21.9,36.7 7.2,12.3 14.1,24.7 20.9,37.2 6.8,12.5 13.5,25 20,37.7 6.5,12.7 12.6,25.7 18.4,38.8 2.9,6.5 5.7,12.7 8.9,18.9 3.2,6.2 6.4,12.3 9.9,18.2 a 238.3,238.3 0 0 0 23.8,33.6 171.7,171.7 0 0 0 29.7,27.8 136.2,136.2 0 0 0 17.2,10.6 116.6,116.6 0 0 0 18.5,7.6 c 3.2,1 6.4,1.8 9.6,2.4 l 4.8,0.8 4.7,0.5 h 3.3 a 10.1,10.1 0 0 1 4,1.6 10.3,10.3 0 0 1 3,3.1 10.5,10.5 0 0 1 1.5,4 10.4,10.4 0 0 1 -0.3,4.3 l -0.4,1 -0.6,1.3 -0.4,0.6 h -1.1 l -0.4,0.5 -1.1,1.2 a 46.7,46.7 0 0 1 -9.6,8 65.2,65.2 0 0 1 -22.1,8.5 104.9,104.9 0 0 1 -22.7,1.8 c -15,-0.4 -29.5,-3.1 -43.5,-6.8 l 5.1,-12.8 c 5.1,2.7 10.5,5.4 15.9,8 5.4,2.6 10.8,5.1 16.3,7.4 10.9,4.8 22,9.2 33.2,13 q 8.4,2.9 16.9,5.3 c 5.7,1.6 11.4,3 17.1,4.2 a 166.6,166.6 0 0 0 17.2,2.6 l 4.2,0.3 h 6.4 l 1.7,0.2 a 9.7,9.7 0 0 1 5.8,4 9.9,9.9 0 0 1 1.7,6.5 9.6,9.6 0 0 1 -3.2,6.3 l -0.7,0.6 -0.5,0.3 -0.3,0.2 -0.5,0.3 h -0.3 l -1,0.5 -2.1,1.1 -4.1,2.1 -8.3,4 q -8.4,3.9 -17,7.3 a 230.3,230.3 0 0 1 -35.6,10.9 c -12.2,2.6 -24.9,4.1 -37.8,3.2 a 88.2,88.2 0 0 1 -19.2,-3.4 70.9,70.9 0 0 1 -18,-8.2 l 8.2,-1.3 -5.2,5.9 -5.2,5.8 c -3.5,3.8 -7.1,7.6 -10.7,11.3 l -5.5,5.5 -5.6,5.5 -5.6,5.4 -5.7,5.3 c -3.8,3.5 -7.7,6.9 -11.6,10.3 l -6,5 -6,4.9 -6.1,4.8 -6.2,4.7 -3.1,2.3 -3.2,2.2 -6.4,4.4 a 2.5,2.5 0 0 1 -3.4,-3.4 z m -703.1,27.7 -6.9,-3.8 -6.8,-3.9 q -6.8,-4 -13.5,-8.2 a 247.5,247.5 0 0 1 -25.7,-18.7 143.5,143.5 0 0 1 -11.8,-11 87,87 0 0 1 -10.3,-13 47.5,47.5 0 0 1 -6.8,-16.3 c -0.1,-0.8 -0.3,-1.5 -0.4,-2.3 -0.1,-0.8 -0.1,-0.8 -0.1,-1.2 v -1.1 l -0.3,-3.9 -0.6,-7.8 9.5,5 a 57,57 0 0 1 -7.3,3.7 q -3.7,1.6 -7.4,2.7 c -2.5,0.8 -4.9,1.4 -7.4,2.1 l -7.3,1.7 c -4.9,0.9 -9.8,1.7 -14.8,2.3 l -3.7,0.4 h -2.2 a 9.3,9.3 0 0 1 -2.7,-0.7 9.4,9.4 0 0 1 -4.1,-3.4 9.5,9.5 0 0 1 -1.6,-4.9 9.3,9.3 0 0 1 1.4,-5.3 9.6,9.6 0 0 1 1.7,-2 l 0.5,-0.4 h 0.2 l 0.4,-0.3 1.4,-1.1 5.1,-4.4 5,-4.8 c 3.3,-3.3 6.5,-6.8 9.6,-10.3 3.1,-3.5 6.2,-7.2 9.2,-10.9 l 4.4,-5.6 4.2,-5.6 7.8,9.3 -6.1,2.8 c -2,1 -4.1,1.8 -6.2,2.7 l -3.1,1.3 -3.2,1.2 -3.2,1.2 -3.2,1.1 -6.4,2.1 -6.5,1.8 -6.6,1.6 -6.6,1.4 -3.3,0.6 -3.4,0.5 -6.8,0.8 c -4.5,0.4 -9.1,0.7 -13.6,0.7 h -6.9 l -3.4,-0.2 H 908 l -0.7,-0.2 -0.6,-0.2 a 9.3,9.3 0 0 1 -4.1,-2.8 9.5,9.5 0 0 1 -1.8,-9.1 9.3,9.3 0 0 1 2.7,-4.1 9.7,9.7 0 0 1 2,-1.3 l 0.7,-0.3 0.4,-0.2 1.5,-0.6 1.5,-0.6 0.8,-0.3 0.7,-0.3 c 3.6,-1.7 7.3,-3.7 10.9,-5.7 3.6,-2 7.1,-4.4 10.6,-6.8 3.5,-2.4 6.8,-4.9 10.1,-7.6 3.3,-2.7 6.5,-5.4 9.7,-8.3 6.3,-5.7 12.3,-11.7 18.1,-18 q 4.3,-4.7 8.4,-9.6 l 4,-4.9 3.8,-5 9.5,8.1 a 95.4,95.4 0 0 1 -43.8,25.4 c -16.5,4.4 -33.7,4.5 -50.1,2.2 q -6.2,-0.9 -12.2,-2.2 l -6,-1.4 -3,-0.8 -1.5,-0.4 h -1.1 a 9.3,9.3 0 0 1 -2.2,-1.1 9.4,9.4 0 0 1 1.8,-16.4 l 1.1,-0.4 1.4,-0.5 2.7,-0.9 q 5.5,-1.9 10.9,-4.1 a 254.8,254.8 0 0 0 78.4,-50.1 244.7,244.7 0 0 0 30.8,-35.1 251.2,251.2 0 0 0 23.7,-40.3 c 1.6,-3.5 3.2,-7.1 4.7,-10.7 l 2.2,-5.4 0.5,-1.4 0.3,-0.7 0.2,-0.5 v -0.2 l 0.2,-0.3 1.2,-2.7 q 4.7,-10.8 8.7,-21.9 l 1.9,-5.6 2,-5.7 4,-11.4 q 4.1,-11.3 8.3,-22.6 8.5,-22.5 18,-44.7 c 6.3,-14.8 12.9,-29.5 20,-43.9 7.1,-14.4 14.7,-28.8 23,-42.7 8.3,-13.9 17.4,-27.5 28.2,-40 l 4.1,-4.6 4.2,-4.5 8.3,-8.6 1,-1.1 0.3,-0.3 h 0.1 l 0.3,-0.3 0.5,-0.5 2.2,-2.1 2.2,-2.1 2.3,-2.1 4.7,-4.1 4.7,-3.9 a 248.4,248.4 0 0 1 86.7,-45.2 6.25,6.25 0 0 1 3.5,12 235.9,235.9 0 0 0 -82.3,42.9 l -4.5,3.7 -4.4,3.8 -2.2,1.9 -2.2,2.1 -2.2,2.1 -0.5,0.5 -0.3,0.3 -1,1.1 -8.3,8.6 -4,4.2 -3.8,4.3 c -10,11.8 -18.8,24.8 -26.9,38.3 -8.1,13.5 -15.5,27.5 -22.5,41.7 -7,14.2 -13.5,28.7 -19.8,43.3 -6.3,14.6 -12.1,29.4 -17.8,44.3 q -4.2,11.2 -8.3,22.4 l -4,11.3 -1.9,5.6 -2,5.7 q -4.1,11.5 -9,22.7 l -1.2,2.8 -0.2,0.3 v 0.2 h 0.1 l -0.3,0.7 -0.6,1.4 -2.3,5.7 c -1.6,3.8 -3.2,7.5 -5,11.2 a 263.6,263.6 0 0 1 -24.8,42.3 257.2,257.2 0 0 1 -32.4,36.9 267.3,267.3 0 0 1 -82.3,52.6 q -5.7,2.3 -11.5,4.3 l -2.9,1 -1.4,0.5 a 1,1 0 1 1 0.3,-0.3 3.3,3.3 0 0 0 1,-1.2 3,3 0 0 0 0,-2.7 3.2,3.2 0 0 0 -1.1,-1.2 l -0.8,-0.4 h 0.3 l 1.4,0.4 2.8,0.7 5.6,1.3 q 5.7,1.2 11.3,2.1 c 15.2,2.2 30.6,2 45.1,-1.9 a 82.9,82.9 0 0 0 38.2,-22.1 6.2421951,6.2421951 0 0 1 9.5,8.1 l -4.2,5.4 -4.2,5.2 q -4.3,5.1 -8.8,10.1 c -6,6.6 -12.3,12.9 -19,18.9 q -5,4.5 -10.2,8.7 c -3.5,2.8 -7.1,5.5 -10.8,8.1 -3.7,2.6 -7.5,5 -11.4,7.4 -3.9,2.4 -7.9,4.4 -12.2,6.4 l -0.8,0.4 -0.8,0.3 -1.5,0.6 -1.5,0.6 -0.4,0.2 0.6,-0.4 a 3.2,3.2 0 0 0 1,-1.4 3,3 0 0 0 0.1,-1.5 3.1,3.1 0 0 0 -0.7,-1.4 3.3,3.3 0 0 0 -1.4,-1 h 1.7 l 3.1,0.2 h 6.2 c 4.2,0 8.3,-0.3 12.5,-0.7 l 6.2,-0.8 3.1,-0.5 3.1,-0.6 6.2,-1.3 6.1,-1.5 6.1,-1.7 6,-1.9 3,-1 3,-1.1 3,-1.1 2.9,-1.2 c 1.9,-0.8 3.9,-1.6 5.8,-2.5 l 5.8,-2.7 h 0.1 a 6.2,6.2 0 0 1 7.7,9.3 l -4.5,6 -4.6,5.8 q -4.6,5.7 -9.5,11.3 c -3.3,3.7 -6.6,7.3 -10.2,10.9 l -5.5,5.2 c -1.9,1.7 -3.8,3.3 -5.9,5 l -1.4,1.1 -0.4,0.3 0.6,-0.7 a 3.3,3.3 0 0 0 0.5,-1.8 3,3 0 0 0 -0.5,-1.5 3.1,3.1 0 0 0 -1.4,-1.1 l -0.9,-0.2 h -0.4 l 3.5,-0.4 c 4.7,-0.6 9.3,-1.3 13.9,-2.2 l 6.8,-1.5 6.6,-1.8 c 2.2,-0.7 4.2,-1.4 6.3,-2.3 a 44.8,44.8 0 0 0 5.6,-2.8 h 0.1 a 6.2,6.2 0 0 1 8.6,2.2 6.3,6.3 0 0 1 0.9,2.9 v 13.4 c 0,0 0.1,1 0.1,1.6 a 36.5,36.5 0 0 0 4.5,12.7 77,77 0 0 0 8.4,12 134.5,134.5 0 0 0 10.4,11 239.8,239.8 0 0 0 23.8,19.5 q 6.3,4.6 12.7,8.8 l 6.5,4.2 6.6,4.1 a 2.5,2.5 0 0 1 -2.5,4.3 z"
         id="path4127"
         inkscape:connector-curvature="0"
         style="fill:#31323d" />
    </g>
    <g
       id="eye">
      <circle
         cx="1702.8"
         cy="1118"
         r="129.7"
         id="circle4130"
         style="fill:#ffffff" />
      <clipPath
         id="eyeClipPath">
        <circle
           cx="1702.8"
           cy="1118"
           r="129.7"
           id="circle4132" />
      </clipPath>
      <g
         clip-path="url(#eyeClipPath)"
         id="g4141">
        <circle
           cx="1673.8"
           cy="1125.5"
           r="100.1"
           id="circle4135"
           style="fill:#a56429" />
        <circle
           cx="1670.8"
           cy="1127.4"
           r="83"
           id="circle4137"
           style="fill:#31323d" />
        <circle
           transform="rotate(-7.499,1710.423,1057.792)"
           cx="1710.1"
           cy="1057.6"
           id="ellipse4139"
           r="0"
           style="fill:#ffffff" />
      </g>
      <circle
         stroke-miterlimit="10"
         cx="1702.8"
         cy="1118"
         r="129.7"
         id="circle4143"
         style="fill:none;stroke:#31323d;stroke-width:10;stroke-linecap:round;stroke-miterlimit:10" />
      <circle
         cx="1161.5"
         cy="1129.3"
         r="129.7"
         id="circle4145"
         style="fill:#ffffff" />
      <clipPath
         id="eyeClipPath2">
        <circle
           cx="1161.5"
           cy="1129.3"
           r="129.7"
           id="circle4147" />
      </clipPath>
      <g
         clip-path="url(#eyeClipPath2)"
         id="g4156">
        <circle
           cx="1192.7"
           cy="1131.4"
           r="100.1"
           id="circle4150"
           style="fill:#a56429" />
        <circle
           cx="1189.6"
           cy="1133.3"
           r="83"
           id="circle4152"
           style="fill:#31323d" />
        <circle
           transform="rotate(-7.499,1229.138,1063.542)"
           cx="1228.9"
           cy="1063.3"
           id="ellipse4154"
           r="0"
           style="fill:#ffffff" />
      </g>
      <circle
         stroke-miterlimit="10"
         cx="1161.5"
         cy="1129.3"
         r="129.7"
         id="circle4158"
         style="fill:none;stroke:#31323d;stroke-width:10;stroke-linecap:round;stroke-miterlimit:10" />
    </g>
    <g
       id="mouth"
       style="isolation:isolate">
      <path
         d="m 1447.7,1246.4 1.6,2.5 c 1.1,1.7 2.8,4.1 4.9,7.2 4.4,6.2 10.9,14.9 19.4,24.8 4.2,4.9 9,10.2 14.2,15.5 5.2,5.3 10.9,10.8 17.1,16 a 204.3,204.3 0 0 0 19.8,15.1 151.6,151.6 0 0 0 22.3,12.5 115.9,115.9 0 0 0 11.9,4.6 100.2,100.2 0 0 0 12.2,3.2 86.4,86.4 0 0 0 24.4,1.2 85.4,85.4 0 0 0 22.4,-5.2 98,98 0 0 0 18.5,-9.5 121.3,121.3 0 0 0 14.2,-10.7 l 2.9,-2.5 2.6,-2.5 2.4,-2.3 2.1,-2.2 3.5,-3.7 2.5,-2.8 2.1,-2.4 a 1.8,1.8 0 0 1 2.7,2.3 l -2,2.5 -2.4,3 -3.4,3.9 -2.1,2.3 -2.4,2.4 -2.6,2.7 -2.9,2.7 a 126.2,126.2 0 0 1 -14.3,11.7 103.7,103.7 0 0 1 -19.2,10.8 92.1,92.1 0 0 1 -23.9,6.6 94,94 0 0 1 -26.6,-0.3 108.6,108.6 0 0 1 -13.4,-2.9 124.9,124.9 0 0 1 -13,-4.4 161.3,161.3 0 0 1 -24.3,-12.3 215.1,215.1 0 0 1 -21.5,-15 c -6.7,-5.3 -12.8,-10.7 -18.5,-16 -5.7,-5.3 -10.8,-10.6 -15.4,-15.5 -9.2,-9.9 -16.3,-18.7 -21.2,-25 -2.4,-3.1 -4.3,-5.7 -5.5,-7.4 l -1.4,-2 -0.5,-0.7 a 7.5168145,7.5168145 0 0 1 12.4,-8.5 v 0.2 h 0.1 z"
         id="path4161"
         inkscape:connector-curvature="0"
         style="fill:#31323d" />
      <path
         d="m 1236.3,1330.2 2.4,1.9 c 1.6,1.2 3.9,2.9 7.1,4.9 3.2,2 7,4.4 11.5,6.8 a 137.3,137.3 0 0 0 15.7,7.1 116,116 0 0 0 19.4,5.5 98.3,98.3 0 0 0 22.2,1.8 88.9,88.9 0 0 0 11.6,-1.2 l 2.9,-0.6 2.9,-0.7 2.9,-0.7 2.9,-0.9 a 86.8,86.8 0 0 0 11.2,-4.5 c 1.9,-0.8 3.6,-1.8 5.4,-2.8 l 2.6,-1.5 2.6,-1.6 a 123.8,123.8 0 0 0 19,-15.3 156.9,156.9 0 0 0 15.7,-18 c 4.7,-6.2 8.8,-12.5 12.6,-18.6 3.8,-6.1 7,-12.1 9.8,-17.7 l 2.1,-4.1 1.9,-4 1.8,-3.8 1.6,-3.6 c 2.1,-4.7 3.8,-8.8 5.2,-12.2 0.8,-1.7 1.2,-3.3 1.9,-4.5 a 14.5,14.5 0 0 1 2.1,-3.1 11.5,11.5 0 0 1 1.9,-1.7 l 0.8,-0.5 h 0.1 a 6.5,6.5 0 0 1 8.8,2.8 l 0.4,0.9 a 6.2,6.2 0 0 1 0.2,0.9 11.5,11.5 0 0 1 0.1,2.6 15.2,15.2 0 0 1 -0.7,3.8 42.7,42.7 0 0 1 -1.9,4.7 c -1.6,3.5 -3.5,7.7 -5.8,12.5 l -1.8,3.7 -2,3.9 -2.1,4.1 -2.3,4.2 c -3.1,5.8 -6.8,11.9 -10.9,18.2 a 231.4,231.4 0 0 1 -14.1,19.2 168.8,168.8 0 0 1 -17.6,18.6 127.7,127.7 0 0 1 -21.5,15.8 l -2.9,1.6 -3,1.6 c -2,0.9 -4,2 -6.1,2.8 a 96.3,96.3 0 0 1 -12.6,4.3 93.8,93.8 0 0 1 -25.7,3.2 101.7,101.7 0 0 1 -23.7,-3.2 122,122 0 0 1 -20,-7.1 141.9,141.9 0 0 1 -15.7,-8.4 134.8,134.8 0 0 1 -11.3,-7.8 c -3,-2.3 -5.3,-4.2 -6.8,-5.6 l -2.3,-2.1 a 1.2,1.2 0 0 1 1.5,-1.6 z"
         id="path4163"
         inkscape:connector-curvature="0"
         style="fill:#31323d" />
      <path
         d="m 1372.4,1221.7 a 15,15 0 0 1 3.6,-15.9 c 8.9,-8.8 28.1,-21.7 63.7,-21.9 35.6,-0.2 52.5,12.1 60.6,20.8 a 14.9,14.9 0 0 1 2.5,16.1 20.8,20.8 0 0 1 -18.2,12.3 c -10,0.3 -23.9,3.4 -32.7,15.9 a 13.2,13.2 0 0 1 -1.9,2.2 l -0.3,0.3 a 17.7,17.7 0 0 1 -25.3,-1.4 c 0,0 -7.3,-12.5 -34.2,-14.5 a 20.7,20.7 0 0 1 -17.7,-13.5 v -0.3 z m 144.4,186.2 -0.5,1.8 c -0.2,0.6 -0.3,1.2 -0.7,2.1 l -1.1,3 -1.6,3.5 c -0.7,1.2 -1.4,2.6 -2.3,4 a 56.1,56.1 0 0 1 -6.8,8.8 63,63 0 0 1 -10,8.7 l -3,2 -3.2,1.9 c -2.2,1.2 -4.5,2.3 -6.9,3.3 -2.4,1 -4.9,1.8 -7.4,2.6 l -3.9,1 -4,0.8 a 77.5,77.5 0 0 1 -16.3,1.1 81.8,81.8 0 0 1 -16.1,-2.3 83.6,83.6 0 0 1 -14.8,-5.2 l -0.9,-0.4 -0.4,-0.2 h -0.5 l -1.5,-0.8 -3.2,-1.8 c -2.2,-1.2 -4.2,-2.5 -6.1,-3.8 a 76.6,76.6 0 0 1 -10,-8.3 75.3,75.3 0 0 1 -7.2,-8.2 71.2,71.2 0 0 1 -4.6,-7 c -0.6,-1 -1.1,-1.9 -1.5,-2.7 l -1,-2 -0.8,-1.7 a 2.5,2.5 0 0 1 4.2,-2.7 h 0.1 l 1.2,1.3 3.3,3.6 c 1.4,1.5 3.3,3.3 5.5,5.2 2.2,1.9 4.7,3.9 7.6,6 a 91,91 0 0 0 9.7,5.9 l 2.7,1.4 2.8,1.3 2.9,1.2 1.6,0.7 1.4,0.5 a 85.9,85.9 0 0 0 12.8,3.6 81.6,81.6 0 0 0 13.5,1.5 80.6,80.6 0 0 0 13.5,-0.7 l 3.3,-0.5 3.2,-0.7 c 2.1,-0.5 4.2,-1.1 6.2,-1.7 2,-0.6 4,-1.4 5.8,-2.2 l 2.8,-1.2 2.6,-1.3 a 65.7,65.7 0 0 0 9.3,-5.9 60.7,60.7 0 0 0 7.1,-6.3 72.3,72.3 0 0 0 4.9,-5.6 l 1.6,-2.2 c 0.5,-0.6 0.9,-1.3 1.2,-1.8 l 1,-1.5 a 2.5,2.5 0 0 1 4.5,1.9 z"
         id="path4165"
         inkscape:connector-curvature="0"
         style="fill:#31323d" />
      <path
         d="m 1383.9,1408.7 c 0,0 2.4,72.6 63.4,71.3 58.9,-1.3 66.7,-69.1 66.7,-69.1 0,0 -21.7,29.9 -59.8,29.7 -38.1,-0.2 -70.3,-31.9 -70.3,-31.9 z"
         style="opacity:0.2;mix-blend-mode:multiply;fill:#595959"
         id="path4167"
         inkscape:connector-curvature="0" />
      <path
         d="m 1532.7,1267.1 4,-0.8 11.4,-2.1 c 9.9,-1.7 24,-3.8 41,-5.4 a 545,545 0 0 1 58.3,-2.4 c 10.7,0.1 21.7,0.6 32.9,1.5 11.2,0.9 22.5,2.3 33.7,4.2 11.2,1.9 22.4,4.2 33.2,7.1 a 301.1,301.1 0 0 1 31.3,10.2 259.9,259.9 0 0 1 27.9,12.9 220.6,220.6 0 0 1 23.4,14.5 202.9,202.9 0 0 1 18.1,14.5 l 3.7,3.4 3.3,3.2 3,3 2.7,2.9 c 1.7,1.8 3.1,3.5 4.4,4.9 l 3.1,3.7 2.6,3.2 -2.7,-3.1 -3.2,-3.6 c -1.3,-1.4 -2.8,-3.1 -4.5,-4.8 l -2.7,-2.8 -3.1,-3 -3.4,-3.1 -3.8,-3.3 a 201.6,201.6 0 0 0 -18.4,-13.9 218.7,218.7 0 0 0 -23.5,-13.8 257.3,257.3 0 0 0 -27.9,-12 297.5,297.5 0 0 0 -31.2,-9.2 c -10.8,-2.6 -21.8,-4.6 -33,-6.1 -11.2,-1.5 -22.3,-2.6 -33.4,-3.2 -11.1,-0.6 -21.9,-0.8 -32.5,-0.6 a 537.3,537.3 0 0 0 -57.4,4 c -16.7,2 -30.5,4.5 -40.1,6.4 l -11.1,2.4 -3.9,0.9 a 5,5 0 0 1 -2.3,-9.7 z m 172.9,-49.3 -6.6,0.3 -7.6,0.4 -9.9,0.7 -11.7,1 -13,1.5 c -4.5,0.6 -9.1,1.2 -13.8,2 l -7.1,1.1 -7.1,1.3 -7.1,1.4 -7,1.4 -6.9,1.5 -6.7,1.6 -6.4,1.6 -6.1,1.6 -11.2,3.1 -9.4,2.8 -7.2,2.3 -6.2,2.1 h -0.1 a 5.012235,5.012235 0 0 1 -3.2,-9.5 h 0.3 l 6.5,-1.7 7.5,-1.9 9.7,-2.3 11.6,-2.5 6.3,-1.2 6.6,-1.2 6.9,-1.2 7,-1.1 7.2,-1 7.2,-0.9 7.2,-0.8 7.2,-0.7 c 4.8,-0.5 9.5,-0.7 14,-1.1 l 13.1,-0.6 11.7,-0.3 h 17.7 z m -159,72.4 7.7,-1.2 4.3,-0.4 5.1,-0.4 c 3.6,0 7.7,-0.2 12.1,0.3 l 3.4,0.2 3.5,0.5 3.6,0.5 3.7,0.7 3.8,0.7 3.8,0.9 3.9,1 3.9,1.2 3.9,1.3 3.9,1.5 3.9,1.6 3.9,1.7 2,0.9 1.9,1 3.9,1.9 7.6,4.2 c 4.9,3 9.8,6 14.4,9.3 4.6,3.3 9,6.7 13.1,10.1 4.1,3.4 8,6.9 11.6,10.2 3.6,3.3 6.8,6.7 9.8,9.7 3,3 5.6,6 7.8,8.6 2.2,2.6 4.2,4.9 5.8,6.9 3.1,3.9 4.8,6.2 4.8,6.2 0,0 -1.8,-2.2 -5.1,-5.9 -1.7,-1.8 -3.7,-4.1 -6.1,-6.5 -2.4,-2.4 -5.2,-5.2 -8.3,-8.1 -3.1,-2.9 -6.5,-6 -10.2,-9.1 -3.7,-3.1 -7.7,-6.3 -12,-9.5 -4.3,-3.2 -8.7,-6.3 -13.4,-9.2 -4.7,-2.9 -9.6,-5.7 -14.5,-8.3 l -7.6,-3.6 -3.8,-1.7 -1.9,-0.8 -1.9,-0.7 -3.8,-1.4 -3.8,-1.3 -3.8,-1.2 -3.8,-1 -3.7,-1 -3.7,-0.8 -3.6,-0.7 -3.6,-0.5 -3.5,-0.4 -3.4,-0.3 -3.3,-0.3 h -3.1 c -4.1,-0.2 -7.8,0.2 -11.2,0.4 l -4.5,0.6 -3.8,0.5 -7.6,1.6 a 5.0009999,5.0009999 0 1 1 -2,-9.8 h 0.3 z m -190.7,2 -15.5,-3 c -9.8,-1.9 -23.8,-4.7 -40.7,-7.4 -8.4,-1.4 -17.6,-2.7 -27.3,-4 -9.7,-1.3 -20,-2.3 -30.6,-3.2 -10.6,-0.9 -21.6,-1.4 -32.8,-1.6 -11.2,-0.2 -22.6,0.1 -33.9,0.8 a 334.9,334.9 0 0 0 -33.7,3.9 c -5.5,0.9 -11,2 -16.3,3.2 -5.3,1.2 -10.6,2.6 -15.7,4.2 a 200.6,200.6 0 0 0 -52.8,24.1 165.1,165.1 0 0 0 -18.6,14.1 c -1.3,1.1 -2.5,2.3 -3.7,3.4 l -3.4,3.2 -3.1,3.1 -2.7,2.9 c -1.7,1.8 -3.1,3.5 -4.4,5 l -1.7,2.1 -1.4,1.8 -2.5,3.2 2.5,-3.3 1.3,-1.8 1.7,-2.1 c 1.2,-1.5 2.6,-3.3 4.3,-5.1 l 2.6,-3 3,-3.2 3.3,-3.4 c 1.2,-1.1 2.3,-2.4 3.7,-3.5 a 166.3,166.3 0 0 1 18.3,-14.7 202.9,202.9 0 0 1 52.8,-25.9 c 5.1,-1.7 10.4,-3.2 15.8,-4.6 5.4,-1.4 10.9,-2.7 16.4,-3.7 a 339.4,339.4 0 0 1 34,-4.9 c 11.5,-1.1 23,-1.6 34.3,-1.8 11.3,-0.2 22.5,0.1 33.3,0.7 10.8,0.6 21.2,1.4 31,2.4 9.8,1 19.1,2.1 27.7,3.3 17.1,2.3 31.2,4.7 41.1,6.4 l 15.5,2.6 a 5.0224496,5.0224496 0 1 1 -1.7,9.9 h -0.1 z m -174.7,-58.7 1.8,-0.3 5,-0.8 7.8,-1.1 10.1,-1.1 c 7.4,-0.7 16.2,-1.1 25.6,-1 4.7,0.1 9.5,0.2 14.5,0.5 l 7.4,0.6 7.4,0.8 7.5,1 7.4,1.2 c 4.9,0.8 9.6,1.9 14.2,2.9 l 6.8,1.7 6.4,1.8 c 4.2,1.2 8.1,2.4 11.7,3.6 l 9.7,3.5 7.4,2.9 4.7,2 1.7,0.7 a 5.0159745,5.0159745 0 1 1 -4,9.2 h -0.3 l -1.6,-0.8 -4.4,-2.2 -7,-3.3 -9.2,-3.9 c -3.4,-1.4 -7.1,-2.8 -11.1,-4.2 l -6.1,-2.1 -6.5,-2 c -4.4,-1.3 -9,-2.6 -13.7,-3.7 l -7.1,-1.6 -7.2,-1.4 -7.3,-1.2 -7.2,-1 c -4.8,-0.6 -9.6,-1.1 -14.2,-1.4 -9.2,-0.7 -17.9,-0.8 -25.3,-0.6 l -10.1,0.4 -7.8,0.6 -5,0.5 z m 162,82.5 -7.6,-1.9 -3.8,-0.6 -2.1,-0.3 -1.1,-0.2 h -1.2 l -5.3,-0.4 h -9 l -3.3,0.3 c -2.2,0.1 -4.5,0.6 -6.8,0.9 -2.3,0.3 -4.7,1 -7.1,1.5 l -1.8,0.4 -1.8,0.5 -3.7,1.1 -3.7,1.3 -3.8,1.4 -7.5,3.2 a 163.1,163.1 0 0 0 -14.8,7.9 l -3.6,2.2 -3.5,2.3 c -2.4,1.5 -4.6,3.2 -6.9,4.8 l -6.6,5 c -2.1,1.7 -4.3,3.4 -6.3,5.1 l -3,2.6 -2.9,2.6 -5.5,5.1 -5.1,5 -4.7,4.8 c -3,3.1 -5.6,6 -7.9,8.6 l -5.8,6.9 c -3.2,3.9 -4.9,6.2 -4.9,6.2 0,0 1.6,-2.4 4.5,-6.4 1.5,-2 3.3,-4.5 5.5,-7.2 2.2,-2.7 4.6,-5.8 7.4,-9.1 l 4.4,-5.1 4.9,-5.3 5.3,-5.4 2.8,-2.8 2.9,-2.8 c 1.9,-1.9 4,-3.7 6.1,-5.5 l 6.4,-5.4 c 2.2,-1.7 4.4,-3.6 6.8,-5.3 l 3.5,-2.6 3.6,-2.5 a 168.4,168.4 0 0 1 14.8,-9 l 7.7,-3.8 3.9,-1.7 3.9,-1.6 3.9,-1.4 1.9,-0.7 1.9,-0.6 c 2.6,-0.7 5,-1.6 7.5,-2 2.5,-0.4 4.9,-1.2 7.3,-1.4 l 3.5,-0.5 1.7,-0.2 h 1.7 l 6.4,-0.4 h 8.5 l 2.5,0.3 4.5,0.5 7.7,1.4 a 5,5 0 0 1 -1.8,9.8 h -0.3 z"
         id="path4169"
         inkscape:connector-curvature="0"
         style="fill:#31323d" />
    </g>
  </g>
  <g
     inkscape:groupmode="layer"
     id="layer4"
     inkscape:label="HeadBand"
     style="display:inline">
    <path
       style="display:inline;fill:#ffffff;fill-rule:evenodd;stroke:#000000;stroke-width:1px;stroke-linecap:butt;stroke-linejoin:miter;stroke-opacity:1"
       d="m 1196.8,876.5 c 0,0 -37.6331,30.32645 -58.7425,62.62165 C 1116.9481,971.41685 1106.1,1015.5 1106.1,1015.5 c 0,0 16.4273,-16.18734 45.4389,-16.18734 29.0117,0 48.0512,3.71014 61.406,7.99214 13.3548,4.282 45.451,28.2652 60.0883,50.3065 14.6373,22.0413 0,0 0,0 0,0 128.4522,-46.0245 163.043,-66.10947 C 1470.667,971.41685 1611.3,863.8 1611.3,863.8 c 0,0 1.0777,-6.19805 -11.1965,-12.89304 C 1587.8294,844.21197 1555.6,835.3 1555.6,835.3 l -225.5279,36.80777 c 0,0 -71.4132,6.695 -87.0349,6.695 -15.6217,0 -46.2372,-2.30277 -46.2372,-2.30277 z"
       id="path5462"
       inkscape:connector-curvature="0"
       inkscape:export-xdpi="96"
       inkscape:export-ydpi="96" />
    <path
       style="display:inline;opacity:1;fill:none;fill-rule:evenodd;stroke:#31323d;stroke-width:8;stroke-linecap:round;stroke-linejoin:miter;stroke-miterlimit:4;stroke-dasharray:none;stroke-opacity:1"
       d="m 1273.0332,1057.6113 c 0,0 51.7039,-16.7688 146.7272,-60.0883 C 1514.7837,954.20354 1611.3,863.8 1611.3,863.8"
       id="path4184"
       inkscape:connector-curvature="0"
       inkscape:export-xdpi="96"
       inkscape:export-ydpi="96" />
    <path
       style="display:inline;fill:none;fill-rule:evenodd;stroke:#31323d;stroke-width:8;stroke-linecap:round;stroke-linejoin:miter;stroke-miterlimit:4;stroke-dasharray:none;stroke-opacity:1"
       d="m 1212.9449,1007.3048 c 0,0 69.57,-12.74675 191.7465,-70.99636 C 1510.369,885.92499 1555.6,835.3 1555.6,835.3"
       id="path4991"
       inkscape:connector-curvature="0"
       sodipodi:nodetypes="csc"
       inkscape:export-xdpi="96"
       inkscape:export-ydpi="96" />
    <path
       style="display:inline;fill:none;fill-rule:evenodd;stroke:#31323d;stroke-width:8;stroke-linecap:round;stroke-linejoin:round;stroke-miterlimit:4;stroke-dasharray:none;stroke-opacity:1"
       d="m 1138.0575,939.12165 c 0,0 137.7705,-12.86615 227.2042,-40.81419 C 1454.6954,870.35942 1547.8,839.5 1547.8,839.5"
       id="path4995"
       inkscape:connector-curvature="0"
       sodipodi:nodetypes="csc"
       inkscape:export-xdpi="96"
       inkscape:export-ydpi="96" />
    <path
       style="display:inline;fill:none;fill-rule:evenodd;stroke:#31323d;stroke-width:8;stroke-linecap:round;stroke-linejoin:miter;stroke-miterlimit:4;stroke-dasharray:none;stroke-opacity:1"
       d="m 1196.8,876.5 c 0,0 68.972,6.96324 168.7713,-10.82278 99.7994,-17.78603 185.6544,-32.76322 185.6544,-32.76322"
       id="path5349"
       inkscape:connector-curvature="0"
       sodipodi:nodetypes="csc"
       inkscape:export-xdpi="96"
       inkscape:export-ydpi="96" />
  </g>
</svg>
